<svg width="1920" height="700" viewBox="0 0 1920 700" fill="none" xmlns="http://www.w3.org/2000/svg">
<rect width="1920" height="700" fill="url(#paint0_linear_240_368)"/>
<mask id="mask0_240_368" style="mask-type:alpha" maskUnits="userSpaceOnUse" x="0" y="0" width="1920" height="700">
<rect width="1920" height="700" fill="url(#paint1_linear_240_368)"/>
</mask>
<g mask="url(#mask0_240_368)">
<g opacity="0.1" filter="url(#filter0_d_240_368)">
<path d="M1297.52 -83.6061C996.14 -114.89 950.597 146.572 965.783 282.444C1004.49 499.402 1230.28 630.073 1319.88 676.273C1391.56 713.233 1547.4 864.586 1616.36 935.642C1889.28 1106.09 1982.98 785.348 2001.81 729.285C2020.65 673.221 2034.73 472.905 2145.98 320.748C2234.98 199.022 2279.03 67.1858 2289.93 16.4832C2313.07 -211.153 2200.78 -250.746 2151.8 -267.14C2102.83 -283.534 1993.23 -275.949 1807.13 -121.299C1658.25 2.42083 1405.55 -43.8007 1297.52 -83.6061Z" fill="white"/>
</g>
<g opacity="0.1" filter="url(#filter1_d_240_368)">
<path d="M1007.78 979.587C804.993 1204.73 989.474 1395.52 1108.22 1463.27C1306.36 1559.77 1544.94 1454.26 1635.05 1409.06C1707.14 1372.89 1921.24 1336.09 2019.28 1322.21C2317.77 1202.03 2113.74 937.41 2079.52 889.168C2045.31 840.926 1891.72 711.565 1834.27 532.042C1788.32 388.423 1707.71 275.18 1673.16 236.511C1502.82 83.7355 1404.69 151.169 1362.59 181.094C1320.5 211.02 1262.08 304.061 1277.45 545.544C1289.75 738.73 1103.57 915.729 1007.78 979.587Z" fill="white"/>
</g>
</g>
<defs>
<filter id="filter0_d_240_368" x="924.232" y="-308.168" width="1407.8" height="1336.22" filterUnits="userSpaceOnUse" color-interpolation-filters="sRGB">
<feFlood flood-opacity="0" result="BackgroundImageFix"/>
<feColorMatrix in="SourceAlpha" type="matrix" values="0 0 0 0 0 0 0 0 0 0 0 0 0 0 0 0 0 0 127 0" result="hardAlpha"/>
<feOffset dy="4"/>
<feGaussianBlur stdDeviation="19.5"/>
<feComposite in2="hardAlpha" operator="out"/>
<feColorMatrix type="matrix" values="0 0 0 0 0.52549 0 0 0 0 0.733333 0 0 0 0 0.945098 0 0 0 1 0"/>
<feBlend mode="normal" in2="BackgroundImageFix" result="effect1_dropShadow_240_368"/>
<feBlend mode="normal" in="SourceGraphic" in2="effect1_dropShadow_240_368" result="shape"/>
</filter>
<filter id="filter1_d_240_368" x="878.223" y="105.217" width="1340.12" height="1440.45" filterUnits="userSpaceOnUse" color-interpolation-filters="sRGB">
<feFlood flood-opacity="0" result="BackgroundImageFix"/>
<feColorMatrix in="SourceAlpha" type="matrix" values="0 0 0 0 0 0 0 0 0 0 0 0 0 0 0 0 0 0 127 0" result="hardAlpha"/>
<feOffset dy="4"/>
<feGaussianBlur stdDeviation="19.5"/>
<feComposite in2="hardAlpha" operator="out"/>
<feColorMatrix type="matrix" values="0 0 0 0 0.52549 0 0 0 0 0.733333 0 0 0 0 0.945098 0 0 0 1 0"/>
<feBlend mode="normal" in2="BackgroundImageFix" result="effect1_dropShadow_240_368"/>
<feBlend mode="normal" in="SourceGraphic" in2="effect1_dropShadow_240_368" result="shape"/>
</filter>
<linearGradient id="paint0_linear_240_368" x1="549.5" y1="-22.781" x2="1195.21" y2="971.612" gradientUnits="userSpaceOnUse">
<stop stop-color="#D2EAEF"/>
<stop offset="1" stop-color="#86BBF1"/>
</linearGradient>
<linearGradient id="paint1_linear_240_368" x1="549.5" y1="-22.781" x2="1195.21" y2="971.612" gradientUnits="userSpaceOnUse">
<stop stop-color="#D2EAEF"/>
<stop offset="1" stop-color="#86BBF1"/>
</linearGradient>
</defs>
</svg>
