<svg width="21" height="21" viewBox="0 0 21 21" fill="none" xmlns="http://www.w3.org/2000/svg">
<path d="M4.25556 13.9594C6.33469 16.4353 8.83751 18.3848 11.6941 19.7642C12.7817 20.2777 14.2363 20.8869 15.8568 20.9913C15.9572 20.9956 16.0533 21 16.1538 21C17.2414 21 18.115 20.6258 18.827 19.8556C18.8313 19.8512 18.8401 19.8425 18.8444 19.8338C19.0978 19.5292 19.386 19.2551 19.6874 18.9635C19.8927 18.7677 20.1024 18.5632 20.3033 18.3543C21.2337 17.3883 21.2337 16.1612 20.2946 15.2257L17.6695 12.6104C17.2239 12.1492 16.691 11.9055 16.1319 11.9055C15.5728 11.9055 15.0356 12.1492 14.577 12.6061L13.0132 14.1639C12.8691 14.0812 12.7206 14.0073 12.5808 13.9376C12.4061 13.8506 12.2445 13.7679 12.1003 13.6765C10.6764 12.7758 9.3835 11.6009 8.14738 10.091C7.52276 9.30336 7.10344 8.64194 6.81079 7.96747C7.22138 7.5976 7.60575 7.21032 7.97703 6.83174C8.10807 6.69685 8.24347 6.56196 8.37888 6.42706C8.85061 5.95711 9.10395 5.41318 9.10395 4.86055C9.10395 4.30792 8.85498 3.76399 8.37888 3.29403L7.07723 1.99731C6.92436 1.84501 6.78022 1.69706 6.63171 1.54476C6.34342 1.24886 6.04204 0.94426 5.74502 0.67012C5.29512 0.230626 4.7666 0 4.20751 0C3.65278 0 3.11989 0.230626 2.65253 0.674472L1.01892 2.30191C0.424885 2.8937 0.0885549 3.61169 0.0186681 4.44281C-0.0643224 5.4828 0.127866 6.58806 0.62581 7.92395C1.3902 9.99088 2.54333 11.9099 4.25556 13.9594ZM1.08444 4.53419C1.13686 3.95545 1.35962 3.47244 1.77894 3.0547L3.40381 1.43597C3.65715 1.19229 3.9367 1.0661 4.20751 1.0661C4.47395 1.0661 4.74476 1.19229 4.99373 1.44467C5.28639 1.71446 5.56156 1.99731 5.85858 2.29755C6.00709 2.44985 6.15997 2.60215 6.31285 2.75881L7.61449 4.05553C7.8853 4.32532 8.02507 4.59946 8.02507 4.86925C8.02507 5.13904 7.8853 5.41318 7.61449 5.68297C7.47908 5.81786 7.34368 5.95711 7.20827 6.092C6.80206 6.50104 6.42205 6.88831 6.00273 7.25818C5.99399 7.26689 5.98962 7.27124 5.98089 7.27994C5.61835 7.64111 5.67513 7.98487 5.76249 8.24596C5.76686 8.25901 5.77123 8.26772 5.77559 8.28077C6.11192 9.08578 6.57929 9.85164 7.30873 10.7654C8.61911 12.3755 9.99938 13.6243 11.5194 14.586C11.7072 14.7078 11.9082 14.8036 12.096 14.8993C12.2707 14.9863 12.4323 15.069 12.5765 15.1604C12.5939 15.1691 12.607 15.1778 12.6245 15.1865C12.7686 15.2605 12.9084 15.2953 13.0482 15.2953C13.3976 15.2953 13.6248 15.0734 13.699 14.9994L15.3326 13.3719C15.586 13.1196 15.8611 12.9847 16.1319 12.9847C16.4639 12.9847 16.7347 13.1892 16.9051 13.3719L19.5389 15.9915C20.0631 16.5137 20.0587 17.0794 19.5258 17.632C19.3424 17.8278 19.1502 18.0149 18.9449 18.2107C18.6391 18.5066 18.3203 18.8112 18.032 19.155C17.5297 19.6946 16.9313 19.947 16.1581 19.947C16.0839 19.947 16.0053 19.9426 15.931 19.9383C14.4983 19.8469 13.1661 19.2899 12.1659 18.8156C9.44902 17.5058 7.06413 15.6477 5.08546 13.2893C3.45622 11.3355 2.35988 9.51658 1.6348 7.56714C1.1849 6.37049 1.01456 5.40883 1.08444 4.53419Z" fill="white"/>
</svg>
