<svg width="21" height="21" viewBox="0 0 21 21" fill="none" xmlns="http://www.w3.org/2000/svg">
<mask id="mask0_19_3743" style="mask-type:luminance" maskUnits="userSpaceOnUse" x="0" y="0" width="21" height="21">
<path d="M21 0H0V21H21V0Z" fill="white"/>
<path d="M11.5254 10.5C11.5254 11.0663 11.0663 11.5254 10.5 11.5254C9.9337 11.5254 9.47461 11.0663 9.47461 10.5C9.47461 9.9337 9.9337 9.47461 10.5 9.47461C11.0663 9.47461 11.5254 9.9337 11.5254 10.5Z" fill="white"/>
<path d="M15.627 10.5C15.627 11.0663 15.1679 11.5254 14.6016 11.5254C14.0353 11.5254 13.5762 11.0663 13.5762 10.5C13.5762 9.9337 14.0353 9.47461 14.6016 9.47461C15.1679 9.47461 15.627 9.9337 15.627 10.5Z" fill="white"/>
<path d="M7.42383 10.5C7.42383 11.0663 6.96474 11.5254 6.39844 11.5254C5.83213 11.5254 5.37305 11.0663 5.37305 10.5C5.37305 9.9337 5.83213 9.47461 6.39844 9.47461C6.96474 9.47461 7.42383 9.9337 7.42383 10.5Z" fill="white"/>
</mask>
<g mask="url(#mask0_19_3743)">
<mask id="mask1_19_3743" style="mask-type:luminance" maskUnits="userSpaceOnUse" x="0" y="0" width="21" height="21">
<path d="M0 1.90735e-06H21V21H0V1.90735e-06Z" fill="white"/>
</mask>
<g mask="url(#mask1_19_3743)">
<path d="M10.5 0.820314C5.15406 0.820314 0.820312 5.15407 0.820312 10.5C0.820312 12.382 1.35799 14.1382 2.28728 15.6244L0.820312 20.1797L5.37563 18.7127C6.86183 19.642 8.618 20.1797 10.5 20.1797C15.8459 20.1797 20.1797 15.8459 20.1797 10.5C20.1797 5.15407 15.8459 0.820314 10.5 0.820314Z" stroke="white" stroke-miterlimit="10" stroke-linecap="round" stroke-linejoin="round"/>
<path d="M11.5254 10.5C11.5254 11.0663 11.0663 11.5254 10.5 11.5254C9.9337 11.5254 9.47461 11.0663 9.47461 10.5C9.47461 9.9337 9.9337 9.47461 10.5 9.47461C11.0663 9.47461 11.5254 9.9337 11.5254 10.5Z" fill="white"/>
<path d="M15.627 10.5C15.627 11.0663 15.1679 11.5254 14.6016 11.5254C14.0353 11.5254 13.5762 11.0663 13.5762 10.5C13.5762 9.9337 14.0353 9.47461 14.6016 9.47461C15.1679 9.47461 15.627 9.9337 15.627 10.5Z" fill="white"/>
<path d="M7.42383 10.5C7.42383 11.0663 6.96474 11.5254 6.39844 11.5254C5.83213 11.5254 5.37305 11.0663 5.37305 10.5C5.37305 9.9337 5.83213 9.47461 6.39844 9.47461C6.96474 9.47461 7.42383 9.9337 7.42383 10.5Z" fill="white"/>
</g>
</g>
</svg>
