<svg width="82" height="68" viewBox="0 0 82 68" fill="none" xmlns="http://www.w3.org/2000/svg">
<path d="M29.7383 31.0098V32.9278C29.7383 33.5901 30.275 34.1266 30.9371 34.1266C31.5991 34.1266 32.1359 33.5901 32.1359 32.9278V31.0098C32.1359 30.3476 31.5991 29.811 30.9371 29.811C30.275 29.811 29.7383 30.3476 29.7383 31.0098Z" fill="#307BC4"/>
<path d="M49.7021 31.0098V32.9278C49.7021 33.5901 50.2389 34.1266 50.9009 34.1266C51.563 34.1266 52.0997 33.5901 52.0997 32.9278V31.0098C52.0997 30.3476 51.563 29.811 50.9009 29.811C50.2389 29.811 49.7021 30.3476 49.7021 31.0098Z" fill="#307BC4"/>
<path d="M42.6472 32.0832C41.7323 33.1331 40.1058 33.1323 39.1915 32.0832C38.7564 31.5841 37.9993 31.5322 37.5001 31.967C37.0009 32.402 36.949 33.1592 37.3839 33.6584C39.2545 35.8047 42.5859 35.8028 44.4547 33.6584C44.8896 33.1592 44.8377 32.402 44.3385 31.967C43.8395 31.532 43.0822 31.584 42.6472 32.0832Z" fill="#307BC4"/>
<path d="M78.2818 4.25964C71.7076 2.68171 64.8993 3.99878 59.4376 7.86769C58.6032 7.10638 57.785 6.57235 56.2806 6.51577C55.9123 5.51166 55.1905 4.65652 54.2309 4.12505C50.1763 1.87947 45.5739 0.692505 40.9213 0.692505C37.1982 0.692505 33.5009 1.44391 30.0656 2.91907C29.4573 3.1804 29.176 3.88529 29.4372 4.49364C29.6985 5.10199 30.4034 5.38331 31.0117 5.12213C34.1929 3.75598 37.5738 3.09009 40.9213 3.09009C45.1687 3.09009 49.3694 4.17317 53.0694 6.22246C53.6717 6.55605 54.0738 7.15976 54.1448 7.83748C54.2087 8.44775 54.7233 8.91128 55.337 8.91128L55.8775 8.9076C56.6268 8.9076 57.0966 8.98689 57.5837 9.41989C60.8055 12.2842 63.2441 15.9554 64.6362 20.0358C64.7383 20.3356 64.7135 20.6531 64.5845 20.9296H64.2757C62.546 20.9296 60.9197 20.256 59.6967 19.0329L51.8556 11.1917C51.3874 10.7234 50.6283 10.7235 50.1603 11.1917C43.8809 17.4713 35.5318 20.9296 26.6512 20.9296H17.2534C17.1243 20.6532 17.099 20.3355 17.2008 20.0369C18.9659 14.8619 22.4445 10.339 26.9956 7.30138C27.5463 6.93375 27.6948 6.18938 27.3273 5.63873C26.9597 5.08809 26.2154 4.93943 25.6646 5.30706C24.5108 6.07717 23.4208 6.93535 22.4017 7.86849C16.9398 3.99878 10.1307 2.68123 3.5563 4.25964C1.01917 4.86863 -0.517202 7.44955 0.160037 9.97693L2.27135 17.857C3.08222 20.8834 6.59437 22.2929 9.2469 20.6134C11.156 19.4046 13.2183 18.5288 15.4002 17.9978C15.234 18.4155 15.0767 18.837 14.9314 19.2631C14.742 19.8184 14.6894 20.4141 14.7925 21.0159C11.2399 21.5622 8.51068 24.6398 8.51068 28.3428C8.51068 32.408 11.8002 35.7181 15.8571 35.7542C18.2313 43.5465 24.1471 49.8089 31.7216 52.6587C28.3742 55.4208 26.3726 59.5792 26.3726 64.0096V66.0454C26.3726 66.7076 26.9093 67.2441 27.5714 67.2441H54.2668C54.929 67.2441 55.4655 66.7076 55.4655 66.0454V64.0096C55.4655 59.5878 53.4626 55.4228 50.1167 52.6593C51.6914 52.069 53.2123 51.3289 54.6548 50.4385C55.2181 50.0908 55.393 49.3522 55.0452 48.7888C54.6974 48.2255 53.9587 48.0506 53.3955 48.3985C49.6532 50.7083 45.3388 51.9293 40.9187 51.9293C27.7975 51.9293 17.1227 41.2543 17.1227 28.1329C17.1227 26.5163 17.2886 24.9043 17.6121 23.3272H26.6512C35.5213 23.3272 44.273 20.0105 50.9939 13.7207L58.0014 20.7284C59.6656 22.3924 61.8746 23.3131 64.2262 23.3259C64.5495 24.9024 64.7153 26.5149 64.7153 28.1329C64.7151 34.7653 61.9133 41.1481 57.0283 45.6447C56.5411 46.0933 56.5098 46.8515 56.9581 47.3387C57.4074 47.8266 58.1657 47.8566 58.6519 47.4089C62.1118 44.2241 64.6203 40.1789 65.9705 35.7545C70.032 35.7238 73.327 32.4115 73.327 28.3428C73.327 24.6396 70.5975 21.5621 67.0449 21.0158C67.1469 20.4191 67.0969 19.8245 66.9056 19.2623C66.7601 18.8359 66.6009 18.4148 66.4347 17.9969C68.6176 18.5279 70.6808 19.4038 72.5907 20.6133C75.2458 22.294 78.7567 20.8789 79.5663 17.8568L81.6778 9.97677C82.3544 7.45227 80.8212 4.86927 78.2818 4.25964ZM10.9083 28.3428C10.9083 25.8381 12.7536 23.7565 15.1562 23.386C14.8697 24.9484 14.7251 26.5392 14.7251 28.1331C14.7251 29.9052 14.903 31.6363 15.2399 33.3106C12.7969 32.9759 10.9083 30.8764 10.9083 28.3428ZM31.6762 64.0098V64.8467H28.77V64.0098C28.77 63.5389 28.7986 63.072 28.8515 62.6104C29.7837 62.9366 30.7301 63.229 31.6858 63.4782C31.6794 63.6554 31.6762 63.8329 31.6762 64.0098ZM53.068 64.0098V64.8467H50.1618V64.0098C50.1618 63.833 50.1586 63.6554 50.1522 63.4782C51.1078 63.229 52.0541 62.9366 52.9861 62.6106C53.0392 63.0722 53.068 63.5391 53.068 64.0098ZM34.5816 53.5502C36.6117 54.0564 38.7341 54.3271 40.9187 54.3271C43.0687 54.3271 45.1959 54.0635 47.2565 53.5509C49.7588 55.1031 51.5923 57.5002 52.4762 60.2501C51.2146 60.704 49.9209 61.086 48.6161 61.3868C48.025 61.5233 47.6288 62.0796 47.6935 62.6828C47.7404 63.1205 47.7642 63.5669 47.7642 64.0098V64.8467H34.0738V64.0098C34.0738 63.5669 34.0976 63.1206 34.1444 62.6828C34.2092 62.0796 33.8129 61.5232 33.2218 61.3868C31.9167 61.0859 30.6224 60.7037 29.3601 60.2496C30.2431 57.4978 32.0769 55.1032 34.5816 53.5502ZM16.6478 15.3017C13.5371 15.8029 10.6188 16.9068 7.96435 18.5876C6.68675 19.3966 4.98159 18.7085 4.58727 17.2364L2.47595 9.35643C2.15084 8.14373 2.8813 6.8874 4.11574 6.59105C9.87811 5.20749 15.8404 6.30302 20.6791 9.59076C19.1013 11.3145 17.7436 13.2364 16.6478 15.3017ZM66.6821 23.386C69.0843 23.7568 70.9295 25.8383 70.9295 28.3428C70.9295 30.8791 69.0369 32.9804 66.5899 33.3116C66.9335 31.6176 67.1127 29.8835 67.1127 28.1331C67.1127 26.5384 66.9681 24.9476 66.6821 23.386ZM79.362 9.35643L77.2505 17.2364C76.8549 18.7121 75.1469 19.3945 73.8736 18.5876C71.22 16.9072 68.3024 15.8035 65.1929 15.302C64.0994 13.2354 62.7443 11.3132 61.1632 9.58772C66.001 6.30238 71.9611 5.20796 77.7222 6.59089C78.9509 6.88596 79.6886 8.13782 79.362 9.35643Z" fill="#307BC4"/>
</svg>
