<svg width="72" height="72" viewBox="0 0 72 72" fill="none" xmlns="http://www.w3.org/2000/svg">
<path d="M14.4004 20.4H15.6004C16.5548 20.3989 17.4699 20.0192 18.1448 19.3444C18.8197 18.6695 19.1993 17.7544 19.2004 16.8V15.6H16.8004V16.8C16.8 17.1181 16.6735 17.4231 16.4485 17.6481C16.2236 17.8731 15.9185 17.9996 15.6004 18H14.4004V20.4Z" fill="#307BC4"/>
<path d="M13.2 14.4C13.8627 14.4 14.4 13.8627 14.4 13.2C14.4 12.5373 13.8627 12 13.2 12C12.5373 12 12 12.5373 12 13.2C12 13.8627 12.5373 14.4 13.2 14.4Z" fill="#307BC4"/>
<path d="M20.4002 14.4C21.0629 14.4 21.6002 13.8627 21.6002 13.2C21.6002 12.5373 21.0629 12 20.4002 12C19.7375 12 19.2002 12.5373 19.2002 13.2C19.2002 13.8627 19.7375 14.4 20.4002 14.4Z" fill="#307BC4"/>
<path d="M62.4 40.8C62.3996 41.1181 62.2731 41.4231 62.0481 41.6481C61.8232 41.8731 61.5181 41.9996 61.2 42H60V44.4H61.2C62.1544 44.3989 63.0695 44.0192 63.7444 43.3444C64.4193 42.6695 64.7989 41.7544 64.8 40.8V39.6H62.4V40.8Z" fill="#307BC4"/>
<path d="M64.8 22.8H60C58.0911 22.8021 56.261 23.5614 54.9112 24.9112C53.5614 26.261 52.8021 28.0911 52.8 30V40.7561L50.3152 37.8571L49.1767 32.1646C49.1726 32.1438 49.1659 32.124 49.1607 32.1036L49.1627 32.1031L48.5335 29.639L50.8457 28.7142C51.0684 28.6251 51.2592 28.4713 51.3937 28.2728C51.5281 28.0742 51.6 27.8398 51.6 27.6V22.8C51.6 22.5631 51.5299 22.3315 51.3984 22.1344L48.9984 18.5344C48.8889 18.37 48.7404 18.2352 48.5662 18.142C48.3921 18.0488 48.1976 18 48 18H45.5616L45.4935 17.7334L45.7956 17.3304C47.8706 14.5731 49.0373 11.2391 49.1343 7.7896C49.1496 7.23774 49.0071 6.69298 48.7236 6.21925C48.4402 5.74552 48.0274 5.36248 47.5339 5.11509C47.5299 5.11318 47.5256 5.11099 47.5213 5.10894C47.1697 4.93578 46.7864 4.83602 46.395 4.81573C46.0036 4.79544 45.6121 4.85504 45.2445 4.99091C44.9916 4.12647 44.4239 3.38819 43.6535 2.92167C42.8831 2.45515 41.9658 2.29427 41.0826 2.47076L40.1883 2.64962C38.5282 2.98162 37.0551 3.92957 36.0652 5.30303C35.0752 6.67649 34.6417 8.3737 34.8517 10.0537C34.8538 10.0704 34.8562 10.0869 34.859 10.1035L36.0165 16.9986C36.0178 17.0061 36.0191 17.0137 36.0206 17.0212L37.048 22.5011L35.7089 22.8359C35.4979 22.8886 35.3052 22.9977 35.1514 23.1515C34.9977 23.3053 34.8885 23.4979 34.8358 23.7089L33.7233 28.1591L30.4607 31.1498L22.5908 26.7776L21.961 24.8883C23.3208 24.0215 24.4402 22.8261 25.2161 21.4125C25.9919 19.9988 26.3991 18.4125 26.4 16.8V8.4C26.3975 6.17295 25.5117 4.03784 23.9369 2.46308C22.3622 0.888313 20.227 0.00250993 18 0H15.6C13.373 0.00250993 11.2378 0.888313 9.66308 2.46308C8.08831 4.03784 7.20251 6.17295 7.2 8.4V16.8C7.20095 18.4125 7.60812 19.9988 8.38395 21.4125C9.15977 22.8261 10.2792 24.0215 11.639 24.8883L11.0092 26.7776L3.08606 31.1793C2.15097 31.6993 1.37182 32.4597 0.829241 33.3819C0.286664 34.304 0.000374187 35.3544 8.13504e-10 36.4244V44.4C-7.03209e-06 44.591 0.0455867 44.7793 0.13299 44.9491C0.220393 45.1189 0.347079 45.2655 0.502515 45.3765L2.4 46.7318V70.8C2.4 71.1183 2.52643 71.4235 2.75148 71.6485C2.97652 71.8736 3.28174 72 3.6 72H31.2C31.5183 72 31.8235 71.8736 32.0485 71.6485C32.2736 71.4235 32.4 71.1183 32.4 70.8V46.8H36C36.2167 46.8 36.4293 46.7413 36.6153 46.6302C36.8014 46.5191 36.9538 46.3597 37.0566 46.169L39.3268 41.9528L40.8233 49.4354C40.8625 49.6314 40.9501 49.8146 41.0781 49.9682L46.8698 56.9183L49.2163 70.9973C49.263 71.2775 49.4076 71.532 49.6244 71.7156C49.8411 71.8992 50.116 72 50.4 72H70.8C71.1183 72 71.4235 71.8736 71.6485 71.6485C71.8736 71.4235 72 71.1183 72 70.8V49.2C72 48.9481 71.9208 48.7027 71.7735 48.4983C71.6262 48.294 71.4184 48.1412 71.1795 48.0615L69.3213 47.4422C71.0408 45.6586 72.0011 43.2774 72 40.8V30C71.9979 28.0911 71.2386 26.261 69.8888 24.9112C68.539 23.5614 66.7089 22.8021 64.8 22.8ZM55.2 30C55.2014 28.7274 55.7076 27.5073 56.6075 26.6075C57.5073 25.7076 58.7274 25.2014 60 25.2H64.8C66.0726 25.2014 67.2927 25.7076 68.1925 26.6075C69.0924 27.5073 69.5986 28.7274 69.6 30V31.2H66.1477C65.0018 31.2013 63.8884 30.8188 62.9852 30.1136C62.0819 29.4084 61.4409 28.421 61.1642 27.3089C61.0993 27.0493 60.9494 26.8188 60.7385 26.6541C60.5276 26.4895 60.2676 26.4 60 26.4C59.7324 26.4 59.4725 26.4895 59.2615 26.6541C59.0506 26.8188 58.9007 27.0493 58.8358 27.3089L58.8 27.4522C58.5835 28.3228 58.134 29.1179 57.4997 29.7524C56.8655 30.3868 56.0705 30.8365 55.2 31.0534V30ZM47.3578 20.4L49.2 23.1633V26.7876L47.9347 27.2937L46.1744 20.4H47.3578ZM38.3816 16.5899L37.2303 9.73257C37.1019 8.65744 37.3836 7.57343 38.0191 6.69679C38.6546 5.82015 39.5973 5.21534 40.659 5.00303L41.5533 4.82417C41.7274 4.78934 41.907 4.79358 42.0793 4.83658C42.2516 4.87958 42.4121 4.96027 42.5494 5.07284C42.6867 5.1854 42.7973 5.32703 42.8733 5.48752C42.9492 5.648 42.9886 5.82334 42.9886 6.00088V7.19099C42.2462 7.69822 41.6393 8.37952 41.2209 9.17538C40.8026 9.97123 40.5855 10.8574 40.5886 11.7565V12.6732H42.9886V11.7565C42.9866 11.1727 43.1483 10.5999 43.4552 10.1033C43.7622 9.6066 44.2022 9.20588 44.7253 8.94653C44.9363 8.84096 45.1116 8.67552 45.2292 8.4709L45.8105 7.45869C45.8735 7.34924 45.9759 7.26795 46.0968 7.23142C46.2177 7.19489 46.348 7.20587 46.4611 7.26211L46.468 7.26548C46.5507 7.30818 46.6196 7.37333 46.6669 7.45345C46.7142 7.53357 46.7379 7.62541 46.7353 7.71841C46.6523 10.673 45.6529 13.5287 43.8757 15.8905L43.2286 16.7533C43.1209 16.8968 43.0468 17.0627 43.0117 17.2387C42.9766 17.4147 42.9814 17.5963 43.0258 17.7702L46.6112 31.8114L41.7558 34.586L41.3234 32.28L43.7366 31.0733C43.936 30.9736 44.1036 30.8204 44.2208 30.6309C44.3379 30.4413 44.4 30.2229 44.4 30V24C44.4 23.7771 44.3379 23.5587 44.2208 23.3691C44.1036 23.1796 43.936 23.0264 43.7366 22.9267L41.3366 21.7267C41.0805 21.5984 40.7868 21.5662 40.5089 21.6359L39.3805 21.918L38.3816 16.5899ZM35.6109 29.6846C35.7843 29.5257 35.9072 29.3193 35.9642 29.0911L36.9896 24.9895L40.6604 24.0718L42 24.7417V29.2584L37.8634 31.3267C37.7108 31.403 37.5762 31.5109 37.4687 31.6433L22.2289 50.4H18.2833L12.562 47.5393L16.091 41.1871L19.8634 43.0733C20.0806 43.182 20.3258 43.2222 20.5665 43.1885C20.8071 43.1548 21.0318 43.0489 21.2109 42.8846L35.6109 29.6846ZM15.6 2.4H18C18.9284 2.40009 19.844 2.61584 20.6748 3.03023C21.5056 3.44462 22.2287 4.04633 22.7872 4.78791C22.1243 5.89329 21.1855 6.80741 20.0629 7.44063C18.9403 8.07386 17.6724 8.40446 16.3835 8.4H9.6C9.60181 6.80926 10.2345 5.28418 11.3594 4.15936C12.4842 3.03453 14.0093 2.40181 15.6 2.4ZM9.6 16.8V10.8H16.3835C17.8135 10.8049 19.2274 10.4974 20.5263 9.89917C21.8253 9.30089 22.9779 8.42621 23.9037 7.33623C23.9673 7.68726 23.9995 8.04325 24 8.4V16.8C24 18.7096 23.2414 20.5409 21.8912 21.8912C20.5409 23.2414 18.7096 24 16.8 24C14.8904 24 13.0591 23.2414 11.7088 21.8912C10.3586 20.5409 9.6 18.7096 9.6 16.8ZM16.8 26.4C17.8111 26.4002 18.8159 26.2399 19.7768 25.9252L20.227 27.2759L18.3515 29.1514C18.2956 29.2073 18.2454 29.2686 18.2016 29.3344L16.8 31.4367L15.3984 29.3344C15.3546 29.2686 15.3044 29.2073 15.2485 29.1514L13.373 27.2759L13.8232 25.9252C14.7841 26.2399 15.7889 26.4002 16.8 26.4ZM2.4 36.4244C2.40023 35.7824 2.57201 35.1521 2.89757 34.5988C3.22313 34.0455 3.69064 33.5893 4.25171 33.2773L11.7915 29.0886L13.4675 30.7645L15.8016 34.2656C15.9111 34.43 16.0596 34.5648 16.2338 34.658C16.408 34.7512 16.6025 34.8 16.8 34.8C16.9976 34.8 17.192 34.7512 17.3662 34.658C17.5404 34.5648 17.6889 34.43 17.7984 34.2656L20.1325 30.7645L21.8085 29.0886L28.5958 32.8593L20.1979 40.5573L16.1366 38.5267L11.3366 36.1267L10.2634 38.2733L13.9424 40.1129L9.20376 48.6423L2.4 43.7824V36.4244ZM30 69.6H4.8V48.4461L8.90252 51.3765C9.04006 51.4747 9.1968 51.5428 9.36247 51.5762C9.52814 51.6097 9.69901 51.6077 9.86389 51.5706C10.0288 51.5334 10.1839 51.4618 10.3192 51.3605C10.4545 51.2592 10.5669 51.1305 10.649 50.9827L11.3953 49.6393L17.4634 52.6733C17.63 52.7566 17.8137 52.8 18 52.8H22.8C22.9784 52.8 23.1546 52.7602 23.3157 52.6835C23.4768 52.6068 23.6188 52.4952 23.7313 52.3567L28.2462 46.8H30V69.6ZM35.2833 44.4H30.1962L39.0995 33.4421L39.5503 35.8463L39.0046 36.1581C38.7859 36.283 38.6121 36.4737 38.5078 36.7029C38.4035 36.9322 38.3739 37.1884 38.4233 37.4354L38.5885 38.2615L35.2833 44.4ZM69.6 69.6H51.4165L49.1837 56.2027C49.1487 55.9925 49.0583 55.7955 48.9219 55.6318L43.1169 48.6659L40.9463 37.8128L47.1498 34.268L48.0233 38.6354C48.0636 38.837 48.1551 39.0248 48.2889 39.1809L55.4889 47.5809L55.5561 47.5233C57.0212 49.0195 58.9363 49.9942 61.0082 50.2984C63.08 50.6026 65.1945 50.2194 67.0278 49.2076L69.6 50.0648V69.6ZM62.4 48C60.4911 47.9979 58.661 47.2386 57.3112 45.8888C55.9614 44.539 55.2021 42.7089 55.2 40.8V33.4992C56.1662 33.3406 57.0909 32.9903 57.9195 32.4687C58.7481 31.9472 59.464 31.265 60.0248 30.4625C60.7225 31.4345 61.6419 32.2262 62.7068 32.7718C63.7716 33.3175 64.9512 33.6014 66.1477 33.6H69.6V40.8C69.5979 42.7089 68.8386 44.539 67.4888 45.8888C66.139 47.2386 64.3089 47.9979 62.4 48Z" fill="#307BC4"/>
<path d="M58.7996 38.4C59.4624 38.4 59.9996 37.8627 59.9996 37.2C59.9996 36.5373 59.4624 36 58.7996 36C58.1369 36 57.5996 36.5373 57.5996 37.2C57.5996 37.8627 58.1369 38.4 58.7996 38.4Z" fill="#307BC4"/>
<path d="M65.9998 38.4C66.6625 38.4 67.1998 37.8627 67.1998 37.2C67.1998 36.5373 66.6625 36 65.9998 36C65.3371 36 64.7998 36.5373 64.7998 37.2C64.7998 37.8627 65.3371 38.4 65.9998 38.4Z" fill="#307BC4"/>
</svg>
