<svg width="72" height="72" viewBox="0 0 72 72" fill="none" xmlns="http://www.w3.org/2000/svg">
<path d="M67.1465 1.85974C61.9175 -1.03557 56.1874 0.943047 52.3591 3.89903C47.2547 1.42401 41.6716 0.0933539 35.9996 0C30.3276 0.0932358 24.7444 1.4239 19.6401 3.89903C15.8112 0.94366 10.0817 -1.0368 4.85276 1.85974C3.06892 2.79147 1.64716 4.29209 0.812918 6.12366C-0.021321 7.95522 -0.220284 10.0129 0.247577 11.9704C0.93763 14.601 2.2598 17.0232 4.09912 19.0264C4.04396 20.1985 4.24229 21.3687 4.68059 22.4572C5.11888 23.5457 5.78682 24.5268 6.63883 25.3336C7.9333 26.6674 9.62319 27.5484 11.4578 27.8459C11.771 27.8906 12.0869 27.9134 12.4033 27.9139C13.0874 27.9305 13.7679 27.81 14.4047 27.5595C15.0415 27.309 15.6218 26.9337 16.1114 26.4556C18.4134 24.154 17.9098 19.9039 14.9889 16.9828C12.9179 14.9117 10.1828 14.063 7.94269 14.5605C6.99149 13.4228 6.30017 12.0911 5.91705 10.6585C5.73376 9.93323 5.8088 9.16682 6.12927 8.49093C6.44974 7.81505 6.99563 7.27192 7.67309 6.95489C9.92483 5.70669 13.7715 6.029 17.2866 9.55731C17.4378 9.70846 17.5877 9.85716 17.7364 10.0034C18.7882 11.0346 19.624 12.2651 20.1952 13.6229C20.7663 14.9807 21.0612 16.4387 21.0628 17.9118C21.0314 20.2625 20.6809 22.598 20.0212 24.8544C17.4441 33.9503 19.6658 38.0466 22.4788 43.2325C25.3996 48.623 29.044 55.3407 29.044 70.9277C29.044 71.2121 29.157 71.4848 29.3581 71.6859C29.5592 71.887 29.8319 72 30.1163 72C30.4007 72 30.6734 71.887 30.8745 71.6859C31.0756 71.4848 31.1886 71.2121 31.1886 70.9277C31.1886 54.7966 27.4032 47.8166 24.3611 42.2079C21.5799 37.0809 19.743 33.6905 22.0817 25.4371C22.7958 22.9933 23.1745 20.4637 23.2073 17.9179C23.2062 16.1584 22.8546 14.4168 22.1731 12.7947C21.4916 11.1726 20.4939 9.70254 19.2381 8.47026C19.0941 8.32994 18.9508 8.18655 18.8055 8.04133C14.5024 3.72133 9.5909 3.43823 6.63393 5.07615C5.5497 5.62152 4.68217 6.51811 4.17278 7.61977C3.66339 8.72142 3.54218 9.96316 3.82891 11.1425C4.23471 12.7152 4.95713 14.1885 5.95197 15.4723C5.79909 15.591 5.65361 15.7189 5.51633 15.8553C5.28586 16.0885 5.0805 16.3452 4.90361 16.6213C3.69486 15.1114 2.82006 13.3622 2.33694 11.4894C1.98158 9.9863 2.13822 8.40762 2.78201 7.00371C3.4258 5.5998 4.51988 4.45107 5.8907 3.73971C10.4297 1.22737 15.5422 3.25317 18.8135 5.98795C18.9737 6.12203 19.1697 6.20629 19.3772 6.23035C19.5847 6.25442 19.7947 6.21723 19.9813 6.12337C24.9529 3.60738 30.4287 2.24728 35.9996 2.14468C41.5701 2.24642 47.0456 3.60546 52.0173 6.12031C52.2039 6.21416 52.4139 6.25135 52.6214 6.22729C52.8289 6.20323 53.0249 6.11896 53.1851 5.98489C56.4576 3.25072 61.5689 1.22308 66.1079 3.73665C67.4795 4.44797 68.5741 5.59719 69.218 7.00179C69.8618 8.40639 70.018 9.98586 69.6617 11.4894C69.1789 13.3645 68.3032 15.1157 67.0925 16.6268C66.9166 16.3509 66.7123 16.0942 66.4829 15.8608C66.3455 15.7246 66.2 15.5967 66.0472 15.4779C67.0426 14.1928 67.7651 12.7179 68.1703 11.1438C68.4569 9.96439 68.3357 8.72269 67.8263 7.62106C67.3169 6.51944 66.4494 5.62283 65.3653 5.07738C62.4089 3.44007 57.498 3.72255 53.1924 8.04255C53.0485 8.18778 52.9051 8.33117 52.7635 8.47149C51.5078 9.70364 50.5101 11.1736 49.8288 12.7956C49.1474 14.4176 48.7959 16.1592 48.795 17.9185C48.8279 20.4645 49.2065 22.9943 49.9205 25.4384C52.2593 33.6936 50.4224 37.0809 47.6412 42.2085C44.596 47.8166 40.8107 54.7966 40.8107 70.9277C40.8107 71.2121 40.9236 71.4848 41.1247 71.6859C41.3258 71.887 41.5985 72 41.8829 72C42.1673 72 42.44 71.887 42.6411 71.6859C42.8422 71.4848 42.9552 71.2121 42.9552 70.9277C42.9552 55.3407 46.5972 48.623 49.5229 43.2306C52.3359 38.0448 54.5576 33.9485 51.9805 24.8532C51.3208 22.5965 50.9704 20.2608 50.9389 17.9099C50.9408 16.4375 51.2359 14.9803 51.8069 13.6231C52.3779 12.2659 53.2134 11.0361 54.2647 10.0052C54.4142 9.859 54.5641 9.71009 54.7144 9.55854C58.2302 6.02962 62.0762 5.7073 64.3286 6.95612C65.0058 7.27335 65.5514 7.81657 65.8717 8.49243C66.1919 9.1683 66.2668 9.9346 66.0834 10.6597C65.7 12.092 65.0087 13.4235 64.0578 14.5612C61.8183 14.0636 59.0825 14.9123 57.0115 16.9834C54.0907 19.9045 53.587 24.1528 55.889 26.4562C56.3786 26.9343 56.9589 27.3096 57.5957 27.5601C58.2326 27.8106 58.9131 27.9311 59.5972 27.9146C59.9135 27.914 60.2294 27.8913 60.5426 27.8465C62.3773 27.549 64.0671 26.668 65.3616 25.3342C66.2135 24.5272 66.8812 23.546 67.3193 22.4574C67.7574 21.3688 67.9555 20.1985 67.9001 19.0264C69.7389 17.0243 71.061 14.6034 71.7516 11.9741C72.2204 10.016 72.0219 7.95753 71.1876 6.12519C70.3533 4.29285 68.931 2.79163 67.1465 1.85974ZM13.4725 18.4963C15.522 20.5467 16.0361 23.4959 14.595 24.9365C13.1293 26.4022 10.2404 25.8998 8.1553 23.8139C6.10576 21.7642 5.59169 18.815 7.0328 17.3738C7.32711 17.0937 7.67434 16.8752 8.05415 16.731C8.43396 16.5869 8.83872 16.52 9.24471 16.5343C10.8544 16.618 12.3693 17.3211 13.4725 18.4963ZM63.8439 23.8139C61.7607 25.8973 58.8687 26.4016 57.4043 24.9365C55.9632 23.4959 56.4772 20.5467 58.5268 18.4963C60.61 16.4129 63.5008 15.908 64.9664 17.3738C66.4075 18.815 65.8935 21.7642 63.8439 23.8139Z" fill="#307BC4"/>
<path d="M45.8148 26.3091C44.427 19.9976 45.2217 15.6157 46.1316 13.0549C46.2873 12.6145 46.3338 12.1429 46.267 11.6805C46.2003 11.2182 46.0224 10.7789 45.7486 10.4004C45.4743 10.0248 45.1145 9.71985 44.699 9.51089C44.2834 9.30193 43.8241 9.19495 43.359 9.19881C43.0036 9.20751 42.648 9.18702 42.296 9.13753C41.5439 9.01179 40.8099 8.79555 40.1098 8.49351C38.8158 7.917 37.415 7.61908 35.9985 7.61908C34.5819 7.61908 33.1811 7.917 31.8871 8.49351C31.187 8.79555 30.453 9.01179 29.7009 9.13753C29.3486 9.1866 28.9929 9.20709 28.6373 9.19881C28.172 9.194 27.7123 9.30056 27.2967 9.50959C26.881 9.71863 26.5213 10.0241 26.2477 10.4004C25.9738 10.7789 25.7959 11.2182 25.7292 11.6805C25.6625 12.1429 25.709 12.6145 25.8647 13.0549C26.7746 15.6157 27.5693 19.9945 26.1815 26.3091C24.6926 33.0869 25.9193 35.9503 27.6171 39.9125C29.7451 44.8759 32.6585 51.6776 32.6585 70.927C32.6585 71.2114 32.7715 71.4842 32.9726 71.6853C33.1737 71.8864 33.4464 71.9994 33.7308 71.9994C34.0152 71.9994 34.2879 71.8864 34.489 71.6853C34.6901 71.4842 34.803 71.2114 34.803 70.927C34.803 51.2376 31.7891 44.2037 29.5882 39.0681C27.9369 35.2034 26.9376 32.8749 28.2794 26.7693C29.7763 19.9584 28.8922 15.1616 27.8885 12.3368C27.8489 12.2232 27.8375 12.1017 27.8555 11.9827C27.8734 11.8638 27.9201 11.751 27.9915 11.6542C28.0582 11.5588 28.1467 11.4809 28.2497 11.4267C28.3526 11.3726 28.467 11.3438 28.5834 11.3429H28.5981C29.0693 11.3532 29.5405 11.3255 30.0073 11.2602C30.9211 11.1135 31.8137 10.8561 32.6653 10.4936C33.7119 10.0123 34.8502 9.76318 36.0021 9.76318C37.1541 9.76318 38.2924 10.0123 39.339 10.4936C40.1906 10.8561 41.0831 11.1135 41.997 11.2602C42.4637 11.3255 42.935 11.3532 43.4062 11.3429H43.4135C43.5299 11.3439 43.6444 11.3726 43.7475 11.4268C43.8505 11.4809 43.9392 11.5589 44.006 11.6542C44.0774 11.751 44.1241 11.8638 44.142 11.9827C44.16 12.1017 44.1486 12.2232 44.109 12.3368C43.1047 15.1616 42.2212 19.9584 43.7181 26.7693C45.0593 32.8742 44.06 35.2058 42.4056 39.0687C40.2048 44.2043 37.1908 51.2382 37.1908 70.9276C37.1908 71.212 37.3038 71.4848 37.5049 71.6859C37.7059 71.887 37.9787 72 38.2631 72C38.5474 72 38.8202 71.887 39.0213 71.6859C39.2223 71.4848 39.3353 71.212 39.3353 70.9276C39.3353 51.6782 42.2488 44.8783 44.3767 39.9131C46.077 35.9503 47.3037 33.0869 45.8148 26.3091Z" fill="#307BC4"/>
</svg>
