<svg width="70" height="66" viewBox="0 0 70 66" fill="none" xmlns="http://www.w3.org/2000/svg">
<path d="M44.5703 32.8124C43.8156 32.8124 43.2031 33.4249 43.2031 34.1796C43.2031 34.9343 43.8156 35.5468 44.5703 35.5468C45.325 35.5468 45.9375 34.9343 45.9375 34.1796C45.9375 33.4249 45.325 32.8124 44.5703 32.8124Z" fill="#307BC4"/>
<path d="M56.8749 54.6874H55.2416L50.7908 29.7334C49.9623 25.18 46.0019 21.8749 41.3737 21.8749H28.6261C23.9971 21.8749 20.0372 25.1801 19.2096 29.738L14.7582 54.6874H13.125C10.8634 54.6874 9.02344 56.5273 9.02344 58.7889V64.2576C9.02344 65.0126 9.63553 65.6248 10.3906 65.6248H59.6092C60.3642 65.6248 60.9764 65.0126 60.9764 64.2576V58.7889C60.9764 56.5273 59.1365 54.6874 56.8749 54.6874ZM21.9008 30.2224C22.4913 26.97 25.3197 24.6093 28.6261 24.6093H41.3737C44.6797 24.6093 47.5087 26.9702 48.0996 30.2182L52.4641 54.6874H17.5358L21.9008 30.2224ZM58.2421 62.8905H11.7578V58.7889C11.7578 58.035 12.3711 57.4217 13.125 57.4217C16.1975 57.4217 55.0132 57.4217 56.8749 57.4217C57.6287 57.4217 58.2421 58.035 58.2421 58.7889V62.8905Z" fill="#307BC4"/>
<path d="M48.978 50.3414L46.9724 39.3014C46.8374 38.5582 46.1244 38.0649 45.3829 38.2006C44.6398 38.3355 44.1471 39.0471 44.282 39.7901L46.2877 50.8301C46.4236 51.5787 47.1411 52.0654 47.8772 51.9309C48.6202 51.796 49.1131 51.0842 48.978 50.3414Z" fill="#307BC4"/>
<path d="M68.6328 32.8124H56.875C56.12 32.8124 55.5078 33.4247 55.5078 34.1796C55.5078 34.9346 56.12 35.5468 56.875 35.5468H68.6328C69.3877 35.5468 70 34.9346 70 34.1796C70 33.4247 69.3877 32.8124 68.6328 32.8124Z" fill="#307BC4"/>
<path d="M13.125 32.8124H1.36718C0.612088 32.8124 0 33.4247 0 34.1796C0 34.9346 0.612088 35.5468 1.36718 35.5468H13.125C13.8801 35.5468 14.4921 34.9346 14.4921 34.1796C14.4921 33.4247 13.8801 32.8124 13.125 32.8124Z" fill="#307BC4"/>
<path d="M59.1688 10.0104C58.6347 9.47664 57.7693 9.47664 57.2352 10.0104L49.501 17.7445C48.9671 18.2784 48.9671 19.1441 49.501 19.6782C50.0352 20.212 50.9005 20.2119 51.4346 19.6782L59.1688 11.944C59.7028 11.41 59.7028 10.5443 59.1688 10.0104Z" fill="#307BC4"/>
<path d="M20.4988 17.7446L12.7647 10.0104C12.2307 9.47669 11.3651 9.47655 10.8311 10.0104C10.2972 10.5443 10.2972 11.41 10.8311 11.944L18.5652 19.6782C19.0994 20.2121 19.9648 20.2121 20.4988 19.6782C21.0327 19.1443 21.0327 18.2786 20.4988 17.7446Z" fill="#307BC4"/>
<path d="M35 0C34.245 0 33.6328 0.612225 33.6328 1.36718V12.3047C33.6328 13.0596 34.245 13.6718 35 13.6718C35.755 13.6718 36.3672 13.0596 36.3672 12.3047V1.36718C36.3672 0.612225 35.755 0 35 0Z" fill="#307BC4"/>
</svg>
