<svg width="63" height="70" viewBox="0 0 63 70" fill="none" xmlns="http://www.w3.org/2000/svg">
<path d="M50.9953 16.3731C50.8133 16.373 50.6349 16.3227 50.4796 16.2278C50.3243 16.1329 50.1981 15.997 50.1151 15.835C50.032 15.6731 49.9952 15.4913 50.0087 15.3098C50.0222 15.1283 50.0855 14.954 50.1916 14.8062C50.794 13.9647 51.1154 12.9546 51.1102 11.9197C51.1083 10.7218 50.6797 9.56375 49.9013 8.65325C49.1228 7.74276 48.0454 7.13942 46.8623 6.95148C45.6792 6.76353 44.4679 7.00328 43.4456 7.6277C42.4232 8.25212 41.6569 9.22037 41.2839 10.3587C41.198 10.6029 41.0198 10.8036 40.7876 10.918C40.5555 11.0324 40.2877 11.0513 40.0418 10.9706C39.7959 10.89 39.5913 10.7162 39.4719 10.4866C39.3526 10.257 39.3279 9.98969 39.4032 9.74207C39.9226 8.15582 40.9903 6.80661 42.4148 5.9366C43.8392 5.0666 45.5271 4.73277 47.1755 4.99502C48.8239 5.25728 50.3248 6.09845 51.409 7.36756C52.4931 8.63667 53.0894 10.2506 53.0909 11.9197C53.0978 13.3685 52.6475 14.7824 51.804 15.9603C51.712 16.0887 51.5905 16.1931 51.4498 16.2649C51.3091 16.3367 51.1533 16.3738 50.9953 16.3731Z" fill="#307BC4"/>
<path d="M58.7114 27.8168C58.5487 27.8167 58.3885 27.7766 58.245 27.6999C58.1015 27.6232 57.9791 27.5123 57.8887 27.3771C57.7982 27.2418 57.7425 27.0864 57.7265 26.9244C57.7105 26.7625 57.7346 26.5992 57.7968 26.4488C58.1428 25.5981 58.3177 24.6876 58.3115 23.7693C58.3228 22.7914 58.14 21.8209 57.7736 20.9142C57.4072 20.0075 56.8645 19.1825 56.177 18.487C55.4895 17.7915 54.6708 17.2393 53.7684 16.8624C52.866 16.4856 51.8977 16.2915 50.9198 16.2915C49.9418 16.2915 48.9736 16.4856 48.0711 16.8624C47.1687 17.2393 46.35 17.7915 45.6625 18.487C44.975 19.1825 44.4324 20.0075 44.066 20.9142C43.6996 21.8209 43.5167 22.7914 43.5281 23.7693C43.5281 24.0318 43.4238 24.2836 43.2381 24.4692C43.0525 24.6548 42.8007 24.7591 42.5382 24.7591C42.2757 24.7591 42.0239 24.6548 41.8383 24.4692C41.6526 24.2836 41.5483 24.0318 41.5483 23.7693C41.5356 22.5305 41.7686 21.3015 42.2339 20.1533C42.6991 19.0052 43.3874 17.9606 44.2589 17.0801C45.1303 16.1997 46.1677 15.5007 47.3111 15.0237C48.4544 14.5466 49.6809 14.301 50.9198 14.301C52.1586 14.301 53.3852 14.5466 54.5285 15.0237C55.6718 15.5007 56.7092 16.1997 57.5807 17.0801C58.4522 17.9606 59.1404 19.0052 59.6057 20.1533C60.0709 21.3015 60.3039 22.5305 60.2912 23.7693C60.2981 24.9484 60.0724 26.1172 59.627 27.209C59.5515 27.3894 59.4242 27.5435 59.2613 27.6516C59.0983 27.7598 58.907 27.8173 58.7114 27.8168Z" fill="#307BC4"/>
<path d="M53.6429 42.8615C53.3212 42.8615 53.0025 42.8446 52.6887 42.8139C52.5594 42.801 52.4339 42.7626 52.3194 42.7011C52.2048 42.6396 52.1036 42.5561 52.0213 42.4555C51.939 42.3548 51.8774 42.239 51.8399 42.1145C51.8024 41.99 51.7898 41.8594 51.8028 41.7301C51.8158 41.6007 51.8542 41.4752 51.9157 41.3607C51.9772 41.2462 52.0606 41.1449 52.1613 41.0626C52.2619 40.9804 52.3778 40.9187 52.5023 40.8812C52.6267 40.8437 52.7574 40.8311 52.8867 40.8441C53.1342 40.8686 53.3853 40.8811 53.64 40.8818C55.1866 40.8834 56.6946 40.3994 57.9514 39.4981C59.2082 38.5967 60.1502 37.3235 60.6446 35.8581C61.139 34.3927 61.1609 32.809 60.707 31.3305C60.2532 29.852 59.3466 28.5534 58.1151 27.6177C57.9051 27.4602 57.7662 27.2257 57.7291 26.9658C57.692 26.706 57.7596 26.442 57.9171 26.2319C58.0746 26.0219 58.3091 25.8831 58.569 25.846C58.8289 25.8088 59.0929 25.8765 59.3029 26.034C60.8632 27.2208 62.0119 28.8672 62.5873 30.7412C63.1628 32.6153 63.1359 34.6226 62.5105 36.4806C61.8851 38.3385 60.6928 39.9536 59.1013 41.0982C57.5098 42.2429 55.5994 42.8596 53.639 42.8615H53.6429Z" fill="#307BC4"/>
<path d="M50.0038 63.6157C49.7551 63.6158 49.5154 63.5222 49.3326 63.3536C49.1497 63.185 49.037 62.9537 49.0169 62.7058C48.9968 62.4579 49.0708 62.2115 49.2241 62.0156C49.3775 61.8198 49.5989 61.6888 49.8444 61.6489C51.5716 61.3695 53.1423 60.4827 54.2737 59.1482C55.4052 57.8137 56.0231 56.1191 56.0162 54.3695C56.0163 53.6446 55.9116 52.9234 55.7054 52.2284C55.6685 52.1038 55.6566 51.9731 55.6702 51.8438C55.6839 51.7145 55.7229 51.5892 55.785 51.475C55.847 51.3608 55.931 51.26 56.0321 51.1782C56.1332 51.0965 56.2493 51.0354 56.374 50.9986C56.4987 50.9617 56.6294 50.9498 56.7586 50.9634C56.8879 50.9771 57.0132 51.0161 57.1274 51.0782C57.2416 51.1403 57.3425 51.2242 57.4242 51.3253C57.506 51.4264 57.567 51.5425 57.6039 51.6672C57.8651 52.5443 57.9984 53.4544 57.9998 54.3695C58.0082 56.589 57.224 58.7386 55.7885 60.4313C54.3529 62.124 52.3602 63.2487 50.1691 63.6028C50.1144 63.6112 50.0591 63.6155 50.0038 63.6157Z" fill="#307BC4"/>
<path d="M56.6508 52.9383C56.4243 52.9385 56.2045 52.861 56.0283 52.7187C55.852 52.5764 55.7299 52.3779 55.6823 52.1565C55.6347 51.935 55.6645 51.7039 55.7667 51.5017C55.8689 51.2996 56.0374 51.1386 56.244 51.0457C57.5356 50.4614 58.6314 49.5173 59.4003 48.3264C60.1692 47.1354 60.5786 45.7481 60.5795 44.3305C60.586 42.6816 60.0325 41.0794 59.0096 39.7861C58.8538 39.5794 58.7852 39.3198 58.8185 39.0631C58.8518 38.8063 58.9843 38.5728 59.1878 38.4127C59.3912 38.2525 59.6492 38.1784 59.9066 38.2063C60.164 38.2341 60.4003 38.3617 60.5647 38.5617C61.4401 39.6767 62.0504 40.9763 62.3493 42.362C62.6482 43.7478 62.6279 45.1834 62.2899 46.5601C61.9518 47.9369 61.305 49.2187 60.3983 50.3084C59.4917 51.3982 58.3489 52.2674 57.0567 52.8502C56.9291 52.9079 56.7908 52.938 56.6508 52.9383Z" fill="#307BC4"/>
<path d="M41.1901 69.3025C38.3608 69.2993 35.6483 68.174 33.6477 66.1734C31.647 64.1727 30.5217 61.4602 30.5185 58.6309V6.28551C30.4744 5.39994 30.618 4.51504 30.9399 3.68886C31.2618 2.86269 31.7547 2.11391 32.3864 1.49166C33.0828 0.868899 33.918 0.42169 34.8223 0.187339C35.7266 -0.0470122 36.6739 -0.0617104 37.5851 0.14447C41.968 1.18264 46.0796 3.14211 49.6465 5.89254C49.8512 6.05728 49.9822 6.29661 50.0105 6.55789C50.0388 6.81917 49.9621 7.08099 49.7974 7.28576C49.6327 7.49053 49.3933 7.62147 49.1321 7.64978C48.8708 7.67809 48.609 7.60145 48.4042 7.43671C45.0775 4.89472 41.2587 3.07212 37.1902 2.08458C36.5894 1.94157 35.9631 1.94402 35.3635 2.09173C34.7638 2.23945 34.2081 2.52816 33.7425 2.93387C33.312 3.37428 32.9788 3.90019 32.7644 4.47756C32.5501 5.05492 32.4594 5.67087 32.4983 6.28551V58.6309C32.499 60.6171 33.1799 62.5432 34.4276 64.0886C35.6753 65.6341 37.4145 66.7057 39.3559 67.1252C41.2974 67.5447 43.3239 67.2868 45.0984 66.3943C46.8728 65.5019 48.2882 64.0288 49.109 62.2201C49.2175 61.9809 49.4166 61.7947 49.6625 61.7023C49.9084 61.61 50.1809 61.6191 50.42 61.7276C50.6592 61.8362 50.8454 62.0353 50.9378 62.2812C51.0301 62.527 51.021 62.7995 50.9125 63.0387C50.0623 64.9044 48.694 66.4867 46.9704 67.5971C45.2468 68.7076 43.2405 69.2995 41.1901 69.3025Z" fill="#307BC4"/>
<path d="M12.0223 16.3731C11.865 16.3732 11.71 16.3358 11.57 16.264C11.4301 16.1922 11.3092 16.0881 11.2176 15.9603C10.3741 14.7824 9.92379 13.3685 9.93074 11.9197C9.93221 10.2506 10.5285 8.63667 11.6126 7.36756C12.6968 6.09845 14.1977 5.25728 15.8461 4.99502C17.4945 4.73277 19.1824 5.0666 20.6068 5.9366C22.0313 6.80661 23.099 8.15582 23.6184 9.74207C23.6622 9.86638 23.6807 9.99818 23.6728 10.1297C23.665 10.2613 23.6309 10.39 23.5727 10.5082C23.5144 10.6264 23.4332 10.7318 23.3337 10.8182C23.2341 10.9046 23.1184 10.9703 22.9931 11.0113C22.8679 11.0524 22.7357 11.068 22.6044 11.0573C22.473 11.0466 22.3451 11.0098 22.2282 10.949C22.1113 10.8883 22.0076 10.8047 21.9234 10.7034C21.8392 10.602 21.776 10.4848 21.7377 10.3587C21.3658 9.21888 20.5997 8.249 19.5768 7.62336C18.554 6.99772 17.3416 6.75734 16.1575 6.94541C14.9733 7.13349 13.8951 7.73769 13.1164 8.64945C12.3378 9.56121 11.9099 10.7208 11.9095 11.9197C11.9042 12.9546 12.2257 13.9647 12.828 14.8062C12.9342 14.954 12.9974 15.1283 13.0109 15.3098C13.0244 15.4913 12.9876 15.6731 12.9046 15.835C12.8215 15.997 12.6954 16.1329 12.5401 16.2278C12.3848 16.3227 12.2063 16.373 12.0243 16.3731H12.0223Z" fill="#307BC4"/>
<path d="M4.30588 27.8168C4.10984 27.8169 3.91817 27.7589 3.75516 27.65C3.59216 27.5411 3.46516 27.3862 3.39027 27.205C2.94536 26.1145 2.71967 24.947 2.72608 23.7693C2.71335 22.5305 2.94635 21.3015 3.41159 20.1533C3.87684 19.0052 4.56511 17.9606 5.43659 17.0801C6.30807 16.1997 7.34547 15.5007 8.48879 15.0237C9.63211 14.5466 10.8587 14.301 12.0975 14.301C13.3363 14.301 14.5629 14.5466 15.7062 15.0237C16.8495 15.5007 17.8869 16.1997 18.7584 17.0801C19.6299 17.9606 20.3182 19.0052 20.7834 20.1533C21.2487 21.3015 21.4817 22.5305 21.4689 23.7693C21.4689 24.0318 21.3646 24.2836 21.179 24.4692C20.9934 24.6548 20.7416 24.7591 20.4791 24.7591C20.2166 24.7591 19.9648 24.6548 19.7792 24.4692C19.5935 24.2836 19.4892 24.0318 19.4892 23.7693C19.5005 22.7914 19.3177 21.8209 18.9513 20.9142C18.5849 20.0075 18.0423 19.1825 17.3547 18.487C16.6672 17.7915 15.8486 17.2393 14.9461 16.8624C14.0437 16.4856 13.0755 16.2915 12.0975 16.2915C11.1195 16.2915 10.1513 16.4856 9.24888 16.8624C8.34645 17.2393 7.52777 17.7915 6.84026 18.487C6.15276 19.1825 5.61009 20.0075 5.2437 20.9142C4.8773 21.8209 4.69447 22.7914 4.70579 23.7693C4.69904 24.6889 4.87396 25.6009 5.22051 26.4528C5.31952 26.6949 5.31866 26.9663 5.21813 27.2078C5.11761 27.4493 4.92558 27.6412 4.68401 27.7415C4.56403 27.7909 4.43561 27.8164 4.30588 27.8168Z" fill="#307BC4"/>
<path d="M9.37474 42.8615C7.41228 42.8639 5.49866 42.2497 3.90424 41.1055C2.30982 39.9614 1.11521 38.3452 0.489182 36.4853C-0.136846 34.6254 -0.16264 32.6157 0.415446 30.7404C0.993532 28.865 2.14627 27.2187 3.7108 26.034C3.92082 25.8765 4.18481 25.8088 4.4447 25.846C4.70459 25.8831 4.93908 26.0219 5.0966 26.2319C5.25411 26.442 5.32174 26.706 5.28462 26.9658C5.24749 27.2257 5.10864 27.4602 4.89862 27.6177C3.6708 28.5552 2.76763 29.8539 2.31606 31.3313C1.86449 32.8086 1.88723 34.3903 2.38108 35.8541C2.87493 37.3178 3.81506 38.59 5.06933 39.4918C6.3236 40.3936 7.82893 40.8797 9.37374 40.8818C9.62847 40.8818 9.87956 40.8692 10.127 40.8441C10.2564 40.8311 10.387 40.8437 10.5115 40.8812C10.6359 40.9187 10.7518 40.9804 10.8524 41.0626C10.9531 41.1449 11.0366 41.2462 11.0981 41.3607C11.1596 41.4752 11.1979 41.6007 11.2109 41.7301C11.2239 41.8594 11.2113 41.99 11.1738 42.1145C11.1363 42.239 11.0747 42.3548 10.9924 42.4555C10.9102 42.5561 10.8089 42.6396 10.6944 42.7011C10.5798 42.7626 10.4543 42.801 10.325 42.8139C10.0152 42.8446 9.69644 42.8615 9.37474 42.8615Z" fill="#307BC4"/>
<path d="M13.0146 63.6157C12.9606 63.6153 12.9066 63.611 12.8532 63.6028C10.6622 63.2487 8.66949 62.124 7.2339 60.4313C5.79831 58.7386 5.01413 56.589 5.02253 54.3695C5.02392 53.4544 5.15727 52.5443 5.41847 51.6672C5.45532 51.5425 5.51637 51.4264 5.59812 51.3253C5.67987 51.2242 5.78073 51.1403 5.89493 51.0782C6.00914 51.0161 6.13446 50.9771 6.26373 50.9634C6.393 50.9498 6.5237 50.9617 6.64836 50.9986C6.77302 51.0354 6.8892 51.0965 6.99027 51.1782C7.09134 51.26 7.17531 51.3608 7.2374 51.475C7.29949 51.5892 7.33848 51.7145 7.35214 51.8438C7.3658 51.9731 7.35386 52.1038 7.31701 52.2284C7.11078 52.9234 7.0061 53.6446 7.00619 54.3695C6.9993 56.1191 7.6172 57.8137 8.74865 59.1482C9.8801 60.4827 11.4508 61.3695 13.1779 61.6489C13.4234 61.6888 13.6449 61.8198 13.7982 62.0156C13.9516 62.2115 14.0255 62.4579 14.0055 62.7058C13.9854 62.9537 13.8727 63.185 13.6898 63.3536C13.5069 63.5222 13.2673 63.6158 13.0186 63.6157H13.0146Z" fill="#307BC4"/>
<path d="M6.36654 52.9382C6.22655 52.9379 6.08823 52.9079 5.9607 52.8501C4.6681 52.2677 3.52497 51.3988 2.61789 50.3092C1.71081 49.2196 1.06356 47.9379 0.725158 46.5611C0.386759 45.1843 0.366082 43.7486 0.664695 42.3627C0.963307 40.9767 1.57338 39.6769 2.44871 38.5616C2.52801 38.4564 2.62751 38.3681 2.74139 38.3018C2.85527 38.2356 2.98123 38.1927 3.11188 38.1758C3.24254 38.1588 3.37527 38.1681 3.50228 38.2031C3.62929 38.2382 3.74804 38.2982 3.85155 38.3797C3.95506 38.4612 4.04127 38.5625 4.1051 38.6778C4.16893 38.7931 4.20912 38.9199 4.22329 39.0509C4.23747 39.1819 4.22536 39.3144 4.18766 39.4406C4.14996 39.5669 4.08744 39.6843 4.00376 39.7861C2.98087 41.0793 2.42736 42.6816 2.43386 44.3305C2.43475 45.7481 2.84416 47.1354 3.61307 48.3263C4.38199 49.5173 5.47783 50.4614 6.76941 51.0456C6.97601 51.1386 7.14448 51.2995 7.24671 51.5017C7.34894 51.7038 7.37874 51.9349 7.33113 52.1564C7.28352 52.3779 7.16139 52.5763 6.98512 52.7186C6.80885 52.8609 6.58911 52.9384 6.36258 52.9382H6.36654Z" fill="#307BC4"/>
<path d="M21.8274 69.3024C19.7776 69.2989 17.7719 68.7067 16.0489 67.5963C14.3259 66.4859 12.9581 64.9039 12.1081 63.0387C11.9995 62.7995 11.9904 62.527 12.0828 62.2811C12.1751 62.0353 12.3614 61.8362 12.6005 61.7276C12.8397 61.619 13.1122 61.6099 13.358 61.7023C13.6039 61.7946 13.803 61.9809 13.9116 62.22C14.7334 64.027 16.1488 65.4983 17.9226 66.3895C19.6964 67.2806 21.7217 67.5379 23.6619 67.1186C25.6022 66.6992 27.3405 65.6286 28.588 64.0845C29.8355 62.5404 30.517 60.6159 30.5193 58.6308V6.28548C30.5582 5.67084 30.4675 5.05489 30.2531 4.47753C30.0388 3.90016 29.7056 3.37425 29.2751 2.93384C28.8097 2.52808 28.2542 2.23932 27.6547 2.09159C27.0552 1.94387 26.429 1.94146 25.8284 2.08455C21.7593 3.06763 17.9397 4.88807 14.6134 7.42975C14.4081 7.57704 14.1542 7.64023 13.9038 7.60636C13.6533 7.57249 13.4254 7.44414 13.2665 7.2476C13.1077 7.05105 13.0301 6.80121 13.0495 6.54927C13.069 6.29732 13.184 6.06235 13.3711 5.89251C16.9383 3.14193 21.0502 1.18245 25.4335 0.144441C26.3445 -0.0616564 27.2916 -0.0469145 28.1958 0.187436C29.0999 0.421787 29.935 0.868953 30.6312 1.49163C31.2628 2.11388 31.7558 2.86266 32.0777 3.68883C32.3996 4.51501 32.5432 5.39991 32.499 6.28548V58.6308C32.4959 61.4602 31.3705 64.1727 29.3699 66.1733C27.3693 68.174 24.6568 69.2993 21.8274 69.3024Z" fill="#307BC4"/>
<path d="M31.509 20.7651C31.4182 20.7652 31.3279 20.7526 31.2407 20.7275C31.1156 20.6922 30.9986 20.6327 30.8966 20.5522C30.7945 20.4717 30.7092 20.3719 30.6457 20.2585C30.5822 20.145 30.5417 20.0202 30.5264 19.8911C30.5111 19.762 30.5214 19.6312 30.5567 19.5061C31.0774 17.657 33.063 14.2598 36.8116 14.634C37.0728 14.6602 37.3129 14.7892 37.479 14.9925C37.6452 15.1957 37.7238 15.4567 37.6975 15.7179C37.6713 15.9791 37.5423 16.2192 37.3391 16.3853C37.1358 16.5515 36.8748 16.6301 36.6136 16.6038C33.5609 16.3068 32.4711 20.0059 32.4562 20.0435C32.398 20.2503 32.2741 20.4325 32.1033 20.5627C31.9324 20.6929 31.7238 20.7639 31.509 20.7651Z" fill="#307BC4"/>
<path d="M31.5085 25.6786C31.2934 25.6785 31.0842 25.6083 30.9126 25.4786C30.7409 25.3489 30.6162 25.1669 30.5573 24.96C30.5127 24.8066 29.4239 21.2055 26.3999 21.5173C26.1385 21.5436 25.8775 21.4649 25.6741 21.2987C25.4708 21.1324 25.3418 20.8922 25.3155 20.6309C25.2893 20.3696 25.3679 20.1085 25.5341 19.9051C25.7004 19.7018 25.9406 19.5728 26.2019 19.5465C29.9634 19.1733 31.9361 22.5705 32.4568 24.4196C32.4921 24.5447 32.5024 24.6755 32.4871 24.8046C32.4719 24.9337 32.4313 25.0585 32.3678 25.172C32.3043 25.2854 32.219 25.3852 32.117 25.4657C32.0149 25.5462 31.8979 25.6057 31.7728 25.641C31.6869 25.6657 31.5979 25.6784 31.5085 25.6786Z" fill="#307BC4"/>
<path d="M45.0698 32.3711C43.6993 32.3723 42.3453 32.0714 41.1044 31.4897C39.8635 30.908 38.7661 30.0598 37.8904 29.0056C37.8035 28.9063 37.7373 28.7905 37.6958 28.6653C37.6542 28.54 37.6382 28.4076 37.6486 28.2761C37.6589 28.1445 37.6955 28.0163 37.7562 27.8991C37.8168 27.7818 37.9003 27.6779 38.0017 27.5934C38.1031 27.5089 38.2203 27.4456 38.3466 27.4071C38.4728 27.3685 38.6055 27.3557 38.7368 27.3692C38.8681 27.3827 38.9954 27.4224 39.1111 27.4858C39.2268 27.5492 39.3287 27.6352 39.4108 27.7386C40.379 28.9019 41.6822 29.7386 43.143 30.1347C44.6038 30.5308 46.1511 30.467 47.5744 29.9522C48.9977 29.4373 50.2276 28.4963 51.0969 27.2572C51.9662 26.0182 52.4325 24.5414 52.4323 23.0279C52.4323 22.8388 52.4254 22.6507 52.4115 22.4647C52.3993 22.3338 52.4134 22.2019 52.4527 22.0765C52.4921 21.9511 52.5561 21.8348 52.6408 21.7344C52.7256 21.634 52.8296 21.5515 52.9466 21.4917C53.0636 21.4319 53.1913 21.396 53.3224 21.3861C53.4534 21.3761 53.5851 21.3924 53.7098 21.4339C53.8345 21.4754 53.9496 21.5413 54.0486 21.6278C54.1475 21.7143 54.2282 21.8196 54.286 21.9377C54.3438 22.0557 54.3776 22.184 54.3853 22.3152C54.4031 22.5508 54.412 22.7883 54.412 23.0279C54.4096 25.505 53.4246 27.8799 51.6732 29.6316C49.9217 31.3832 47.5468 32.3685 45.0698 32.3711Z" fill="#307BC4"/>
<path d="M50.9213 38.1221H50.9015C46.0849 38.0281 43.8221 33.7935 43.2984 31.5673C43.2414 31.3131 43.2869 31.0467 43.4249 30.8258C43.563 30.605 43.7826 30.4474 44.0361 30.3874C44.2896 30.3273 44.5565 30.3696 44.779 30.5051C45.0015 30.6405 45.1616 30.8582 45.2247 31.111C45.2742 31.309 46.4689 36.0553 50.9401 36.1424C51.2026 36.1449 51.4534 36.2516 51.6373 36.439C51.8211 36.6264 51.923 36.8791 51.9205 37.1417C51.918 37.4042 51.8114 37.655 51.624 37.8388C51.4366 38.0227 51.1838 38.1246 50.9213 38.1221Z" fill="#307BC4"/>
<path d="M44.886 51.4059H44.8039C44.5423 51.3842 44.3 51.2596 44.1303 51.0593C43.9607 50.859 43.8775 50.5995 43.8992 50.3379C44.0421 49.3068 43.9741 48.2575 43.6991 47.2535C43.4241 46.2496 42.948 45.312 42.2996 44.4978C40.7349 42.8778 38.6475 41.8638 36.407 41.6351C36.1451 41.6162 35.9015 41.494 35.7297 41.2955C35.5578 41.097 35.472 40.8383 35.4909 40.5765C35.5098 40.3146 35.6319 40.071 35.8304 39.8991C36.029 39.7273 36.2876 39.6414 36.5495 39.6603C39.3173 39.9277 41.8945 41.1887 43.8041 43.21C44.6256 44.2202 45.2326 45.3872 45.5881 46.6397C45.9436 47.8923 46.0402 49.2041 45.8719 50.4953C45.852 50.7432 45.7396 50.9745 45.5569 51.1432C45.3742 51.3119 45.1347 51.4057 44.886 51.4059Z" fill="#307BC4"/>
<path d="M38.569 59.977H38.5225C38.3926 59.971 38.2652 59.9395 38.1475 59.8843C38.0299 59.8291 37.9242 59.7513 37.8366 59.6552C37.749 59.5591 37.6812 59.4468 37.637 59.3245C37.5928 59.2022 37.5732 59.0725 37.5792 58.9426C37.7405 55.4564 40.0142 48.953 47.4411 49.2153C47.5711 49.2202 47.6988 49.2505 47.8171 49.3047C47.9353 49.3589 48.0418 49.4358 48.1303 49.5312C48.2188 49.6265 48.2877 49.7383 48.333 49.8602C48.3783 49.9822 48.3991 50.1118 48.3943 50.2418C48.3895 50.3718 48.3591 50.4996 48.3049 50.6178C48.2507 50.7361 48.1738 50.8425 48.0785 50.931C47.9832 51.0195 47.8713 51.0884 47.7494 51.1337C47.6275 51.179 47.4978 51.1999 47.3678 51.195C40.037 50.9308 39.5727 58.7031 39.5569 59.0347C39.5447 59.2885 39.4353 59.528 39.2514 59.7034C39.0675 59.8788 38.8232 59.9768 38.569 59.977Z" fill="#307BC4"/>
<path d="M20.3618 33.5539C17.8849 33.5513 15.5103 32.5663 13.7587 30.8151C12.0071 29.0639 11.0217 26.6895 11.0186 24.2126C11.0186 23.9721 11.0275 23.7336 11.0453 23.499C11.053 23.3678 11.0867 23.2394 11.1445 23.1214C11.2023 23.0034 11.283 22.8981 11.382 22.8116C11.4809 22.7251 11.5961 22.6592 11.7208 22.6177C11.8455 22.5762 11.9771 22.5599 12.1082 22.5698C12.2392 22.5798 12.367 22.6157 12.484 22.6755C12.601 22.7353 12.7049 22.8178 12.7897 22.9182C12.8745 23.0186 12.9384 23.1349 12.9778 23.2603C13.0172 23.3856 13.0312 23.5176 13.019 23.6484C13.0052 23.8345 12.9983 24.0226 12.9983 24.2126C12.9985 25.7259 13.4651 27.2022 14.3343 28.4408C15.2036 29.6795 16.4335 30.6201 17.8564 31.1348C19.2794 31.6496 20.8264 31.7133 22.287 31.3174C23.7475 30.9215 25.0505 30.0852 26.0188 28.9224C26.102 28.8225 26.204 28.7399 26.3191 28.6795C26.4342 28.619 26.5601 28.5818 26.6895 28.57C26.819 28.5582 26.9495 28.572 27.0737 28.6106C27.1978 28.6493 27.3131 28.712 27.413 28.7952C27.5129 28.8784 27.5954 28.9804 27.6559 29.0955C27.7163 29.2106 27.7535 29.3365 27.7653 29.4659C27.7771 29.5954 27.7633 29.7259 27.7247 29.85C27.6861 29.9742 27.6234 30.0895 27.5402 30.1894C26.6645 31.2433 25.5672 32.0912 24.3264 32.6727C23.0857 33.2542 21.732 33.5551 20.3618 33.5539Z" fill="#307BC4"/>
<path d="M14.5061 39.3099C14.2436 39.3124 13.9908 39.2105 13.8035 39.0266C13.6161 38.8428 13.5094 38.592 13.5069 38.3295C13.5044 38.0669 13.6063 37.8142 13.7902 37.6268C13.974 37.4394 14.2248 37.3327 14.4873 37.3302C18.9575 37.2431 20.1532 32.5007 20.2027 32.2988C20.2658 32.046 20.4259 31.8283 20.6484 31.6929C20.8709 31.5574 21.1379 31.5151 21.3913 31.5752C21.6448 31.6352 21.8644 31.7928 22.0025 32.0137C22.1406 32.2345 22.186 32.5009 22.129 32.7551C21.6103 34.9763 19.3416 39.2109 14.5259 39.3099H14.5061Z" fill="#307BC4"/>
<path d="M14.7112 53.9162C14.4624 53.9171 14.2223 53.8242 14.0388 53.656C13.8554 53.4877 13.7421 53.2566 13.7214 53.0086C13.5514 51.7158 13.6471 50.402 14.0027 49.1476C14.3583 47.8932 14.9662 46.7246 15.7892 45.7133C17.6983 43.692 20.2753 42.4309 23.0428 42.1637C23.304 42.1483 23.5609 42.2355 23.7587 42.4067C23.9566 42.578 24.0797 42.8196 24.102 43.0803C24.1114 43.21 24.0952 43.3403 24.0543 43.4637C24.0134 43.5871 23.9486 43.7012 23.8636 43.7996C23.7785 43.8979 23.675 43.9786 23.5588 44.0369C23.4426 44.0952 23.316 44.1301 23.1864 44.1395C20.9426 44.3737 18.8527 45.3899 17.2829 47.01C16.6379 47.8247 16.1646 48.7615 15.8916 49.7641C15.6185 50.7666 15.5514 51.8141 15.6942 52.8432C15.7158 53.1048 15.6326 53.3643 15.463 53.5646C15.2933 53.7649 15.051 53.8896 14.7894 53.9113L14.7112 53.9162Z" fill="#307BC4"/>
<path d="M21.0271 62.4863C20.7727 62.4866 20.5278 62.3888 20.3435 62.2134C20.1592 62.0379 20.0495 61.7982 20.0373 61.5439C20.0205 61.2123 19.5424 53.4182 12.2264 53.7023C11.9638 53.7121 11.7082 53.6171 11.5157 53.4383C11.3232 53.2595 11.2096 53.0116 11.1999 52.7491C11.1902 52.4866 11.2852 52.231 11.4639 52.0384C11.6427 51.8459 11.8906 51.7323 12.1531 51.7226C19.5701 51.4524 21.8537 57.9637 22.015 61.4499C22.021 61.5798 22.0014 61.7095 21.9572 61.8318C21.913 61.9541 21.8452 62.0664 21.7576 62.1625C21.67 62.2585 21.5643 62.3364 21.4467 62.3916C21.329 62.4468 21.2016 62.4783 21.0717 62.4843L21.0271 62.4863Z" fill="#307BC4"/>
<path d="M31.5084 59.6207H31.5024C31.3723 59.6199 31.2437 59.5935 31.1238 59.543C31.004 59.4925 30.8952 59.4188 30.8039 59.3263C30.7125 59.2337 30.6403 59.124 30.5913 59.0035C30.5423 58.883 30.5176 58.754 30.5185 58.6239C30.5836 56.6827 29.96 54.781 28.7581 53.2552C27.5562 51.7293 25.8533 50.6778 23.9508 50.2864C23.693 50.2367 23.4656 50.0865 23.3184 49.8691C23.1713 49.6516 23.1166 49.3846 23.1664 49.1268C23.2161 48.869 23.3662 48.6415 23.5837 48.4944C23.8012 48.3473 24.0682 48.2926 24.326 48.3423C24.4081 48.3582 32.5526 50.0251 32.4982 58.6368C32.4966 58.8983 32.3917 59.1485 32.2062 59.3329C32.0207 59.5172 31.7699 59.6207 31.5084 59.6207Z" fill="#307BC4"/>
</svg>
