<svg width="33" height="33" viewBox="0 0 33 33" fill="none" xmlns="http://www.w3.org/2000/svg">
<path d="M16.4986 0.000126987C13.9677 -0.00987645 11.4694 0.571268 9.20275 1.69727C9.05246 1.75791 8.9163 1.84889 8.80276 1.96452C8.68922 2.08016 8.60075 2.21797 8.54288 2.36933C8.485 2.5207 8.45897 2.68238 8.4664 2.84426C8.47383 3.00614 8.51457 3.16475 8.58607 3.31018C8.65757 3.4556 8.7583 3.58473 8.88195 3.68947C9.00561 3.79422 9.14954 3.87234 9.30475 3.91896C9.45997 3.96558 9.62313 3.97969 9.78404 3.9604C9.94495 3.94112 10.1002 3.88887 10.24 3.8069C12.3971 2.74255 14.7901 2.24592 17.1927 2.36396C19.5952 2.48199 21.928 3.2108 23.9704 4.48148C26.0128 5.75215 27.6974 7.5227 28.8649 9.62573C30.0323 11.7288 30.6441 14.0948 30.6423 16.5001C30.6423 22.2515 27.5543 28.6629 22.3918 29.4643C21.8436 29.5953 21.2732 29.6041 20.7212 29.4901C20.1692 29.376 19.6491 29.1419 19.1977 28.8044C18.172 27.671 17.6268 26.1835 17.6772 24.6558C19.6392 24.3726 21.4336 23.3926 22.7322 21.895C24.0308 20.3973 24.7468 18.4823 24.7491 16.5001V9.42868C24.7491 9.1161 24.6249 8.81633 24.4039 8.5953C24.1829 8.37428 23.8831 8.25011 23.5705 8.25011H20.0345C19.7219 8.25011 19.4221 8.37428 19.2011 8.5953C18.9801 8.81633 18.8559 9.1161 18.8559 9.42868C18.8559 9.74125 18.9801 10.041 19.2011 10.2621C19.4221 10.4831 19.7219 10.6072 20.0345 10.6072H22.3918V16.5001C22.3918 18.063 21.7709 19.5618 20.6657 20.667C19.5605 21.7721 18.0616 22.3929 16.4986 22.3929C14.9356 22.3929 13.4366 21.7721 12.3314 20.667C11.2262 19.5618 10.6053 18.063 10.6053 16.5001V10.6072H12.9626C13.2752 10.6072 13.575 10.4831 13.7961 10.2621C14.0171 10.041 14.1413 9.74125 14.1413 9.42868C14.1413 9.1161 14.0171 8.81633 13.7961 8.5953C13.575 8.37428 13.2752 8.25011 12.9626 8.25011H9.42669C9.1141 8.25011 8.8143 8.37428 8.59326 8.5953C8.37223 8.81633 8.24805 9.1161 8.24805 9.42868V16.5001C8.25037 18.4823 8.96632 20.3973 10.2649 21.895C11.5635 23.3926 13.358 24.3726 15.3199 24.6558C15.4732 27.3665 16.2393 29.3701 17.6065 30.5486C18.6731 31.4398 20.0373 31.8945 21.4253 31.8215C21.8588 31.8219 22.2919 31.7943 22.7218 31.739C29.393 30.7726 32.9996 23.159 32.9996 16.5001C32.9996 12.124 31.2611 7.9272 28.1666 4.83285C25.072 1.73851 20.8749 0.000126987 16.4986 0.000126987Z" fill="#307BC4"/>
<path d="M5.89112 23.5715C5.38551 23.5791 4.88429 23.6666 4.40602 23.8307C2.79033 21.1672 2.09934 18.0447 2.44034 14.9482C2.78134 11.8516 4.13526 8.95434 6.29186 6.70613C6.41242 6.59771 6.50931 6.46559 6.57648 6.31801C6.64365 6.17044 6.67964 6.0106 6.68221 5.84848C6.68478 5.68637 6.65387 5.52547 6.59141 5.37584C6.52895 5.22621 6.43629 5.09108 6.31922 4.9789C6.20215 4.86672 6.0632 4.77989 5.91104 4.72386C5.75888 4.66783 5.5968 4.64379 5.43493 4.65325C5.27306 4.66272 5.11488 4.70547 4.97029 4.77885C4.8257 4.85223 4.6978 4.95465 4.5946 5.07971C2.07015 7.71047 0.48819 11.1032 0.0958349 14.728C-0.29652 18.3528 0.522829 22.0054 2.42589 25.1154C1.69819 25.9162 1.26814 26.943 1.20792 28.0233C1.1477 29.1037 1.46097 30.1718 2.09516 31.0486C2.72935 31.9253 3.64585 32.5572 4.69082 32.8382C5.7358 33.1192 6.84563 33.0322 7.83405 32.5918C8.82247 32.1514 9.62931 31.3844 10.1191 30.4196C10.6089 29.4548 10.7519 28.3508 10.5241 27.2931C10.2963 26.2353 9.71146 25.2881 8.86786 24.6104C8.02426 23.9328 6.9732 23.5659 5.89112 23.5715ZM5.89112 30.6429C5.42489 30.6429 4.96913 30.5046 4.58147 30.2456C4.19382 29.9866 3.89168 29.6185 3.71326 29.1878C3.53484 28.7571 3.48816 28.2831 3.57912 27.8259C3.67007 27.3686 3.89458 26.9486 4.22426 26.619C4.55393 26.2893 4.97396 26.0648 5.43123 25.9739C5.8885 25.8829 6.36247 25.9296 6.79321 26.108C7.22395 26.2864 7.59211 26.5885 7.85113 26.9762C8.11016 27.3638 8.24841 27.8195 8.24841 28.2857C8.24841 28.9109 8.00005 29.5104 7.55797 29.9525C7.1159 30.3945 6.51631 30.6429 5.89112 30.6429Z" fill="#307BC4"/>
</svg>
