<svg width="33" height="33" viewBox="0 0 33 33" fill="none" xmlns="http://www.w3.org/2000/svg">
<path d="M6.6873 21.9362C9.95451 25.827 13.8875 28.8904 18.3765 31.058C20.0856 31.8649 22.3713 32.8222 24.9178 32.9863C25.0756 32.9932 25.2266 33 25.3845 33C27.0936 33 28.4664 32.4119 29.5852 31.2016C29.5921 31.1948 29.6058 31.1811 29.6127 31.1674C30.0108 30.6888 30.4638 30.258 30.9374 29.7998C31.26 29.4921 31.5895 29.1707 31.9052 28.8425C33.3672 27.3245 33.3672 25.3962 31.8915 23.926L27.7663 19.8164C27.0662 19.0916 26.2288 18.7087 25.3502 18.7087C24.4716 18.7087 23.6274 19.0916 22.9067 19.8096L20.4494 22.2576C20.2229 22.1276 19.9895 22.0114 19.7699 21.902C19.4953 21.7652 19.2413 21.6353 19.0148 21.4917C16.7772 20.0763 14.7455 18.23 12.803 15.8572C11.8215 14.6196 11.1626 13.5802 10.7027 12.5203C11.3479 11.9391 11.9519 11.3305 12.5353 10.7356C12.7412 10.5236 12.954 10.3116 13.1668 10.0997C13.9081 9.36117 14.3062 8.50642 14.3062 7.638C14.3062 6.76958 13.915 5.91484 13.1668 5.17634L11.1214 3.13862C10.8811 2.8993 10.6546 2.6668 10.4213 2.42748C9.96824 1.96249 9.49463 1.48384 9.02788 1.05305C8.3209 0.362412 7.49038 0 6.6118 0C5.74009 0 4.90269 0.362412 4.16826 1.05988L1.60116 3.61728C0.667677 4.54724 0.139158 5.67551 0.0293356 6.98156C-0.101078 8.61583 0.200933 10.3527 0.983415 12.4519C2.18459 15.7 3.99666 18.7155 6.6873 21.9362ZM1.70412 7.12516C1.78649 6.21571 2.13655 5.45669 2.79548 4.80025L5.34884 2.25653C5.74695 1.8736 6.18624 1.6753 6.6118 1.6753C7.0305 1.6753 7.45606 1.8736 7.8473 2.2702C8.30718 2.69416 8.7396 3.13862 9.20635 3.61044C9.43972 3.84977 9.67995 4.0891 9.92019 4.33527L11.9656 6.37298C12.3912 6.79693 12.6108 7.22773 12.6108 7.65168C12.6108 8.07563 12.3912 8.50642 11.9656 8.93038C11.7528 9.14235 11.5401 9.36117 11.3273 9.57315C10.6889 10.2159 10.0918 10.8245 9.43285 11.4057C9.41913 11.4194 9.41226 11.4262 9.39853 11.4399C8.82883 12.0075 8.91806 12.5477 9.05534 12.9579C9.0622 12.9784 9.06907 12.9921 9.07593 13.0126C9.60445 14.2777 10.3389 15.4811 11.4852 16.9171C13.5443 19.4472 15.7133 21.4097 18.1019 22.9208C18.3971 23.1123 18.7128 23.2627 19.008 23.4132C19.2825 23.5499 19.5365 23.6799 19.763 23.8235C19.7904 23.8371 19.811 23.8508 19.8385 23.8645C20.065 23.9807 20.2847 24.0354 20.5043 24.0354C21.0534 24.0354 21.4103 23.6867 21.527 23.5705L24.0941 21.0131C24.4922 20.6165 24.9246 20.4045 25.3502 20.4045C25.8719 20.4045 26.2974 20.7259 26.5651 21.0131L30.704 25.1295C31.5277 25.9501 31.5208 26.839 30.6834 27.7074C30.3951 28.0151 30.0931 28.3092 29.7705 28.6169C29.2901 29.0818 28.789 29.5605 28.336 30.1007C27.5466 30.9486 26.6063 31.3452 25.3914 31.3452C25.2747 31.3452 25.1511 31.3384 25.0345 31.3315C22.7831 31.1879 20.6896 30.3127 19.1178 29.5673C14.8485 27.5091 11.1008 24.5893 7.99144 20.8831C5.43121 17.8129 3.70838 14.9546 2.56897 11.8912C1.86199 10.0108 1.5943 8.49959 1.70412 7.12516Z" fill="#307BC4"/>
</svg>
