<svg width="33" height="33" viewBox="0 0 33 33" fill="none" xmlns="http://www.w3.org/2000/svg">
<path d="M29.1328 2.57812H27.5859V0H25.0078V2.57812H7.99219V0H5.41406V2.57812H3.86719C1.73482 2.57812 0 4.31295 0 6.44531V29.1328C0 31.2652 1.73482 33 3.86719 33H29.1328C31.2652 33 33 31.2652 33 29.1328V6.44531C33 4.31295 31.2652 2.57812 29.1328 2.57812ZM30.4219 29.1328C30.4219 29.8436 29.8436 30.4219 29.1328 30.4219H3.86719C3.1564 30.4219 2.57812 29.8436 2.57812 29.1328V12.1172H30.4219V29.1328ZM30.4219 9.53906H2.57812V6.44531C2.57812 5.73452 3.1564 5.15625 3.86719 5.15625H5.41406V7.73438H7.99219V5.15625H25.0078V7.73438H27.5859V5.15625H29.1328C29.8436 5.15625 30.4219 5.73452 30.4219 6.44531V9.53906Z" fill="#307BC4"/>
<path d="M7.47656 14.8242H4.89844V17.4023H7.47656V14.8242Z" fill="#307BC4"/>
<path d="M12.6328 14.8242H10.0547V17.4023H12.6328V14.8242Z" fill="#307BC4"/>
<path d="M17.7891 14.8242H15.2109V17.4023H17.7891V14.8242Z" fill="#307BC4"/>
<path d="M22.9453 14.8242H20.3672V17.4023H22.9453V14.8242Z" fill="#307BC4"/>
<path d="M28.1016 14.8242H25.5234V17.4023H28.1016V14.8242Z" fill="#307BC4"/>
<path d="M7.47656 19.9805H4.89844V22.5586H7.47656V19.9805Z" fill="#307BC4"/>
<path d="M12.6328 19.9805H10.0547V22.5586H12.6328V19.9805Z" fill="#307BC4"/>
<path d="M17.7891 19.9805H15.2109V22.5586H17.7891V19.9805Z" fill="#307BC4"/>
<path d="M22.9453 19.9805H20.3672V22.5586H22.9453V19.9805Z" fill="#307BC4"/>
<path d="M7.47656 25.1367H4.89844V27.7148H7.47656V25.1367Z" fill="#307BC4"/>
<path d="M12.6328 25.1367H10.0547V27.7148H12.6328V25.1367Z" fill="#307BC4"/>
<path d="M17.7891 25.1367H15.2109V27.7148H17.7891V25.1367Z" fill="#307BC4"/>
<path d="M22.9453 25.1367H20.3672V27.7148H22.9453V25.1367Z" fill="#307BC4"/>
<path d="M28.1016 19.9805H25.5234V22.5586H28.1016V19.9805Z" fill="#307BC4"/>
</svg>
