<svg width="218" height="47" viewBox="0 0 218 47" fill="none" xmlns="http://www.w3.org/2000/svg">
<path d="M58.3761 32V8.59789H63.0132V32H58.3761ZM74.7843 32.371C73.1149 32.371 71.5898 31.9897 70.209 31.2271C68.8488 30.4646 67.7565 29.4238 66.9321 28.1048C66.1283 26.7652 65.7264 25.2504 65.7264 23.5604C65.7264 21.8498 66.1283 20.335 66.9321 19.016C67.7565 17.697 68.8488 16.6562 70.209 15.8937C71.5898 15.1311 73.1149 14.7498 74.7843 14.7498C76.4537 14.7498 77.9685 15.1311 79.3287 15.8937C80.6889 16.6562 81.7709 17.697 82.5747 19.016C83.3991 20.335 83.8113 21.8498 83.8113 23.5604C83.8113 25.2504 83.3991 26.7652 82.5747 28.1048C81.7709 29.4238 80.6889 30.4646 79.3287 31.2271C77.9685 31.9897 76.4537 32.371 74.7843 32.371ZM74.7843 28.1975C75.6293 28.1975 76.3609 28.0018 76.9792 27.6102C77.6181 27.2186 78.1127 26.6724 78.4631 25.9717C78.8341 25.271 79.0196 24.4672 79.0196 23.5604C79.0196 22.6536 78.8341 21.8601 78.4631 21.18C78.1127 20.4793 77.6181 19.9331 76.9792 19.5415C76.3609 19.1294 75.6293 18.9233 74.7843 18.9233C73.9393 18.9233 73.1974 19.1294 72.5585 19.5415C71.9196 19.9331 71.4146 20.4793 71.0437 21.18C70.6933 21.8601 70.5181 22.6536 70.5181 23.5604C70.5181 24.4672 70.6933 25.271 71.0437 25.9717C71.4146 26.6724 71.9196 27.2186 72.5585 27.6102C73.1974 28.0018 73.9393 28.1975 74.7843 28.1975ZM94.8281 38.8011C93.5297 38.8011 92.3241 38.5847 91.2111 38.1519C90.0982 37.7191 89.1399 37.1112 88.3361 36.328C87.553 35.5654 86.9862 34.6586 86.6358 33.6075L90.9329 32.0927C91.1596 32.8759 91.6233 33.4942 92.3241 33.9476C93.0248 34.401 93.8595 34.6277 94.8281 34.6277C95.5907 34.6277 96.2502 34.4834 96.8066 34.1949C97.3631 33.927 97.7856 33.5251 98.0741 32.9893C98.3833 32.4534 98.5378 31.8248 98.5378 31.1035V27.2392L99.4343 28.3521C98.8573 29.3002 98.1153 30.0112 97.2085 30.4852C96.3017 30.9386 95.2403 31.1653 94.0243 31.1653C92.458 31.1653 91.0566 30.815 89.82 30.1142C88.5834 29.3929 87.6148 28.4139 86.9141 27.1774C86.2133 25.9202 85.863 24.4981 85.863 22.9112C85.863 21.3243 86.2133 19.9228 86.9141 18.7069C87.6148 17.4703 88.5731 16.5016 89.7891 15.8009C91.005 15.1002 92.3859 14.7498 93.9316 14.7498C95.1476 14.7498 96.209 14.9971 97.1158 15.4918C98.0226 15.9658 98.7954 16.6974 99.4343 17.6867L98.847 18.7996V15.1208H103.175V31.1035C103.175 32.5874 102.814 33.9064 102.093 35.0605C101.372 36.2353 100.382 37.1524 99.1252 37.8119C97.8886 38.4714 96.4563 38.8011 94.8281 38.8011ZM94.6735 26.961C95.4567 26.961 96.1368 26.7961 96.7139 26.4663C97.291 26.1366 97.7341 25.6729 98.0432 25.0752C98.373 24.4775 98.5378 23.7768 98.5378 22.973C98.5378 22.1693 98.373 21.4685 98.0432 20.8709C97.7134 20.2526 97.26 19.7786 96.683 19.4488C96.1059 19.0984 95.4361 18.9233 94.6735 18.9233C93.8904 18.9233 93.1897 19.0984 92.5714 19.4488C91.9737 19.7786 91.4997 20.2526 91.1493 20.8709C90.8196 21.4685 90.6547 22.1693 90.6547 22.973C90.6547 23.7562 90.8196 24.4466 91.1493 25.0443C91.4997 25.642 91.9737 26.116 92.5714 26.4663C93.1897 26.7961 93.8904 26.961 94.6735 26.961ZM114.967 32.371C113.297 32.371 111.772 31.9897 110.392 31.2271C109.031 30.4646 107.939 29.4238 107.115 28.1048C106.311 26.7652 105.909 25.2504 105.909 23.5604C105.909 21.8498 106.311 20.335 107.115 19.016C107.939 17.697 109.031 16.6562 110.392 15.8937C111.772 15.1311 113.297 14.7498 114.967 14.7498C116.636 14.7498 118.151 15.1311 119.511 15.8937C120.871 16.6562 121.953 17.697 122.757 19.016C123.582 20.335 123.994 21.8498 123.994 23.5604C123.994 25.2504 123.582 26.7652 122.757 28.1048C121.953 29.4238 120.871 30.4646 119.511 31.2271C118.151 31.9897 116.636 32.371 114.967 32.371ZM114.967 28.1975C115.812 28.1975 116.543 28.0018 117.162 27.6102C117.801 27.2186 118.295 26.6724 118.646 25.9717C119.017 25.271 119.202 24.4672 119.202 23.5604C119.202 22.6536 119.017 21.8601 118.646 21.18C118.295 20.4793 117.801 19.9331 117.162 19.5415C116.543 19.1294 115.812 18.9233 114.967 18.9233C114.122 18.9233 113.38 19.1294 112.741 19.5415C112.102 19.9331 111.597 20.4793 111.226 21.18C110.876 21.8601 110.701 22.6536 110.701 23.5604C110.701 24.4672 110.876 25.271 111.226 25.9717C111.597 26.6724 112.102 27.2186 112.741 27.6102C113.38 28.0018 114.122 28.1975 114.967 28.1975ZM126.726 32V15.1208H131.363V32H126.726ZM126.726 13.606V8.96886H131.363V13.606H126.726ZM134.756 38.1829V15.1208H139.084V18.3359L138.682 17.4085C139.239 16.5635 139.991 15.9143 140.939 15.4609C141.908 14.9868 143.01 14.7498 144.247 14.7498C145.854 14.7498 147.307 15.1414 148.606 15.9246C149.904 16.7077 150.935 17.7691 151.697 19.1087C152.46 20.4278 152.841 21.9116 152.841 23.5604C152.841 25.1886 152.46 26.6724 151.697 28.0121C150.955 29.3517 149.935 30.4131 148.637 31.1962C147.338 31.9794 145.865 32.371 144.216 32.371C143.062 32.371 141.99 32.1649 141.001 31.7527C140.032 31.3199 139.249 30.6913 138.651 29.8669L139.393 28.9086V38.1829H134.756ZM143.659 28.1975C144.525 28.1975 145.288 28.0018 145.947 27.6102C146.607 27.2186 147.122 26.6724 147.493 25.9717C147.864 25.271 148.049 24.4672 148.049 23.5604C148.049 22.6536 147.864 21.8601 147.493 21.18C147.122 20.4793 146.607 19.9331 145.947 19.5415C145.288 19.1294 144.525 18.9233 143.659 18.9233C142.835 18.9233 142.093 19.119 141.434 19.5106C140.795 19.9022 140.29 20.4484 139.919 21.1491C139.568 21.8498 139.393 22.6536 139.393 23.5604C139.393 24.4672 139.568 25.271 139.919 25.9717C140.29 26.6724 140.795 27.2186 141.434 27.6102C142.093 28.0018 142.835 28.1975 143.659 28.1975ZM162.172 32.371C160.318 32.371 158.7 31.9382 157.319 31.0726C155.959 30.1864 155.031 29.0013 154.537 27.5174L157.937 25.9099C158.37 26.8167 158.957 27.5277 159.699 28.043C160.441 28.5582 161.266 28.8158 162.172 28.8158C162.832 28.8158 163.337 28.6819 163.687 28.4139C164.038 28.146 164.213 27.775 164.213 27.301C164.213 27.0537 164.151 26.8476 164.027 26.6827C163.904 26.4973 163.718 26.3324 163.471 26.1881C163.224 26.0438 162.914 25.9202 162.543 25.8171L159.668 25.0134C158.288 24.6218 157.226 23.9932 156.484 23.1276C155.742 22.2414 155.371 21.2006 155.371 20.0053C155.371 18.9542 155.639 18.037 156.175 17.2539C156.711 16.4707 157.463 15.8627 158.432 15.4299C159.4 14.9765 160.513 14.7498 161.771 14.7498C163.419 14.7498 164.862 15.1414 166.099 15.9246C167.356 16.6871 168.242 17.7691 168.757 19.1706L165.326 20.7781C165.078 20.0774 164.625 19.5209 163.965 19.1087C163.327 18.6759 162.595 18.4595 161.771 18.4595C161.173 18.4595 160.699 18.5832 160.349 18.8305C160.019 19.0778 159.854 19.4179 159.854 19.8507C159.854 20.0774 159.916 20.2835 160.039 20.469C160.163 20.6545 160.359 20.8193 160.627 20.9636C160.915 21.1079 161.266 21.2418 161.678 21.3655L164.367 22.1693C165.769 22.5814 166.841 23.21 167.582 24.055C168.324 24.8794 168.695 25.8996 168.695 27.1155C168.695 28.1666 168.417 29.0838 167.861 29.8669C167.325 30.6501 166.573 31.2684 165.604 31.7218C164.635 32.1546 163.491 32.371 162.172 32.371ZM177.526 32.371C176.166 32.371 175.001 32.0824 174.033 31.5054C173.085 30.9077 172.363 30.0833 171.869 29.0322C171.374 27.9811 171.127 26.7549 171.127 25.3534V15.1208H175.764V24.9825C175.764 25.6214 175.888 26.1881 176.135 26.6827C176.403 27.1568 176.774 27.5277 177.248 27.7957C177.722 28.0636 178.258 28.1975 178.855 28.1975C179.474 28.1975 180.009 28.0636 180.463 27.7957C180.937 27.5277 181.298 27.1568 181.545 26.6827C181.813 26.1881 181.947 25.6214 181.947 24.9825V15.1208H186.584V32H182.256V28.6613L182.503 29.4032C182.112 30.4131 181.473 31.1653 180.587 31.6599C179.721 32.134 178.701 32.371 177.526 32.371ZM189.973 32V15.1208H194.301V19.2324L193.837 18.5523C194.085 17.2539 194.682 16.2955 195.63 15.6773C196.578 15.059 197.712 14.7498 199.031 14.7498C200.432 14.7498 201.659 15.1105 202.71 15.8318C203.781 16.5326 204.451 17.4806 204.719 18.6759L203.39 18.7996C203.946 17.4188 204.74 16.3986 205.77 15.7391C206.801 15.0796 208.006 14.7498 209.387 14.7498C210.603 14.7498 211.675 15.0178 212.602 15.5536C213.55 16.0894 214.292 16.8417 214.828 17.8103C215.364 18.7584 215.632 19.8713 215.632 21.1491V32H210.995V22.1383C210.995 21.4788 210.871 20.9121 210.624 20.4381C210.397 19.964 210.067 19.5931 209.635 19.3251C209.202 19.0572 208.676 18.9233 208.058 18.9233C207.46 18.9233 206.935 19.0572 206.481 19.3251C206.049 19.5931 205.708 19.964 205.461 20.4381C205.234 20.9121 205.121 21.4788 205.121 22.1383V32H200.484V22.1383C200.484 21.4788 200.36 20.9121 200.113 20.4381C199.886 19.964 199.557 19.5931 199.124 19.3251C198.691 19.0572 198.165 18.9233 197.547 18.9233C196.949 18.9233 196.424 19.0572 195.97 19.3251C195.538 19.5931 195.198 19.964 194.95 20.4381C194.724 20.9121 194.61 21.4788 194.61 22.1383V32H189.973Z" fill="#636363"/>
<path d="M38.2683 28.4203V19.9087C38.2683 19.5317 37.9403 19.3288 37.6122 19.5317L27.7704 24.5488C27.5571 24.6503 27.3439 24.9403 27.3439 25.2304V35.279C27.3439 35.6704 27.6719 35.8589 28 35.6704L36.3 31.4219L44.4031 35.569L23.2923 46.3425L23.2431 46.3714L23.1775 46.3425L8.89045 39.0343L2.11599 35.5544L10.17 31.4218L18.4862 35.6704C18.8142 35.8589 19.1423 35.569 19.0274 35.192V25.1288C19.0274 24.8388 18.9127 24.6503 18.5847 24.4618L8.74283 19.4302C8.52959 19.3287 8.0867 19.5316 8.0867 19.8216V28.3188L0 32.4804V10.8316L21.324 0V8.30859L13.0076 12.5716C12.6796 12.6586 12.6796 13.1516 13.0076 13.2386L22.8494 18.2702C23.0791 18.3717 23.4072 18.4587 23.7352 18.2702L33.577 13.2386C33.9051 13.1516 33.9051 12.7601 33.577 12.5716L25.2607 8.30859V0L46.3714 10.8316V32.4369L38.2683 28.4203Z" fill="#636363"/>
</svg>
