<svg width="209" height="47" viewBox="0 0 209 47" fill="none" xmlns="http://www.w3.org/2000/svg">
<path d="M51.4583 32V8.59789H54.9516V32H51.4583ZM67.1046 32.371C65.497 32.371 64.0234 31.9897 62.6838 31.2271C61.3648 30.4646 60.3137 29.4238 59.5306 28.1048C58.7474 26.7858 58.3558 25.2916 58.3558 23.6222C58.3558 21.9322 58.7474 20.4381 59.5306 19.1397C60.3137 17.8206 61.3648 16.7902 62.6838 16.0482C64.0028 15.2857 65.4764 14.9044 67.1046 14.9044C68.7533 14.9044 70.2269 15.2857 71.5253 16.0482C72.8443 16.7902 73.8851 17.8206 74.6476 19.1397C75.4308 20.4381 75.8224 21.9322 75.8224 23.6222C75.8224 25.3122 75.4308 26.8167 74.6476 28.1357C73.8645 29.4547 72.8134 30.4955 71.4944 31.2581C70.1754 32 68.7121 32.371 67.1046 32.371ZM67.1046 29.125C68.0938 29.125 68.9697 28.888 69.7323 28.4139C70.4948 27.9399 71.0925 27.2907 71.5253 26.4663C71.9787 25.6214 72.2054 24.6733 72.2054 23.6222C72.2054 22.5711 71.9787 21.6334 71.5253 20.809C71.0925 19.9846 70.4948 19.3354 69.7323 18.8614C68.9697 18.3874 68.0938 18.1504 67.1046 18.1504C66.1359 18.1504 65.26 18.3874 64.4768 18.8614C63.7143 19.3354 63.1063 19.9846 62.6529 20.809C62.2201 21.6334 62.0037 22.5711 62.0037 23.6222C62.0037 24.6733 62.2201 25.6214 62.6529 26.4663C63.1063 27.2907 63.7143 27.9399 64.4768 28.4139C65.26 28.888 66.1359 29.125 67.1046 29.125ZM87.3015 38.8011C86.0855 38.8011 84.9623 38.6054 83.9318 38.2138C82.9014 37.8222 82.0151 37.276 81.2732 36.5753C80.5313 35.8952 79.9748 35.0914 79.6038 34.164L82.8189 32.8347C83.1075 33.6178 83.633 34.267 84.3955 34.7823C85.1787 35.2975 86.1371 35.5551 87.2706 35.5551C88.1568 35.5551 88.9503 35.38 89.651 35.0296C90.3517 34.6998 90.9082 34.2052 91.3203 33.5457C91.7325 32.9068 91.9386 32.134 91.9386 31.2271V27.4556L92.5569 28.1666C91.9799 29.2383 91.1761 30.0524 90.1456 30.6089C89.1357 31.1653 87.9919 31.4435 86.7141 31.4435C85.1684 31.4435 83.7773 31.0829 82.5407 30.3615C81.3041 29.6402 80.3252 28.651 79.6038 27.3938C78.9031 26.1366 78.5527 24.7248 78.5527 23.1585C78.5527 21.5716 78.9031 20.1598 79.6038 18.9233C80.3252 17.6867 81.2938 16.7077 82.5098 15.9864C83.7257 15.2651 85.1169 14.9044 86.6832 14.9044C87.961 14.9044 89.0945 15.1826 90.0838 15.7391C91.0936 16.2749 91.918 17.0581 92.5569 18.0886L92.0932 18.9542V15.2754H95.401V31.2271C95.401 32.6698 95.0507 33.9579 94.3499 35.0914C93.6698 36.2456 92.7218 37.1524 91.5058 37.8119C90.2899 38.4714 88.8884 38.8011 87.3015 38.8011ZM87.116 28.1975C88.0434 28.1975 88.8678 27.9811 89.5891 27.5483C90.3105 27.0949 90.8772 26.4973 91.2894 25.7553C91.7222 24.9928 91.9386 24.1375 91.9386 23.1894C91.9386 22.2414 91.7222 21.3861 91.2894 20.6235C90.8566 19.861 90.2796 19.2633 89.5582 18.8305C88.8369 18.3771 88.0228 18.1504 87.116 18.1504C86.168 18.1504 85.323 18.3771 84.581 18.8305C83.8391 19.2633 83.2517 19.861 82.8189 20.6235C82.4067 21.3655 82.2006 22.2208 82.2006 23.1894C82.2006 24.1169 82.4067 24.9618 82.8189 25.7244C83.2517 26.487 83.8391 27.0949 84.581 27.5483C85.323 27.9811 86.168 28.1975 87.116 28.1975ZM107.559 32.371C105.951 32.371 104.478 31.9897 103.138 31.2271C101.819 30.4646 100.768 29.4238 99.9848 28.1048C99.2016 26.7858 98.8101 25.2916 98.8101 23.6222C98.8101 21.9322 99.2016 20.4381 99.9848 19.1397C100.768 17.8206 101.819 16.7902 103.138 16.0482C104.457 15.2857 105.931 14.9044 107.559 14.9044C109.208 14.9044 110.681 15.2857 111.98 16.0482C113.299 16.7902 114.339 17.8206 115.102 19.1397C115.885 20.4381 116.277 21.9322 116.277 23.6222C116.277 25.3122 115.885 26.8167 115.102 28.1357C114.319 29.4547 113.268 30.4955 111.949 31.2581C110.63 32 109.166 32.371 107.559 32.371ZM107.559 29.125C108.548 29.125 109.424 28.888 110.187 28.4139C110.949 27.9399 111.547 27.2907 111.98 26.4663C112.433 25.6214 112.66 24.6733 112.66 23.6222C112.66 22.5711 112.433 21.6334 111.98 20.809C111.547 19.9846 110.949 19.3354 110.187 18.8614C109.424 18.3874 108.548 18.1504 107.559 18.1504C106.59 18.1504 105.714 18.3874 104.931 18.8614C104.169 19.3354 103.561 19.9846 103.107 20.809C102.674 21.6334 102.458 22.5711 102.458 23.6222C102.458 24.6733 102.674 25.6214 103.107 26.4663C103.561 27.2907 104.169 27.9399 104.931 28.4139C105.714 28.888 106.59 29.125 107.559 29.125ZM119.687 32V15.2754H123.18V32H119.687ZM119.687 12.9877V8.96886H123.18V12.9877H119.687ZM127.265 38.1829V15.2754H130.603V18.7378L130.202 17.934C130.82 16.986 131.644 16.244 132.675 15.7082C133.705 15.1723 134.88 14.9044 136.199 14.9044C137.786 14.9044 139.208 15.2857 140.465 16.0482C141.743 16.8108 142.742 17.8516 143.464 19.1706C144.206 20.4896 144.577 21.9735 144.577 23.6222C144.577 25.271 144.206 26.7549 143.464 28.0739C142.742 29.3929 141.753 30.444 140.496 31.2271C139.239 31.9897 137.806 32.371 136.199 32.371C134.901 32.371 133.716 32.103 132.644 31.5672C131.593 31.0314 130.779 30.2585 130.202 29.2486L130.758 28.5994V38.1829H127.265ZM135.859 29.125C136.848 29.125 137.724 28.888 138.487 28.4139C139.249 27.9399 139.847 27.2907 140.28 26.4663C140.733 25.6214 140.96 24.6733 140.96 23.6222C140.96 22.5711 140.733 21.6334 140.28 20.809C139.847 19.9846 139.249 19.3354 138.487 18.8614C137.724 18.3874 136.848 18.1504 135.859 18.1504C134.89 18.1504 134.014 18.3874 133.231 18.8614C132.469 19.3354 131.861 19.9846 131.407 20.809C130.974 21.6334 130.758 22.5711 130.758 23.6222C130.758 24.6733 130.974 25.6214 131.407 26.4663C131.861 27.2907 132.469 27.9399 133.231 28.4139C134.014 28.888 134.89 29.125 135.859 29.125ZM154.158 32.371C152.447 32.371 150.943 31.9485 149.644 31.1035C148.366 30.2585 147.47 29.125 146.955 27.7029L149.644 26.4354C150.098 27.3835 150.716 28.1357 151.499 28.6922C152.303 29.2486 153.189 29.5269 154.158 29.5269C154.982 29.5269 155.652 29.3414 156.167 28.9704C156.682 28.5994 156.94 28.0945 156.94 27.4556C156.94 27.0434 156.827 26.7137 156.6 26.4663C156.373 26.1984 156.085 25.982 155.734 25.8171C155.405 25.6523 155.065 25.5286 154.714 25.4462L152.086 24.7042C150.644 24.292 149.562 23.6738 148.84 22.8494C148.14 22.0044 147.789 21.0254 147.789 19.9125C147.789 18.9026 148.047 18.0267 148.562 17.2848C149.077 16.5222 149.789 15.9349 150.695 15.5227C151.602 15.1105 152.622 14.9044 153.756 14.9044C155.281 14.9044 156.641 15.2857 157.837 16.0482C159.032 16.7902 159.877 17.831 160.372 19.1706L157.682 20.4381C157.352 19.6343 156.827 18.9954 156.105 18.5214C155.405 18.0474 154.611 17.8103 153.725 17.8103C152.962 17.8103 152.354 17.9958 151.901 18.3668C151.448 18.7172 151.221 19.1809 151.221 19.7579C151.221 20.1495 151.324 20.4793 151.53 20.7472C151.736 20.9945 152.004 21.2006 152.334 21.3655C152.664 21.5098 153.004 21.6334 153.354 21.7365L156.074 22.5402C157.455 22.9318 158.517 23.5501 159.259 24.3951C160.001 25.2195 160.372 26.2087 160.372 27.3629C160.372 28.3521 160.104 29.228 159.568 29.9906C159.053 30.7325 158.331 31.3199 157.404 31.7527C156.476 32.1649 155.394 32.371 154.158 32.371ZM169.761 32.371C168.504 32.371 167.401 32.0927 166.453 31.5363C165.505 30.9592 164.763 30.1658 164.227 29.1559C163.712 28.1254 163.454 26.9404 163.454 25.6007V15.2754H166.948V25.2916C166.948 26.0542 167.102 26.724 167.411 27.301C167.72 27.8781 168.153 28.3315 168.71 28.6613C169.266 28.9704 169.905 29.125 170.626 29.125C171.368 29.125 172.018 28.9601 172.574 28.6303C173.13 28.3006 173.563 27.8369 173.872 27.2392C174.202 26.6415 174.367 25.9408 174.367 25.137V15.2754H177.829V32H174.522V28.7231L174.893 29.1559C174.501 30.1864 173.852 30.9798 172.945 31.5363C172.038 32.0927 170.977 32.371 169.761 32.371ZM181.908 32V15.2754H185.247V18.8923L184.814 18.3359C185.164 17.2024 185.803 16.3471 186.731 15.77C187.658 15.1929 188.72 14.9044 189.915 14.9044C191.255 14.9044 192.44 15.2651 193.47 15.9864C194.521 16.6871 195.222 17.6249 195.572 18.7996L194.583 18.8923C195.078 17.5527 195.83 16.5532 196.84 15.8937C197.87 15.2342 199.045 14.9044 200.364 14.9044C201.518 14.9044 202.559 15.1723 203.486 15.7082C204.434 16.244 205.187 16.986 205.743 17.934C206.3 18.882 206.578 19.964 206.578 21.18V32H203.084V22.1383C203.084 21.2934 202.93 20.5823 202.621 20.0053C202.332 19.4076 201.92 18.9542 201.384 18.645C200.869 18.3153 200.261 18.1504 199.56 18.1504C198.859 18.1504 198.241 18.3153 197.705 18.645C197.169 18.9542 196.747 19.4076 196.438 20.0053C196.129 20.6029 195.974 21.314 195.974 22.1383V32H192.512V22.1383C192.512 21.2934 192.357 20.5823 192.048 20.0053C191.759 19.4076 191.347 18.9542 190.811 18.645C190.296 18.3153 189.678 18.1504 188.957 18.1504C188.256 18.1504 187.638 18.3153 187.102 18.645C186.566 18.9542 186.143 19.4076 185.834 20.0053C185.546 20.6029 185.401 21.314 185.401 22.1383V32H181.908Z" fill="#636363"/>
<path d="M18.3103 0.399626L1.86533 10.4643C0.993689 10.9971 0.470703 11.9444 0.470703 13.01V33.317C0.470703 34.3826 0.993689 35.3299 1.86533 35.8627L18.3103 45.9274C19.2401 46.5194 20.4023 46.5194 21.2739 45.9274L37.7189 35.8627C38.5906 35.3299 39.1136 34.3826 39.1136 33.317V13.01C39.1136 11.9444 38.5906 10.9971 37.7189 10.4643L21.2739 0.399626C20.4023 -0.133209 19.2401 -0.133209 18.3103 0.399626ZM20.9253 36.9876C12.5575 37.6389 5.64245 30.5936 6.33977 22.0682C6.86275 15.3782 12.2088 9.93145 18.7752 9.39861C27.143 8.74737 34.058 15.7926 33.4188 24.318C32.8377 31.008 27.4916 36.4548 20.9253 36.9876Z" fill="#636363"/>
<path d="M12.3257 21.9498L18.6016 15.5558C19.2989 14.8453 20.4029 14.8453 21.0422 15.5558L27.318 21.9498C28.0153 22.6602 28.0153 23.7851 27.318 24.4364L21.0422 30.8304C20.3448 31.5408 19.2408 31.5408 18.6016 30.8304L12.3257 24.4364C11.6284 23.7259 11.6284 22.6602 12.3257 21.9498Z" fill="#636363"/>
</svg>
