<svg width="215" height="47" viewBox="0 0 215 47" fill="none" xmlns="http://www.w3.org/2000/svg">
<path d="M54.9581 32V8.59789H59.5952V32H54.9581ZM71.3663 32.371C69.697 32.371 68.1719 31.9897 66.791 31.2271C65.4308 30.4646 64.3385 29.4238 63.5141 28.1048C62.7103 26.7652 62.3085 25.2504 62.3085 23.5604C62.3085 21.8498 62.7103 20.335 63.5141 19.016C64.3385 17.697 65.4308 16.6562 66.791 15.8937C68.1719 15.1311 69.697 14.7498 71.3663 14.7498C73.0357 14.7498 74.5505 15.1311 75.9107 15.8937C77.271 16.6562 78.353 17.697 79.1567 19.016C79.9811 20.335 80.3933 21.8498 80.3933 23.5604C80.3933 25.2504 79.9811 26.7652 79.1567 28.1048C78.353 29.4238 77.271 30.4646 75.9107 31.2271C74.5505 31.9897 73.0357 32.371 71.3663 32.371ZM71.3663 28.1975C72.2113 28.1975 72.943 28.0018 73.5613 27.6102C74.2001 27.2186 74.6948 26.6724 75.0451 25.9717C75.4161 25.271 75.6016 24.4672 75.6016 23.5604C75.6016 22.6536 75.4161 21.8601 75.0451 21.18C74.6948 20.4793 74.2001 19.9331 73.5613 19.5415C72.943 19.1294 72.2113 18.9233 71.3663 18.9233C70.5213 18.9233 69.7794 19.1294 69.1405 19.5415C68.5016 19.9331 67.9967 20.4793 67.6257 21.18C67.2753 21.8601 67.1002 22.6536 67.1002 23.5604C67.1002 24.4672 67.2753 25.271 67.6257 25.9717C67.9967 26.6724 68.5016 27.2186 69.1405 27.6102C69.7794 28.0018 70.5213 28.1975 71.3663 28.1975ZM91.4101 38.8011C90.1117 38.8011 88.9061 38.5847 87.7932 38.1519C86.6803 37.7191 85.7219 37.1112 84.9181 36.328C84.135 35.5654 83.5682 34.6586 83.2179 33.6075L87.5149 32.0927C87.7417 32.8759 88.2054 33.4942 88.9061 33.9476C89.6068 34.401 90.4415 34.6277 91.4101 34.6277C92.1727 34.6277 92.8322 34.4834 93.3887 34.1949C93.9451 33.927 94.3676 33.5251 94.6561 32.9893C94.9653 32.4534 95.1199 31.8248 95.1199 31.1035V27.2392L96.0164 28.3521C95.4393 29.3002 94.6974 30.0112 93.7905 30.4852C92.8837 30.9386 91.8223 31.1653 90.6064 31.1653C89.0401 31.1653 87.6386 30.815 86.402 30.1142C85.1655 29.3929 84.1968 28.4139 83.4961 27.1774C82.7954 25.9202 82.445 24.4981 82.445 22.9112C82.445 21.3243 82.7954 19.9228 83.4961 18.7069C84.1968 17.4703 85.1552 16.5016 86.3711 15.8009C87.5871 15.1002 88.9679 14.7498 90.5136 14.7498C91.7296 14.7498 92.791 14.9971 93.6978 15.4918C94.6046 15.9658 95.3775 16.6974 96.0164 17.6867L95.429 18.7996V15.1208H99.757V31.1035C99.757 32.5874 99.3963 33.9064 98.675 35.0605C97.9537 36.2353 96.9644 37.1524 95.7072 37.8119C94.4707 38.4714 93.0383 38.8011 91.4101 38.8011ZM91.2556 26.961C92.0387 26.961 92.7188 26.7961 93.2959 26.4663C93.873 26.1366 94.3161 25.6729 94.6252 25.0752C94.955 24.4775 95.1199 23.7768 95.1199 22.973C95.1199 22.1693 94.955 21.4685 94.6252 20.8709C94.2955 20.2526 93.8421 19.7786 93.265 19.4488C92.6879 19.0984 92.0181 18.9233 91.2556 18.9233C90.4724 18.9233 89.7717 19.0984 89.1534 19.4488C88.5557 19.7786 88.0817 20.2526 87.7313 20.8709C87.4016 21.4685 87.2367 22.1693 87.2367 22.973C87.2367 23.7562 87.4016 24.4466 87.7313 25.0443C88.0817 25.642 88.5557 26.116 89.1534 26.4663C89.7717 26.7961 90.4724 26.961 91.2556 26.961ZM111.549 32.371C109.879 32.371 108.354 31.9897 106.974 31.2271C105.613 30.4646 104.521 29.4238 103.697 28.1048C102.893 26.7652 102.491 25.2504 102.491 23.5604C102.491 21.8498 102.893 20.335 103.697 19.016C104.521 17.697 105.613 16.6562 106.974 15.8937C108.354 15.1311 109.879 14.7498 111.549 14.7498C113.218 14.7498 114.733 15.1311 116.093 15.8937C117.453 16.6562 118.535 17.697 119.339 19.016C120.164 20.335 120.576 21.8498 120.576 23.5604C120.576 25.2504 120.164 26.7652 119.339 28.1048C118.535 29.4238 117.453 30.4646 116.093 31.2271C114.733 31.9897 113.218 32.371 111.549 32.371ZM111.549 28.1975C112.394 28.1975 113.125 28.0018 113.744 27.6102C114.383 27.2186 114.877 26.6724 115.228 25.9717C115.599 25.271 115.784 24.4672 115.784 23.5604C115.784 22.6536 115.599 21.8601 115.228 21.18C114.877 20.4793 114.383 19.9331 113.744 19.5415C113.125 19.1294 112.394 18.9233 111.549 18.9233C110.704 18.9233 109.962 19.1294 109.323 19.5415C108.684 19.9331 108.179 20.4793 107.808 21.18C107.458 21.8601 107.283 22.6536 107.283 23.5604C107.283 24.4672 107.458 25.271 107.808 25.9717C108.179 26.6724 108.684 27.2186 109.323 27.6102C109.962 28.0018 110.704 28.1975 111.549 28.1975ZM123.308 32V15.1208H127.945V32H123.308ZM123.308 13.606V8.96886H127.945V13.606H123.308ZM131.338 38.1829V15.1208H135.666V18.3359L135.264 17.4085C135.821 16.5635 136.573 15.9143 137.521 15.4609C138.49 14.9868 139.592 14.7498 140.829 14.7498C142.436 14.7498 143.889 15.1414 145.188 15.9246C146.486 16.7077 147.517 17.7691 148.279 19.1087C149.042 20.4278 149.423 21.9116 149.423 23.5604C149.423 25.1886 149.042 26.6724 148.279 28.0121C147.537 29.3517 146.517 30.4131 145.219 31.1962C143.92 31.9794 142.447 32.371 140.798 32.371C139.644 32.371 138.572 32.1649 137.583 31.7527C136.614 31.3199 135.831 30.6913 135.233 29.8669L135.975 28.9086V38.1829H131.338ZM140.241 28.1975C141.107 28.1975 141.87 28.0018 142.529 27.6102C143.189 27.2186 143.704 26.6724 144.075 25.9717C144.446 25.271 144.631 24.4672 144.631 23.5604C144.631 22.6536 144.446 21.8601 144.075 21.18C143.704 20.4793 143.189 19.9331 142.529 19.5415C141.87 19.1294 141.107 18.9233 140.241 18.9233C139.417 18.9233 138.675 19.119 138.016 19.5106C137.377 19.9022 136.872 20.4484 136.501 21.1491C136.15 21.8498 135.975 22.6536 135.975 23.5604C135.975 24.4672 136.15 25.271 136.501 25.9717C136.872 26.6724 137.377 27.2186 138.016 27.6102C138.675 28.0018 139.417 28.1975 140.241 28.1975ZM158.754 32.371C156.9 32.371 155.282 31.9382 153.901 31.0726C152.541 30.1864 151.613 29.0013 151.119 27.5174L154.519 25.9099C154.952 26.8167 155.539 27.5277 156.281 28.043C157.023 28.5582 157.848 28.8158 158.754 28.8158C159.414 28.8158 159.919 28.6819 160.269 28.4139C160.62 28.146 160.795 27.775 160.795 27.301C160.795 27.0537 160.733 26.8476 160.609 26.6827C160.486 26.4973 160.3 26.3324 160.053 26.1881C159.806 26.0438 159.496 25.9202 159.125 25.8171L156.25 25.0134C154.87 24.6218 153.808 23.9932 153.066 23.1276C152.324 22.2414 151.953 21.2006 151.953 20.0053C151.953 18.9542 152.221 18.037 152.757 17.2539C153.293 16.4707 154.045 15.8627 155.014 15.4299C155.983 14.9765 157.095 14.7498 158.353 14.7498C160.001 14.7498 161.444 15.1414 162.681 15.9246C163.938 16.6871 164.824 17.7691 165.339 19.1706L161.908 20.7781C161.66 20.0774 161.207 19.5209 160.548 19.1087C159.909 18.6759 159.177 18.4595 158.353 18.4595C157.755 18.4595 157.281 18.5832 156.931 18.8305C156.601 19.0778 156.436 19.4179 156.436 19.8507C156.436 20.0774 156.498 20.2835 156.621 20.469C156.745 20.6545 156.941 20.8193 157.209 20.9636C157.497 21.1079 157.848 21.2418 158.26 21.3655L160.949 22.1693C162.351 22.5814 163.423 23.21 164.164 24.055C164.906 24.8794 165.277 25.8996 165.277 27.1155C165.277 28.1666 164.999 29.0838 164.443 29.8669C163.907 30.6501 163.155 31.2684 162.186 31.7218C161.217 32.1546 160.074 32.371 158.754 32.371ZM174.108 32.371C172.748 32.371 171.583 32.0824 170.615 31.5054C169.667 30.9077 168.945 30.0833 168.451 29.0322C167.956 27.9811 167.709 26.7549 167.709 25.3534V15.1208H172.346V24.9825C172.346 25.6214 172.47 26.1881 172.717 26.6827C172.985 27.1568 173.356 27.5277 173.83 27.7957C174.304 28.0636 174.84 28.1975 175.437 28.1975C176.056 28.1975 176.591 28.0636 177.045 27.7957C177.519 27.5277 177.88 27.1568 178.127 26.6827C178.395 26.1881 178.529 25.6214 178.529 24.9825V15.1208H183.166V32H178.838V28.6613L179.085 29.4032C178.694 30.4131 178.055 31.1653 177.169 31.6599C176.303 32.134 175.283 32.371 174.108 32.371ZM186.555 32V15.1208H190.883V19.2324L190.419 18.5523C190.667 17.2539 191.264 16.2955 192.212 15.6773C193.16 15.059 194.294 14.7498 195.613 14.7498C197.014 14.7498 198.241 15.1105 199.292 15.8318C200.364 16.5326 201.033 17.4806 201.301 18.6759L199.972 18.7996C200.528 17.4188 201.322 16.3986 202.352 15.7391C203.383 15.0796 204.588 14.7498 205.969 14.7498C207.185 14.7498 208.257 15.0178 209.184 15.5536C210.132 16.0894 210.874 16.8417 211.41 17.8103C211.946 18.7584 212.214 19.8713 212.214 21.1491V32H207.577V22.1383C207.577 21.4788 207.453 20.9121 207.206 20.4381C206.979 19.964 206.649 19.5931 206.217 19.3251C205.784 19.0572 205.258 18.9233 204.64 18.9233C204.042 18.9233 203.517 19.0572 203.063 19.3251C202.631 19.5931 202.291 19.964 202.043 20.4381C201.816 20.9121 201.703 21.4788 201.703 22.1383V32H197.066V22.1383C197.066 21.4788 196.942 20.9121 196.695 20.4381C196.468 19.964 196.139 19.5931 195.706 19.3251C195.273 19.0572 194.747 18.9233 194.129 18.9233C193.531 18.9233 193.006 19.0572 192.553 19.3251C192.12 19.5931 191.78 19.964 191.532 20.4381C191.306 20.9121 191.192 21.4788 191.192 22.1383V32H186.555Z" fill="#636363"/>
<path d="M21.6707 0.000322215C21.5611 0.00616369 21.4539 0.0348176 21.3564 0.0865146C21.3564 0.0865146 12.3419 4.66428 1.10061 6.19022C0.722935 6.24338 0.442532 6.57336 0.445333 6.9615V23.1839C0.445333 33.1218 5.78957 39.0168 11.0588 42.295C16.3279 45.5733 21.5862 46.3627 21.5862 46.3627C21.6609 46.3744 21.7368 46.3744 21.8116 46.3627C21.8116 46.3627 27.0698 45.5733 32.339 42.295C37.6082 39.0168 42.9524 33.1218 42.9524 23.1839V6.9615C42.9556 6.57336 42.6748 6.24332 42.2971 6.19022C31.0559 4.66428 22.0413 0.0865146 22.0413 0.0865146C21.927 0.0263474 21.7994 -0.00347474 21.6707 0.000322215ZM21.6988 9.27675C29.2357 9.27675 35.3589 15.5105 35.3589 23.1837C35.3589 30.8568 29.2357 37.0983 21.6988 37.0983C14.162 37.0983 8.0388 30.8568 8.0388 23.1837C8.0388 15.5105 14.162 9.27675 21.6988 9.27675ZM18.6611 16.2303V20.0987H14.8688C14.4496 20.0971 14.1085 20.4416 14.1068 20.8684V25.5066C14.1083 25.9334 14.4496 26.278 14.8688 26.2764H18.6611V30.1448C18.6626 30.5721 19.0049 30.917 19.4246 30.9145H23.973C24.3922 30.9161 24.7334 30.5715 24.735 30.1448V26.2764H28.5288C28.948 26.2779 29.2892 25.9334 29.2909 25.5066V20.8684C29.2893 20.4416 28.948 20.097 28.5288 20.0987H24.735V16.2303C24.7335 15.8035 24.3922 15.4589 23.973 15.4605H19.3853C18.9572 15.4993 18.6608 15.8325 18.6611 16.2303Z" fill="#636363"/>
</svg>
