<svg width="212" height="47" viewBox="0 0 212 47" fill="none" xmlns="http://www.w3.org/2000/svg">
<path d="M55.0403 32.4844V9.08226H58.5337V32.4844H55.0403ZM70.6866 32.8553C69.0791 32.8553 67.6055 32.4741 66.2659 31.7115C64.9468 30.949 63.8958 29.9082 63.1126 28.5892C62.3294 27.2702 61.9379 25.776 61.9379 24.1066C61.9379 22.4166 62.3294 20.9224 63.1126 19.624C63.8958 18.305 64.9468 17.2745 66.2659 16.5326C67.5849 15.7701 69.0584 15.3888 70.6866 15.3888C72.3354 15.3888 73.8089 15.7701 75.1073 16.5326C76.4263 17.2745 77.4671 18.305 78.2297 19.624C79.0128 20.9224 79.4044 22.4166 79.4044 24.1066C79.4044 25.7966 79.0128 27.3011 78.2297 28.6201C77.4465 29.9391 76.3954 30.9799 75.0764 31.7424C73.7574 32.4844 72.2941 32.8553 70.6866 32.8553ZM70.6866 29.6093C71.6759 29.6093 72.5518 29.3723 73.3143 28.8983C74.0769 28.4243 74.6745 27.7751 75.1073 26.9507C75.5607 26.1057 75.7875 25.1577 75.7875 24.1066C75.7875 23.0555 75.5607 22.1178 75.1073 21.2934C74.6745 20.469 74.0769 19.8198 73.3143 19.3458C72.5518 18.8718 71.6759 18.6348 70.6866 18.6348C69.7179 18.6348 68.842 18.8718 68.0589 19.3458C67.2963 19.8198 66.6883 20.469 66.2349 21.2934C65.8021 22.1178 65.5857 23.0555 65.5857 24.1066C65.5857 25.1577 65.8021 26.1057 66.2349 26.9507C66.6883 27.7751 67.2963 28.4243 68.0589 28.8983C68.842 29.3723 69.7179 29.6093 70.6866 29.6093ZM90.8835 39.2855C89.6676 39.2855 88.5443 39.0897 87.5139 38.6981C86.4834 38.3066 85.5972 37.7604 84.8552 37.0597C84.1133 36.3796 83.5568 35.5758 83.1859 34.6484L86.401 33.3191C86.6895 34.1022 87.215 34.7514 87.9776 35.2667C88.7607 35.7819 89.7191 36.0395 90.8526 36.0395C91.7388 36.0395 92.5323 35.8643 93.233 35.514C93.9337 35.1842 94.4902 34.6896 94.9024 34.0301C95.3146 33.3912 95.5207 32.6183 95.5207 31.7115V27.94L96.139 28.651C95.5619 29.7227 94.7581 30.5368 93.7276 31.0932C92.7178 31.6497 91.5739 31.9279 90.2962 31.9279C88.7504 31.9279 87.3593 31.5673 86.1227 30.8459C84.8862 30.1246 83.9072 29.1353 83.1859 27.8781C82.4851 26.621 82.1348 25.2092 82.1348 23.6429C82.1348 22.056 82.4851 20.6442 83.1859 19.4076C83.9072 18.1711 84.8758 17.1921 86.0918 16.4708C87.3078 15.7494 88.6989 15.3888 90.2652 15.3888C91.543 15.3888 92.6766 15.667 93.6658 16.2235C94.6757 16.7593 95.5001 17.5425 96.139 18.5729L95.6752 19.4385V15.7597H98.9831V31.7115C98.9831 33.1542 98.6327 34.4423 97.932 35.5758C97.2519 36.7299 96.3038 37.6368 95.0879 38.2963C93.8719 38.9558 92.4705 39.2855 90.8835 39.2855ZM90.698 28.6819C91.6255 28.6819 92.4498 28.4655 93.1712 28.0327C93.8925 27.5793 94.4593 26.9816 94.8715 26.2397C95.3043 25.4771 95.5207 24.6218 95.5207 23.6738C95.5207 22.7258 95.3043 21.8705 94.8715 21.1079C94.4387 20.3454 93.8616 19.7477 93.1403 19.3149C92.4189 18.8615 91.6049 18.6348 90.698 18.6348C89.75 18.6348 88.905 18.8615 88.1631 19.3149C87.4211 19.7477 86.8338 20.3454 86.401 21.1079C85.9888 21.8499 85.7827 22.7052 85.7827 23.6738C85.7827 24.6012 85.9888 25.4462 86.401 26.2088C86.8338 26.9713 87.4211 27.5793 88.1631 28.0327C88.905 28.4655 89.75 28.6819 90.698 28.6819ZM111.141 32.8553C109.533 32.8553 108.06 32.4741 106.72 31.7115C105.401 30.949 104.35 29.9082 103.567 28.5892C102.784 27.2702 102.392 25.776 102.392 24.1066C102.392 22.4166 102.784 20.9224 103.567 19.624C104.35 18.305 105.401 17.2745 106.72 16.5326C108.039 15.7701 109.513 15.3888 111.141 15.3888C112.79 15.3888 114.263 15.7701 115.562 16.5326C116.881 17.2745 117.921 18.305 118.684 19.624C119.467 20.9224 119.859 22.4166 119.859 24.1066C119.859 25.7966 119.467 27.3011 118.684 28.6201C117.901 29.9391 116.85 30.9799 115.531 31.7424C114.212 32.4844 112.748 32.8553 111.141 32.8553ZM111.141 29.6093C112.13 29.6093 113.006 29.3723 113.769 28.8983C114.531 28.4243 115.129 27.7751 115.562 26.9507C116.015 26.1057 116.242 25.1577 116.242 24.1066C116.242 23.0555 116.015 22.1178 115.562 21.2934C115.129 20.469 114.531 19.8198 113.769 19.3458C113.006 18.8718 112.13 18.6348 111.141 18.6348C110.172 18.6348 109.296 18.8718 108.513 19.3458C107.751 19.8198 107.143 20.469 106.689 21.2934C106.256 22.1178 106.04 23.0555 106.04 24.1066C106.04 25.1577 106.256 26.1057 106.689 26.9507C107.143 27.7751 107.751 28.4243 108.513 28.8983C109.296 29.3723 110.172 29.6093 111.141 29.6093ZM123.269 32.4844V15.7597H126.762V32.4844H123.269ZM123.269 13.4721V9.45323H126.762V13.4721H123.269ZM130.847 38.6672V15.7597H134.185V19.2221L133.784 18.4184C134.402 17.4703 135.226 16.7284 136.257 16.1925C137.287 15.6567 138.462 15.3888 139.781 15.3888C141.368 15.3888 142.79 15.7701 144.047 16.5326C145.325 17.2952 146.325 18.3359 147.046 19.6549C147.788 20.974 148.159 22.4578 148.159 24.1066C148.159 25.7554 147.788 27.2393 147.046 28.5583C146.325 29.8773 145.335 30.9284 144.078 31.7115C142.821 32.4741 141.389 32.8553 139.781 32.8553C138.483 32.8553 137.298 32.5874 136.226 32.0516C135.175 31.5157 134.361 30.7429 133.784 29.733L134.34 29.0838V38.6672H130.847ZM139.441 29.6093C140.43 29.6093 141.306 29.3723 142.069 28.8983C142.831 28.4243 143.429 27.7751 143.862 26.9507C144.315 26.1057 144.542 25.1577 144.542 24.1066C144.542 23.0555 144.315 22.1178 143.862 21.2934C143.429 20.469 142.831 19.8198 142.069 19.3458C141.306 18.8718 140.43 18.6348 139.441 18.6348C138.472 18.6348 137.596 18.8718 136.813 19.3458C136.051 19.8198 135.443 20.469 134.989 21.2934C134.556 22.1178 134.34 23.0555 134.34 24.1066C134.34 25.1577 134.556 26.1057 134.989 26.9507C135.443 27.7751 136.051 28.4243 136.813 28.8983C137.596 29.3723 138.472 29.6093 139.441 29.6093ZM157.74 32.8553C156.029 32.8553 154.525 32.4329 153.226 31.5879C151.948 30.7429 151.052 29.6093 150.537 28.1873L153.226 26.9198C153.68 27.8678 154.298 28.6201 155.081 29.1765C155.885 29.733 156.771 30.0112 157.74 30.0112C158.564 30.0112 159.234 29.8257 159.749 29.4548C160.264 29.0838 160.522 28.5789 160.522 27.94C160.522 27.5278 160.409 27.198 160.182 26.9507C159.955 26.6828 159.667 26.4664 159.316 26.3015C158.987 26.1366 158.647 26.013 158.296 25.9305L155.669 25.1886C154.226 24.7764 153.144 24.1581 152.423 23.3337C151.722 22.4888 151.371 21.5098 151.371 20.3969C151.371 19.387 151.629 18.5111 152.144 17.7692C152.66 17.0066 153.371 16.4193 154.277 16.0071C155.184 15.5949 156.204 15.3888 157.338 15.3888C158.863 15.3888 160.223 15.7701 161.419 16.5326C162.614 17.2745 163.459 18.3153 163.954 19.6549L161.264 20.9224C160.934 20.1187 160.409 19.4798 159.687 19.0057C158.987 18.5317 158.193 18.2947 157.307 18.2947C156.544 18.2947 155.936 18.4802 155.483 18.8512C155.03 19.2015 154.803 19.6653 154.803 20.2423C154.803 20.6339 154.906 20.9637 155.112 21.2316C155.318 21.4789 155.586 21.685 155.916 21.8499C156.246 21.9941 156.586 22.1178 156.936 22.2208L159.656 23.0246C161.037 23.4162 162.099 24.0345 162.841 24.8795C163.583 25.7038 163.954 26.6931 163.954 27.8472C163.954 28.8365 163.686 29.7124 163.15 30.4749C162.635 31.2169 161.913 31.8043 160.986 32.2371C160.058 32.6493 158.976 32.8553 157.74 32.8553ZM173.343 32.8553C172.086 32.8553 170.983 32.5771 170.035 32.0207C169.087 31.4436 168.345 30.6501 167.809 29.6403C167.294 28.6098 167.036 27.4247 167.036 26.0851V15.7597H170.53V25.776C170.53 26.5385 170.684 27.2083 170.993 27.7854C171.302 28.3625 171.735 28.8159 172.292 29.1456C172.848 29.4548 173.487 29.6093 174.208 29.6093C174.95 29.6093 175.6 29.4445 176.156 29.1147C176.712 28.785 177.145 28.3213 177.454 27.7236C177.784 27.1259 177.949 26.4252 177.949 25.6214V15.7597H181.411V32.4844H178.104V29.2075L178.475 29.6403C178.083 30.6707 177.434 31.4642 176.527 32.0207C175.62 32.5771 174.559 32.8553 173.343 32.8553ZM185.49 32.4844V15.7597H188.829V19.3767L188.396 18.8203C188.746 17.6867 189.385 16.8314 190.313 16.2544C191.24 15.6773 192.302 15.3888 193.497 15.3888C194.837 15.3888 196.022 15.7494 197.052 16.4708C198.103 17.1715 198.804 18.1092 199.154 19.284L198.165 19.3767C198.66 18.0371 199.412 17.0375 200.422 16.378C201.452 15.7185 202.627 15.3888 203.946 15.3888C205.1 15.3888 206.141 15.6567 207.068 16.1925C208.016 16.7284 208.769 17.4703 209.325 18.4184C209.882 19.3664 210.16 20.4484 210.16 21.6644V32.4844H206.666V22.6227C206.666 21.7777 206.512 21.0667 206.203 20.4896C205.914 19.892 205.502 19.4385 204.966 19.1294C204.451 18.7997 203.843 18.6348 203.142 18.6348C202.442 18.6348 201.823 18.7997 201.287 19.1294C200.752 19.4385 200.329 19.892 200.02 20.4896C199.711 21.0873 199.556 21.7983 199.556 22.6227V32.4844H196.094V22.6227C196.094 21.7777 195.939 21.0667 195.63 20.4896C195.342 19.892 194.929 19.4385 194.393 19.1294C193.878 18.7997 193.26 18.6348 192.539 18.6348C191.838 18.6348 191.22 18.7997 190.684 19.1294C190.148 19.4385 189.725 19.892 189.416 20.4896C189.128 21.0873 188.983 21.7983 188.983 22.6227V32.4844H185.49Z" fill="#636363"/>
<path d="M33.5259 13.9515L22.2919 7.39321C21.7454 7.08958 21.0167 7.08958 20.4702 7.39321L9.23616 13.9515C8.68964 14.2551 7.96094 14.2551 7.41442 13.9515L4.86399 12.4941C3.6495 11.7654 3.6495 10.0651 4.86399 9.33639L20.4702 0.227717C21.0167 -0.0759056 21.7454 -0.0759056 22.2919 0.227717L37.8981 9.33639C39.1126 10.0651 39.1126 11.7654 37.8981 12.4941L35.3477 13.9515C34.8012 14.3158 34.0725 14.3158 33.5259 13.9515Z" fill="#636363"/>
<path d="M13.7914 31.3792L20.4103 27.4929C20.9569 27.1892 21.6856 27.1892 22.2321 27.4929L28.9118 31.3792C29.519 31.7436 29.519 32.6544 28.9118 33.0188L22.2928 36.9052C21.7463 37.2088 21.0176 37.2088 20.4711 36.9052L13.7914 33.0188C13.1841 32.6544 13.1841 31.7436 13.7914 31.3792Z" fill="#636363"/>
<path d="M26.1779 14.4371L31.5217 17.5341C32.0682 17.8377 32.4325 18.4449 32.4325 19.1129V26.8249C32.4325 27.6143 31.5824 28.1001 30.9144 27.6751L24.3562 23.8494C23.8097 23.5458 23.4453 22.9386 23.4453 22.2706V16.016C23.4453 14.6193 24.9634 13.7692 26.1779 14.4371Z" fill="#636363"/>
<path d="M18.4045 23.9103L11.7248 27.7967C11.1175 28.1611 10.3281 27.736 10.3281 27.0073V19.1738C10.3281 18.5059 10.6925 17.8986 11.239 17.595L16.5827 14.4981C17.7972 13.7694 19.3153 14.6802 19.3153 16.0769V22.3922C19.3153 22.9995 19.0117 23.546 18.4045 23.9103Z" fill="#636363"/>
<path d="M41.7234 37.5734L26.1779 46.6821C24.9634 47.4108 23.4453 46.5 23.4453 45.1033V42.1278C23.4453 41.4598 23.8097 40.8526 24.3562 40.549L35.6509 33.93C36.1975 33.6264 36.5618 33.0191 36.5618 32.3511V19.1739C36.5618 18.506 36.9261 17.8987 37.4727 17.5951L39.9624 16.1377C41.1769 15.409 42.695 16.3199 42.695 17.7165V35.9946C42.6343 36.6019 42.2699 37.2091 41.7234 37.5734Z" fill="#636363"/>
<path d="M6.25995 19.1739V32.4119C6.25995 33.0798 6.62429 33.6871 7.17081 33.9907L18.4656 40.6097C19.0121 40.9133 19.3764 41.5205 19.3764 42.1885V45.164C19.3764 46.5607 17.8583 47.4715 16.6438 46.7428L1.09837 37.6342C0.551847 37.3305 0.1875 36.7233 0.1875 36.0553V17.7165C0.1875 16.3199 1.70561 15.409 2.9201 16.1377L5.40981 17.5951C5.8956 17.8987 6.25995 18.506 6.25995 19.1739Z" fill="#636363"/>
</svg>
