<svg width="216" height="44" viewBox="0 0 216 44" fill="none" xmlns="http://www.w3.org/2000/svg">
<path d="M7.32446 14.5986C3.29485 14.5986 0.0253906 11.3303 0.0253906 7.29907C0.0253906 3.26779 3.29485 0 7.32446 0C11.3553 0 14.6235 3.26821 14.6235 7.29907C14.6235 11.3299 17.8921 14.5986 21.923 14.5986C25.9539 14.5986 29.2221 11.3303 29.2221 7.29948C29.2221 3.26863 32.4907 0 36.5216 0C40.5524 0 43.8206 3.26821 43.8206 7.29907C43.8206 11.3299 40.5524 14.5981 36.5216 14.5981C24.4265 14.5981 14.6239 24.4048 14.6239 36.4953C14.6239 40.5241 11.3557 43.7944 7.32487 43.7944C3.29402 43.7944 0.0253906 40.527 0.0253906 36.4962C0.0253906 32.4653 3.2936 29.1967 7.32446 29.1967C11.3553 29.1967 14.6227 25.9285 14.6227 21.8976C14.6227 17.8668 11.3557 14.5986 7.32446 14.5986Z" fill="#636363"/>
<path d="M20.0996 31.9335C20.0996 25.3791 25.4089 20.0723 31.9612 20.0723C38.5135 20.0727 43.822 25.3791 43.822 31.9335C43.822 38.4849 38.5135 43.7951 31.9604 43.7951C25.4081 43.7951 20.0996 38.4849 20.0996 31.9335Z" fill="#636363"/>
<path d="M58.7415 32V8.59789H62.2348V32H58.7415ZM74.3878 32.371C72.7802 32.371 71.3066 31.9897 69.967 31.2271C68.648 30.4646 67.5969 29.4238 66.8138 28.1048C66.0306 26.7858 65.639 25.2916 65.639 23.6222C65.639 21.9322 66.0306 20.4381 66.8138 19.1397C67.5969 17.8206 68.648 16.7902 69.967 16.0482C71.286 15.2857 72.7596 14.9044 74.3878 14.9044C76.0365 14.9044 77.5101 15.2857 78.8085 16.0482C80.1275 16.7902 81.1683 17.8206 81.9309 19.1397C82.714 20.4381 83.1056 21.9322 83.1056 23.6222C83.1056 25.3122 82.714 26.8167 81.9309 28.1357C81.1477 29.4547 80.0966 30.4955 78.7776 31.2581C77.4586 32 75.9953 32.371 74.3878 32.371ZM74.3878 29.125C75.377 29.125 76.2529 28.888 77.0155 28.4139C77.778 27.9399 78.3757 27.2907 78.8085 26.4663C79.2619 25.6214 79.4886 24.6733 79.4886 23.6222C79.4886 22.5711 79.2619 21.6334 78.8085 20.809C78.3757 19.9846 77.778 19.3354 77.0155 18.8614C76.2529 18.3874 75.377 18.1504 74.3878 18.1504C73.4191 18.1504 72.5432 18.3874 71.7601 18.8614C70.9975 19.3354 70.3895 19.9846 69.9361 20.809C69.5033 21.6334 69.2869 22.5711 69.2869 23.6222C69.2869 24.6733 69.5033 25.6214 69.9361 26.4663C70.3895 27.2907 70.9975 27.9399 71.7601 28.4139C72.5432 28.888 73.4191 29.125 74.3878 29.125ZM94.5847 38.8011C93.3687 38.8011 92.2455 38.6054 91.215 38.2138C90.1846 37.8222 89.2984 37.276 88.5564 36.5753C87.8145 35.8952 87.258 35.0914 86.887 34.164L90.1021 32.8347C90.3907 33.6178 90.9162 34.267 91.6788 34.7823C92.4619 35.2975 93.4203 35.5551 94.5538 35.5551C95.44 35.5551 96.2335 35.38 96.9342 35.0296C97.6349 34.6998 98.1914 34.2052 98.6036 33.5457C99.0157 32.9068 99.2218 32.134 99.2218 31.2271V27.4556L99.8401 28.1666C99.2631 29.2383 98.4593 30.0524 97.4288 30.6089C96.4189 31.1653 95.2751 31.4435 93.9973 31.4435C92.4516 31.4435 91.0605 31.0829 89.8239 30.3615C88.5873 29.6402 87.6084 28.651 86.887 27.3938C86.1863 26.1366 85.836 24.7248 85.836 23.1585C85.836 21.5716 86.1863 20.1598 86.887 18.9233C87.6084 17.6867 88.577 16.7077 89.793 15.9864C91.0089 15.2651 92.4001 14.9044 93.9664 14.9044C95.2442 14.9044 96.3777 15.1826 97.367 15.7391C98.3768 16.2749 99.2012 17.0581 99.8401 18.0886L99.3764 18.9542V15.2754H102.684V31.2271C102.684 32.6698 102.334 33.9579 101.633 35.0914C100.953 36.2456 100.005 37.1524 98.789 37.8119C97.5731 38.4714 96.1716 38.8011 94.5847 38.8011ZM94.3992 28.1975C95.3266 28.1975 96.151 27.9811 96.8724 27.5483C97.5937 27.0949 98.1604 26.4973 98.5726 25.7553C99.0054 24.9928 99.2218 24.1375 99.2218 23.1894C99.2218 22.2414 99.0054 21.3861 98.5726 20.6235C98.1398 19.861 97.5628 19.2633 96.8414 18.8305C96.1201 18.3771 95.306 18.1504 94.3992 18.1504C93.4512 18.1504 92.6062 18.3771 91.8642 18.8305C91.1223 19.2633 90.5349 19.861 90.1021 20.6235C89.6899 21.3655 89.4838 22.2208 89.4838 23.1894C89.4838 24.1169 89.6899 24.9618 90.1021 25.7244C90.5349 26.487 91.1223 27.0949 91.8642 27.5483C92.6062 27.9811 93.4512 28.1975 94.3992 28.1975ZM114.842 32.371C113.234 32.371 111.761 31.9897 110.421 31.2271C109.102 30.4646 108.051 29.4238 107.268 28.1048C106.485 26.7858 106.093 25.2916 106.093 23.6222C106.093 21.9322 106.485 20.4381 107.268 19.1397C108.051 17.8206 109.102 16.7902 110.421 16.0482C111.74 15.2857 113.214 14.9044 114.842 14.9044C116.491 14.9044 117.964 15.2857 119.263 16.0482C120.582 16.7902 121.623 17.8206 122.385 19.1397C123.168 20.4381 123.56 21.9322 123.56 23.6222C123.56 25.3122 123.168 26.8167 122.385 28.1357C121.602 29.4547 120.551 30.4955 119.232 31.2581C117.913 32 116.45 32.371 114.842 32.371ZM114.842 29.125C115.831 29.125 116.707 28.888 117.47 28.4139C118.232 27.9399 118.83 27.2907 119.263 26.4663C119.716 25.6214 119.943 24.6733 119.943 23.6222C119.943 22.5711 119.716 21.6334 119.263 20.809C118.83 19.9846 118.232 19.3354 117.47 18.8614C116.707 18.3874 115.831 18.1504 114.842 18.1504C113.873 18.1504 112.997 18.3874 112.214 18.8614C111.452 19.3354 110.844 19.9846 110.39 20.809C109.958 21.6334 109.741 22.5711 109.741 23.6222C109.741 24.6733 109.958 25.6214 110.39 26.4663C110.844 27.2907 111.452 27.9399 112.214 28.4139C112.997 28.888 113.873 29.125 114.842 29.125ZM126.97 32V15.2754H130.464V32H126.97ZM126.97 12.9877V8.96886H130.464V12.9877H126.97ZM134.548 38.1829V15.2754H137.887V18.7378L137.485 17.934C138.103 16.986 138.927 16.244 139.958 15.7082C140.988 15.1723 142.163 14.9044 143.482 14.9044C145.069 14.9044 146.491 15.2857 147.748 16.0482C149.026 16.8108 150.026 17.8516 150.747 19.1706C151.489 20.4896 151.86 21.9735 151.86 23.6222C151.86 25.271 151.489 26.7549 150.747 28.0739C150.026 29.3929 149.036 30.444 147.779 31.2271C146.522 31.9897 145.09 32.371 143.482 32.371C142.184 32.371 140.999 32.103 139.927 31.5672C138.876 31.0314 138.062 30.2585 137.485 29.2486L138.041 28.5994V38.1829H134.548ZM143.142 29.125C144.131 29.125 145.007 28.888 145.77 28.4139C146.532 27.9399 147.13 27.2907 147.563 26.4663C148.016 25.6214 148.243 24.6733 148.243 23.6222C148.243 22.5711 148.016 21.6334 147.563 20.809C147.13 19.9846 146.532 19.3354 145.77 18.8614C145.007 18.3874 144.131 18.1504 143.142 18.1504C142.173 18.1504 141.298 18.3874 140.514 18.8614C139.752 19.3354 139.144 19.9846 138.69 20.809C138.258 21.6334 138.041 22.5711 138.041 23.6222C138.041 24.6733 138.258 25.6214 138.69 26.4663C139.144 27.2907 139.752 27.9399 140.514 28.4139C141.298 28.888 142.173 29.125 143.142 29.125ZM161.441 32.371C159.73 32.371 158.226 31.9485 156.927 31.1035C155.65 30.2585 154.753 29.125 154.238 27.7029L156.927 26.4354C157.381 27.3835 157.999 28.1357 158.782 28.6922C159.586 29.2486 160.472 29.5269 161.441 29.5269C162.265 29.5269 162.935 29.3414 163.45 28.9704C163.966 28.5994 164.223 28.0945 164.223 27.4556C164.223 27.0434 164.11 26.7137 163.883 26.4663C163.656 26.1984 163.368 25.982 163.018 25.8171C162.688 25.6523 162.348 25.5286 161.997 25.4462L159.37 24.7042C157.927 24.292 156.845 23.6738 156.124 22.8494C155.423 22.0044 155.073 21.0254 155.073 19.9125C155.073 18.9026 155.33 18.0267 155.845 17.2848C156.361 16.5222 157.072 15.9349 157.979 15.5227C158.885 15.1105 159.906 14.9044 161.039 14.9044C162.564 14.9044 163.924 15.2857 165.12 16.0482C166.315 16.7902 167.16 17.831 167.655 19.1706L164.965 20.4381C164.635 19.6343 164.11 18.9954 163.389 18.5214C162.688 18.0474 161.894 17.8103 161.008 17.8103C160.246 17.8103 159.638 17.9958 159.184 18.3668C158.731 18.7172 158.504 19.1809 158.504 19.7579C158.504 20.1495 158.607 20.4793 158.813 20.7472C159.019 20.9945 159.287 21.2006 159.617 21.3655C159.947 21.5098 160.287 21.6334 160.637 21.7365L163.358 22.5402C164.738 22.9318 165.8 23.5501 166.542 24.3951C167.284 25.2195 167.655 26.2087 167.655 27.3629C167.655 28.3521 167.387 29.228 166.851 29.9906C166.336 30.7325 165.614 31.3199 164.687 31.7527C163.76 32.1649 162.678 32.371 161.441 32.371ZM177.044 32.371C175.787 32.371 174.684 32.0927 173.736 31.5363C172.788 30.9592 172.046 30.1658 171.51 29.1559C170.995 28.1254 170.737 26.9404 170.737 25.6007V15.2754H174.231V25.2916C174.231 26.0542 174.385 26.724 174.694 27.301C175.004 27.8781 175.436 28.3315 175.993 28.6613C176.549 28.9704 177.188 29.125 177.91 29.125C178.652 29.125 179.301 28.9601 179.857 28.6303C180.414 28.3006 180.846 27.8369 181.156 27.2392C181.485 26.6415 181.65 25.9408 181.65 25.137V15.2754H185.113V32H181.805V28.7231L182.176 29.1559C181.784 30.1864 181.135 30.9798 180.228 31.5363C179.321 32.0927 178.26 32.371 177.044 32.371ZM189.191 32V15.2754H192.53V18.8923L192.097 18.3359C192.448 17.2024 193.087 16.3471 194.014 15.77C194.941 15.1929 196.003 14.9044 197.198 14.9044C198.538 14.9044 199.723 15.2651 200.753 15.9864C201.804 16.6871 202.505 17.6249 202.855 18.7996L201.866 18.8923C202.361 17.5527 203.113 16.5532 204.123 15.8937C205.153 15.2342 206.328 14.9044 207.647 14.9044C208.801 14.9044 209.842 15.1723 210.77 15.7082C211.718 16.244 212.47 16.986 213.026 17.934C213.583 18.882 213.861 19.964 213.861 21.18V32H210.368V22.1383C210.368 21.2934 210.213 20.5823 209.904 20.0053C209.615 19.4076 209.203 18.9542 208.667 18.645C208.152 18.3153 207.544 18.1504 206.843 18.1504C206.143 18.1504 205.524 18.3153 204.989 18.645C204.453 18.9542 204.03 19.4076 203.721 20.0053C203.412 20.6029 203.257 21.314 203.257 22.1383V32H199.795V22.1383C199.795 21.2934 199.64 20.5823 199.331 20.0053C199.043 19.4076 198.631 18.9542 198.095 18.645C197.579 18.3153 196.961 18.1504 196.24 18.1504C195.539 18.1504 194.921 18.3153 194.385 18.645C193.849 18.9542 193.427 19.4076 193.117 20.0053C192.829 20.6029 192.685 21.314 192.685 22.1383V32H189.191Z" fill="#636363"/>
</svg>
