<svg width="59" height="58" viewBox="0 0 59 58" fill="none" xmlns="http://www.w3.org/2000/svg">
<mask id="mask0_316_982" style="mask-type:luminance" maskUnits="userSpaceOnUse" x="0" y="0" width="59" height="58">
<path d="M0.667969 0H58.668V58H0.667969V0Z" fill="white"/>
</mask>
<g mask="url(#mask0_316_982)">
<path d="M45.1683 12.0081C45.1683 18.8049 39.5813 22.6667 29.6692 31.2659C19.7571 22.6667 14.1699 18.8049 14.1699 12.0081C14.1699 8.66059 16.3325 2.94555 22.538 2.94555C26.3477 2.94555 28.4593 5.72661 29.6692 7.94013C30.8789 5.72661 32.9906 2.94555 36.8002 2.94555C43.0058 2.94555 45.1683 8.66059 45.1683 12.0081Z" stroke="white" stroke-width="2.22222" stroke-miterlimit="10" stroke-linecap="round" stroke-linejoin="round"/>
<path d="M46.2051 39.4705L52.0062 33.6682C52.6213 33.0532 53.002 32.2036 53.002 31.2655C53.002 29.7862 52.0572 28.5275 50.7363 28.0608" stroke="white" stroke-width="2.22222" stroke-miterlimit="10" stroke-linecap="round" stroke-linejoin="round"/>
<path d="M8.5957 28.0611C8.95027 27.9354 9.3309 27.8674 9.72852 27.8674C10.6665 27.8674 11.5161 28.2481 12.1312 28.8632L14.6755 31.4063C16.258 32.9889 20.0541 34.4661 22.2801 34.6892L22.3639 34.6983C25.2231 34.9849 27.4004 37.3921 27.4004 40.2661V55.0549H15.3926V48.2581L9.31277 45.2187C4.70789 42.9157 1.79883 38.2089 1.79883 33.0602V17.6721C1.79883 15.795 3.3202 14.2737 5.19727 14.2737C7.07434 14.2737 8.5957 15.795 8.5957 17.6721V28.0611Z" stroke="white" stroke-width="2.22222" stroke-miterlimit="10" stroke-linecap="round" stroke-linejoin="round"/>
<path d="M13.127 39.4705L7.32582 33.6682C6.7107 33.0532 6.33008 32.2036 6.33008 31.2655C6.33008 29.7862 7.27484 28.5275 8.5957 28.0608" stroke="white" stroke-width="2.22222" stroke-miterlimit="10" stroke-linecap="round" stroke-linejoin="round"/>
<path d="M53.793 43.5C53.793 44.1255 53.2857 44.6328 52.6602 44.6328C52.0346 44.6328 51.5273 44.1255 51.5273 43.5C51.5273 42.8745 52.0346 42.3672 52.6602 42.3672C53.2857 42.3672 53.793 42.8745 53.793 43.5Z" fill="white"/>
<path d="M55.883 39.5518C56.9466 37.5955 57.5332 35.3724 57.5332 33.0602V17.6721C57.5332 15.795 56.012 14.2737 54.1348 14.2737C52.2577 14.2737 50.7363 15.795 50.7363 17.6721V28.0611C50.3818 27.9354 50.0011 27.8674 49.6035 27.8674C48.6655 27.8674 47.8159 28.2482 47.2008 28.8633L44.6565 31.4064C43.0741 32.9889 39.2779 34.4661 37.0521 34.6892L36.9681 34.6983C34.1089 34.985 31.9316 37.3922 31.9316 40.2662V55.0549H43.9395V48.2581L48.2735 46.0914" stroke="white" stroke-width="2.22222" stroke-miterlimit="10" stroke-linecap="round" stroke-linejoin="round"/>
</g>
</svg>
