<svg width="58" height="58" viewBox="0 0 58 58" fill="none" xmlns="http://www.w3.org/2000/svg">
<path d="M32.6237 58.0002H25.3737C23.682 58.0002 21.7487 56.5502 21.7487 53.6502V48.5752C21.7487 46.1585 20.5404 43.9835 18.607 42.2918C14.257 38.9085 12.082 34.0752 12.082 28.7585C12.3237 19.5752 19.8154 12.3252 28.757 12.0835C33.3487 12.0835 37.6987 13.7752 40.8404 16.9168C43.982 20.0585 45.9154 24.4085 45.9154 29.0002C45.9154 34.0752 43.7404 38.9085 39.632 42.0502C37.457 43.7418 36.2487 46.4002 36.2487 48.8168V54.3752C36.2487 56.3085 34.557 58.0002 32.6237 58.0002ZM28.9987 14.5002C21.2654 14.5002 14.7404 21.0252 14.4987 28.7585C14.4987 33.3502 16.432 37.7002 20.057 40.3585C22.7154 42.5335 24.1654 45.4335 24.1654 48.5752V53.6502C24.1654 54.1335 24.1654 55.5835 25.3737 55.5835H32.6237C33.3487 55.5835 33.832 55.1002 33.832 54.3752V48.8168C33.832 45.6752 35.5237 42.2918 38.182 40.1168C41.5654 37.4585 43.4987 33.3502 43.4987 29.0002C43.4987 25.1335 42.0487 21.5085 39.1487 18.6085C36.4904 15.9502 32.8654 14.5002 28.9987 14.5002Z" fill="white"/>
<path d="M35.0417 50.7497H22.9583C22.2333 50.7497 21.75 50.2663 21.75 49.5413C21.75 48.8163 22.2333 48.333 22.9583 48.333H35.0417C35.7667 48.333 36.25 48.8163 36.25 49.5413C36.25 50.2663 35.7667 50.7497 35.0417 50.7497Z" fill="white"/>
<path d="M29.0013 7.25C28.2763 7.25 27.793 6.76667 27.793 6.04167V1.20833C27.793 0.483333 28.2763 0 29.0013 0C29.7263 0 30.2096 0.483333 30.2096 1.20833V6.04167C30.2096 6.76667 29.7263 7.25 29.0013 7.25Z" fill="white"/>
<path d="M45.1905 14.0168C44.9488 14.0168 44.4655 14.0168 44.2238 13.7751C43.7405 13.2918 43.7405 12.5668 44.2238 12.0835L47.6072 8.70015C48.0905 8.21681 48.8155 8.21681 49.2988 8.70015C49.7822 9.18348 49.7822 9.90848 49.2988 10.3918L45.9155 13.7751C45.9155 13.7751 45.4322 14.0168 45.1905 14.0168Z" fill="white"/>
<path d="M56.7917 30.2082H51.9583C51.2333 30.2082 50.75 29.7248 50.75 28.9998C50.75 28.2748 51.2333 27.7915 51.9583 27.7915H56.7917C57.5167 27.7915 58 28.2748 58 28.9998C58 29.7248 57.5167 30.2082 56.7917 30.2082Z" fill="white"/>
<path d="M48.5738 49.7837C48.3322 49.7837 47.8488 49.7837 47.6072 49.542L44.2238 46.1587C43.7405 45.6753 43.7405 44.9503 44.2238 44.467C44.7072 43.9837 45.4322 43.9837 45.9155 44.467L49.2988 47.8503C49.7822 48.3337 49.7822 49.0587 49.2988 49.542C49.2988 49.7837 49.0572 49.7837 48.5738 49.7837Z" fill="white"/>
<path d="M9.42487 49.7837C9.1832 49.7837 8.69987 49.7837 8.4582 49.542C7.97487 49.0587 7.97487 48.3337 8.4582 47.8503L11.8415 44.467C12.3249 43.9837 13.0499 43.9837 13.5332 44.467C14.0165 44.9503 14.0165 45.6753 13.5332 46.1587L10.1499 49.542C9.9082 49.7837 9.66654 49.7837 9.42487 49.7837Z" fill="white"/>
<path d="M6.04167 30.2082H1.20833C0.483333 30.2082 0 29.7248 0 28.9998C0 28.2748 0.483333 27.7915 1.20833 27.7915H6.04167C6.76667 27.7915 7.25 28.2748 7.25 28.9998C7.25 29.7248 6.76667 30.2082 6.04167 30.2082Z" fill="white"/>
<path d="M12.8082 14.0165C12.5665 14.0165 12.0832 14.0165 11.8415 13.7749L8.4582 10.1499C7.97487 9.66654 7.97487 8.94154 8.4582 8.4582C8.94154 7.97487 9.66654 7.97487 10.1499 8.4582L13.5332 11.8415C14.0165 12.3249 14.0165 13.0499 13.5332 13.5332C13.2915 13.7749 13.0499 14.0165 12.8082 14.0165Z" fill="white"/>
<path d="M38.668 30.2083C37.943 30.2083 37.4596 29.725 37.4596 29C37.4596 24.4083 33.593 20.5417 29.0013 20.5417C28.2763 20.5417 27.793 20.0583 27.793 19.3333C27.793 18.6083 28.2763 18.125 29.0013 18.125C35.043 18.125 39.8763 22.9583 39.8763 29C39.8763 29.725 39.393 30.2083 38.668 30.2083Z" fill="white"/>
</svg>
