<svg width="55" height="58" viewBox="0 0 55 58" fill="none" xmlns="http://www.w3.org/2000/svg">
<path d="M14.919 23.6895C14.9189 23.8306 14.9443 23.9704 14.9937 24.1008C15.043 24.2312 15.1154 24.3497 15.2066 24.4495C15.2978 24.5493 15.4061 24.6284 15.5252 24.6824C15.6444 24.7364 15.7722 24.7642 15.9011 24.7642H21.6493C21.7783 24.7642 21.906 24.7364 22.0252 24.6824C22.1444 24.6284 22.2526 24.5493 22.3439 24.4495C22.4351 24.3497 22.5074 24.2312 22.5568 24.1008C22.6061 23.9704 22.6315 23.8306 22.6314 23.6895V18.379C23.9173 18.1267 25.0812 17.3877 25.9195 16.2914C26.7578 15.195 27.2171 13.811 27.2171 12.3816C27.2171 10.9521 26.7578 9.56812 25.9195 8.47176C25.0812 7.37539 23.9173 6.63643 22.6314 6.38414V1.0747C22.6315 0.933554 22.6061 0.793788 22.5568 0.663382C22.5074 0.532977 22.4351 0.414488 22.3439 0.314686C22.2526 0.214884 22.1444 0.135724 22.0252 0.0817289C21.906 0.0277339 21.7783 -3.80845e-05 21.6493 3.91972e-08H4.32238C3.17645 0.00126017 2.07778 0.499886 1.26744 1.38647C0.457105 2.27305 0.00128447 3.47517 3.58222e-08 4.72906V23.6895C-3.48054e-05 23.8306 0.0253459 23.9704 0.0746919 24.1008C0.124038 24.2312 0.196382 24.3497 0.287591 24.4495C0.3788 24.5493 0.487087 24.6284 0.606264 24.6824C0.725441 24.7364 0.853173 24.7642 0.982162 24.7642H6.7303C6.85929 24.7642 6.98703 24.7364 7.1062 24.6824C7.22538 24.6284 7.33367 24.5493 7.42487 24.4495C7.51608 24.3497 7.58843 24.2312 7.63777 24.1008C7.68712 23.9704 7.7125 23.8306 7.71247 23.6895C7.72286 22.6513 8.10706 21.6595 8.78167 20.9293C9.45629 20.1992 10.3669 19.7897 11.3157 19.7897C12.2646 19.7897 13.1752 20.1992 13.8498 20.9293C14.5244 21.6595 14.9086 22.6513 14.919 23.6895ZM5.83497 22.6148H1.96432V4.72906C1.96517 4.04508 2.2139 3.38939 2.65595 2.90579C3.098 2.4222 3.69729 2.15018 4.32238 2.14939H20.6671V7.36438C20.6671 7.50553 20.6925 7.64529 20.7418 7.7757C20.7912 7.9061 20.8635 8.02459 20.9547 8.12439C21.0459 8.2242 21.1542 8.30335 21.2734 8.35735C21.3926 8.41134 21.5203 8.43912 21.6493 8.43908C22.5979 8.45072 23.504 8.87122 24.171 9.60932C24.8381 10.3474 25.2121 11.3436 25.2121 12.3816C25.2121 13.4196 24.838 14.4158 24.171 15.1539C23.5039 15.892 22.5978 16.3124 21.6492 16.324C21.5202 16.324 21.3925 16.3518 21.2733 16.4058C21.1541 16.4598 21.0459 16.539 20.9547 16.6388C20.8635 16.7386 20.7911 16.857 20.7418 16.9874C20.6925 17.1178 20.6671 17.2576 20.6671 17.3987V22.6148H16.7965C16.5568 21.216 15.8777 19.953 14.8769 19.0441C13.876 18.1353 12.6163 17.6378 11.3157 17.6378C10.0151 17.6378 8.75542 18.1353 7.75457 19.0441C6.75372 19.953 6.07471 21.216 5.83497 22.6148Z" fill="white"/>
<path d="M50.6778 11.3074H33.3509C33.222 11.3073 33.0942 11.3351 32.975 11.3891C32.8559 11.4431 32.7476 11.5223 32.6564 11.6221C32.5652 11.7219 32.4928 11.8404 32.4435 11.9708C32.3941 12.1012 32.3687 12.2409 32.3688 12.3821V18.6718C32.3687 18.8129 32.3941 18.9527 32.4435 19.0831C32.4928 19.2135 32.5652 19.332 32.6564 19.4318C32.7476 19.5316 32.8559 19.6107 32.975 19.6647C33.0942 19.7187 33.222 19.7465 33.3509 19.7465C34.2996 19.758 35.2058 20.1784 35.873 20.9165C36.5401 21.6547 36.9142 22.6509 36.9142 23.689C36.9142 24.7271 36.54 25.7233 35.8729 26.4614C35.2057 27.1995 34.2995 27.6199 33.3508 27.6314C33.2219 27.6314 33.0941 27.6592 32.975 27.7132C32.8558 27.7672 32.7475 27.8463 32.6563 27.9461C32.5651 28.0459 32.4928 28.1644 32.4435 28.2948C32.3941 28.4252 32.3687 28.565 32.3688 28.7061V33.2358H28.4977C28.267 31.829 27.5917 30.5557 26.5898 29.6387C25.5879 28.7216 24.3233 28.2192 23.0171 28.2192C21.7109 28.2192 20.4463 28.7216 19.4445 29.6387C18.4426 30.5557 17.7673 31.829 17.5366 33.2358H12.6833C12.5543 33.2357 12.4266 33.2635 12.3074 33.3175C12.1883 33.3715 12.08 33.4507 11.9888 33.5505C11.8976 33.6503 11.8252 33.7688 11.7759 33.8992C11.7265 34.0296 11.7011 34.1693 11.7012 34.3105V53.2709C11.7025 54.5248 12.1583 55.7269 12.9686 56.6135C13.7789 57.5001 14.8776 57.9987 16.0235 58H50.6778C51.8238 57.9987 52.9225 57.5001 53.7328 56.6135C54.5431 55.7269 54.9989 54.5248 55.0002 53.2709V16.0365C54.9989 14.7826 54.5431 13.5804 53.7328 12.6938C52.9225 11.8073 51.8238 11.3086 50.6778 11.3074ZM38.9183 23.6895C38.9168 22.2605 38.457 20.8774 37.619 19.7813C36.7811 18.6852 35.6183 17.9457 34.3331 17.6916V13.4568H50.6779C51.303 13.4576 51.9022 13.7296 52.3443 14.2132C52.7863 14.6968 53.0351 15.3525 53.0359 16.0365V33.2358H48.2699C48.1409 33.2357 48.0132 33.2635 47.894 33.3175C47.7748 33.3715 47.6666 33.4507 47.5753 33.5505C47.4841 33.6503 47.4118 33.7688 47.3624 33.8992C47.3131 34.0296 47.2877 34.1693 47.2878 34.3105C47.2771 35.3485 46.8928 36.3401 46.2182 37.07C45.5436 37.7999 44.6332 38.2093 43.6844 38.2092C42.7357 38.2092 41.8253 37.7998 41.1507 37.0699C40.4761 36.34 40.0919 35.3484 40.0812 34.3104C40.0813 34.1692 40.0559 34.0295 40.0065 33.8991C39.9572 33.7687 39.8848 33.6502 39.7936 33.5504C39.7024 33.4506 39.5941 33.3715 39.475 33.3175C39.3558 33.2635 39.2281 33.2357 39.0991 33.2358H34.3331V29.6863C35.6181 29.4323 36.7809 28.6929 37.6188 27.597C38.4567 26.5012 38.9166 25.1183 38.9183 23.6895ZM13.6655 53.2709V35.3852H18.4319C18.5609 35.3852 18.6886 35.3574 18.8078 35.3034C18.927 35.2494 19.0353 35.1703 19.1265 35.0705C19.2177 34.9707 19.2901 34.8522 19.3394 34.7218C19.3887 34.5914 19.4141 34.4516 19.4141 34.3105C19.4157 33.266 19.796 32.2649 20.4715 31.5269C21.147 30.789 22.0626 30.3745 23.0171 30.3745C23.9717 30.3745 24.8872 30.789 25.5627 31.5269C26.2382 32.2649 26.6185 33.266 26.6201 34.3105C26.6201 34.4516 26.6455 34.5914 26.6948 34.7218C26.7442 34.8522 26.8165 34.9707 26.9077 35.0705C26.9989 35.1703 27.1072 35.2494 27.2264 35.3034C27.3456 35.3574 27.4733 35.3852 27.6023 35.3852H32.3687V39.621C31.0828 39.8733 29.919 40.6122 29.0807 41.7086C28.2424 42.805 27.7831 44.1889 27.7831 45.6184C27.7831 47.0479 28.2424 48.4318 29.0807 49.5282C29.919 50.6246 31.0828 51.3635 32.3687 51.6158V55.8506H16.0235C15.3985 55.8498 14.7992 55.5778 14.3571 55.0942C13.9151 54.6106 13.6663 53.9549 13.6655 53.2709ZM50.6778 55.8506H34.3331V50.6356C34.3331 50.4944 34.3078 50.3547 34.2584 50.2243C34.2091 50.0938 34.1367 49.9754 34.0455 49.8756C33.9543 49.7758 33.846 49.6966 33.7268 49.6426C33.6077 49.5886 33.4799 49.5608 33.3509 49.5609C32.3954 49.5609 31.4789 49.1455 30.8032 48.4061C30.1275 47.6668 29.7479 46.664 29.7479 45.6184C29.7479 44.5728 30.1275 43.57 30.8032 42.8306C31.4789 42.0913 32.3954 41.6759 33.3509 41.6759C33.4799 41.676 33.6077 41.6482 33.7268 41.5942C33.846 41.5402 33.9543 41.461 34.0455 41.3612C34.1367 41.2614 34.2091 41.1429 34.2584 41.0125C34.3078 40.8821 34.3331 40.7424 34.3331 40.6012V36.0705H38.2037C38.4342 37.4775 39.1095 38.751 40.1114 39.6683C41.1134 40.5856 42.3781 41.0882 43.6845 41.0882C44.9909 41.0882 46.2556 40.5856 47.2576 39.6683C48.2595 38.751 48.9348 37.4775 49.1653 36.0705H53.0359V53.2709C53.035 53.9549 52.7863 54.6106 52.3443 55.0942C51.9022 55.5778 51.3029 55.8498 50.6778 55.8506Z" fill="white"/>
</svg>
