<svg width="58" height="58" viewBox="0 0 58 58" fill="none" xmlns="http://www.w3.org/2000/svg">
<mask id="mask0_316_1176" style="mask-type:luminance" maskUnits="userSpaceOnUse" x="0" y="0" width="58" height="58">
<path d="M0 0H58V58H0V0Z" fill="white"/>
</mask>
<g mask="url(#mask0_316_1176)">
<path d="M6.69164 32.2716L1.13281 29.0622L7.00248 13.5048L12.471 14.9472L22.7164 11.8994C24.1194 11.482 25.2795 11.3625 26.6239 12.1387L28.8652 13.4327M43.875 27.8194C46.1933 29.2213 48.0212 30.3225 48.4977 30.5976C49.8287 31.366 50.2887 33.0835 49.5204 34.4144C48.7521 35.7452 47.0346 36.2055 45.7037 35.4371L43.2741 34.0343C44.6042 34.803 45.0638 36.52 44.2957 37.8507C43.5273 39.1815 41.8098 39.6418 40.479 38.8733L38.8805 37.9505C40.2109 38.7191 40.6706 40.4361 39.9024 41.7668C39.1341 43.0976 37.4166 43.5579 36.0856 42.7895L33.3629 41.2176C34.6933 41.9861 35.1533 43.7034 34.3851 45.0341C33.6167 46.3649 31.8992 46.8252 30.5682 46.0568L26.5467 43.735M49.8492 31.9128L56.8672 29.2832L51.4176 13.7567L45.4659 14.9472L35.2204 11.8994C33.8174 11.482 32.6574 11.3625 31.313 12.1387L23.3006 16.7645C21.9561 17.5408 21.4914 19.2762 22.2675 20.6206C23.0437 21.965 24.7315 22.3413 26.1235 21.6538C27.3515 21.0472 29.2564 20.1938 30.5386 19.7469C30.55 19.7469 32.5195 20.9397 35.1537 22.5362" stroke="white" stroke-miterlimit="2.613" stroke-linecap="round" stroke-linejoin="round"/>
<path d="M19.2937 33.4322C19.1541 33.6742 19.0143 33.9161 18.8746 34.1581C19.643 32.8273 21.3604 32.367 22.6914 33.1354C24.0223 33.9038 24.4826 35.6213 23.7141 36.9522C23.5212 37.2864 23.3283 37.6205 23.1353 37.9547C23.9037 36.6238 25.6212 36.1636 26.9521 36.932C28.2831 37.7004 28.7432 39.4179 27.9749 40.7488L26.3932 43.4884C25.6248 44.8193 23.9074 45.2795 22.5764 44.5111C21.2455 43.7427 20.7852 42.0251 21.5536 40.6943C21.3607 41.0285 21.1678 41.3627 20.9748 41.6968C20.2066 43.0277 18.489 43.4878 17.1581 42.7194C15.8272 41.9511 15.3671 40.2337 16.1352 38.9029C15.9956 39.1447 15.8559 39.3867 15.7162 39.6286C14.9478 40.9595 13.2304 41.4197 11.8995 40.6514L11.8994 40.6513C10.5686 39.8829 10.1083 38.1654 10.8767 36.8345C11.0742 36.4924 11.2717 36.1504 11.4693 35.8083C10.6998 37.1361 8.98436 37.5948 7.65467 36.8271C6.32384 36.0587 5.86346 34.3412 6.63208 33.0103C7.15917 32.0972 7.68638 31.1839 8.2136 30.2707C8.9821 28.9398 10.6996 28.4795 12.0305 29.248C13.3604 30.0159 13.8208 31.7314 13.0549 33.0619C13.5213 32.254 13.9878 31.446 14.4541 30.638C15.2226 29.3072 16.9401 28.847 18.2709 29.6154L18.271 29.6155C19.602 30.3838 20.0621 32.1012 19.2937 33.4322Z" stroke="white" stroke-miterlimit="2.613" stroke-linecap="round" stroke-linejoin="round"/>
<path d="M13.0563 33.0613L11.4707 35.8076" stroke="white" stroke-miterlimit="2.613" stroke-linecap="round" stroke-linejoin="round"/>
<path d="M18.878 34.1576L16.1387 38.9023" stroke="white" stroke-miterlimit="2.613" stroke-linecap="round" stroke-linejoin="round"/>
<path d="M23.1403 37.9545L21.5586 40.6941" stroke="white" stroke-miterlimit="2.613" stroke-linecap="round" stroke-linejoin="round"/>
<path d="M43.273 34.0339L34.2578 28.8291" stroke="white" stroke-miterlimit="2.613" stroke-linecap="round" stroke-linejoin="round"/>
<path d="M38.8791 37.9502L30.9648 33.3809" stroke="white" stroke-miterlimit="2.613" stroke-linecap="round" stroke-linejoin="round"/>
<path d="M33.3633 41.2175L28.123 38.192" stroke="white" stroke-miterlimit="2.613" stroke-linecap="round" stroke-linejoin="round"/>
<path d="M39.5137 25.179H39.5141" stroke="white" stroke-miterlimit="2.613" stroke-linecap="round" stroke-linejoin="round"/>
</g>
</svg>
