<svg width="51" height="47" viewBox="0 0 51 47" fill="none" xmlns="http://www.w3.org/2000/svg">
<path d="M28.2747 0C20.5924 0 13.7932 3.77582 9.67759 9.53779C10.5293 10.0849 11.3596 10.8351 12.1626 11.7995C15.2329 7.27957 20.1973 4.10835 25.9413 3.42663L28.2743 7.3137L30.6074 3.42655C39.4368 4.47419 46.4549 11.3836 47.5195 20.0764L43.5708 22.3737L47.5196 24.6712C46.8079 30.4829 43.4273 35.4865 38.6312 38.4853C38.9367 39.171 39.1088 39.8721 39.1392 40.5949C39.1616 41.1231 39.1063 41.6222 38.995 42.096C46.1341 38.3193 51 30.8967 51 22.3741C51 10.0367 40.8058 0 28.2747 0ZM34.0739 36.848C28.8352 32.7028 27.3703 34.7404 24.9933 37.0804C23.3338 38.7148 19.1343 35.3018 15.5082 31.7316C11.8818 28.1609 8.41593 24.0269 10.0753 22.3928C12.4524 20.0528 14.5214 18.6097 10.31 13.4533C6.10001 8.29504 3.29351 12.2552 0.990928 14.5224C-1.6674 17.1387 0.850846 26.8888 10.6383 36.5265C20.4272 46.1629 30.3302 48.6406 32.9869 46.0252C35.2893 43.758 39.3128 40.9952 34.0739 36.848ZM18.1188 25.8756C18.1188 21.2909 23.5705 20.4741 23.5705 18.685C23.5705 17.8169 22.8647 17.4525 22.2118 17.4525C21.0121 17.4525 20.3423 18.772 20.3423 18.772L18.0489 17.2611C18.0489 17.2611 19.2133 14.5865 22.4944 14.5865C24.5583 14.5865 26.7986 15.7503 26.7986 18.3901C26.7986 22.2633 21.7179 23.0104 21.6296 24.6082H26.9929V27.2133H18.2603C18.1718 26.7271 18.1188 26.2931 18.1188 25.8756ZM28.2826 22.3677L33.1521 14.7945H36.9272V21.6902H38.4264V24.2083H36.9272V27.2134H33.8748V24.2083H28.2827V22.3677H28.2826ZM33.8748 21.6901V18.9112C33.8748 18.2336 33.9808 17.5213 33.9808 17.5213H33.9454C33.9454 17.5213 33.6812 18.2858 33.3279 18.8069L31.4232 21.6555V21.6903L33.8748 21.6901Z" fill="#307BC4"/>
</svg>
