<svg width="58" height="58" viewBox="0 0 58 58" fill="none" xmlns="http://www.w3.org/2000/svg">
<mask id="mask0_316_1200" style="mask-type:luminance" maskUnits="userSpaceOnUse" x="0" y="0" width="58" height="58">
<path d="M0 0H58V58H0V0Z" fill="white"/>
</mask>
<g mask="url(#mask0_316_1200)">
<path d="M24.4683 42.0278L20.7632 35.6104C20.5555 35.2505 20.6779 34.7895 21.0377 34.5815C22.3834 33.8035 24.1049 34.2643 24.882 35.6103L25.481 36.6478V26.8341C25.481 25.8492 26.2795 25.0507 27.2646 25.0507C28.2496 25.0507 29.0481 25.8492 29.0481 26.8341V25.682C29.0481 24.7149 29.8 23.8913 30.7664 23.8569C31.7811 23.8208 32.6151 24.6327 32.6151 25.6393V26.8341C32.6151 25.8492 33.4135 25.0507 34.3986 25.0507C35.3836 25.0507 36.1821 25.8492 36.1821 26.8341V29.217C36.1821 28.232 36.9806 27.4335 37.9656 27.4335C38.9506 27.4335 39.7491 28.232 39.7491 29.217V41.8748C39.7491 43.5231 39.19 45.0409 38.2512 46.2489C37.6678 46.9995 37.3575 47.9261 37.3574 48.8768L37.357 54.0714C37.357 54.2957 37.1751 54.4775 36.9509 54.4775H28.2792C28.0549 54.4775 27.873 54.2957 27.873 54.0714L27.8727 48.8758C27.8726 47.9304 27.5696 47.0054 26.9881 46.2602C26.8165 46.0405 26.6577 45.8105 26.5125 45.5713" stroke="white" stroke-width="0.8" stroke-miterlimit="10" stroke-linecap="round" stroke-linejoin="round"/>
<path d="M36.1816 34.8286V29.2167" stroke="white" stroke-width="0.8" stroke-miterlimit="10" stroke-linecap="round" stroke-linejoin="round"/>
<path d="M32.6152 34.8286V26.8339" stroke="white" stroke-width="0.8" stroke-miterlimit="10" stroke-linecap="round" stroke-linejoin="round"/>
<path d="M29.0469 34.8286V26.8339" stroke="white" stroke-width="0.8" stroke-miterlimit="10" stroke-linecap="round" stroke-linejoin="round"/>
<path d="M36.1295 14.2165L31.2695 17.0225" stroke="white" stroke-width="0.8" stroke-miterlimit="10" stroke-linecap="round" stroke-linejoin="round"/>
<path d="M37.91 17.3068L30.9863 21.3042" stroke="white" stroke-width="0.8" stroke-miterlimit="10" stroke-linecap="round" stroke-linejoin="round"/>
<path d="M39.6971 20.3952L32.7734 24.3926" stroke="white" stroke-width="0.8" stroke-miterlimit="10" stroke-linecap="round" stroke-linejoin="round"/>
<path d="M18.3047 24.5693L23.1647 27.3752" stroke="white" stroke-width="0.8" stroke-miterlimit="10" stroke-linecap="round" stroke-linejoin="round"/>
<path d="M20.0898 21.4792L26.5402 25.2034" stroke="white" stroke-width="0.8" stroke-miterlimit="10" stroke-linecap="round" stroke-linejoin="round"/>
<path d="M21.873 18.3899L28.7967 22.3872" stroke="white" stroke-width="0.8" stroke-miterlimit="10" stroke-linecap="round" stroke-linejoin="round"/>
<path d="M49.4825 18.57L50.0782 17.5381C50.2906 17.1944 50.4726 16.8345 50.623 16.4626C50.9777 15.5864 51.6274 14.8615 52.4458 14.3888L56.9454 11.7907C57.1396 11.6785 57.2061 11.4301 57.0939 11.2357L52.7581 3.72585C52.646 3.53168 52.3976 3.46507 52.2033 3.57722L47.7045 6.17431C46.8811 6.64952 45.9234 6.84402 44.9817 6.71409C43.4662 6.50509 41.8721 6.77979 40.4447 7.60403L29.4827 13.9328C28.6297 14.4254 28.3374 15.5162 28.83 16.3692C29.3224 17.2223 30.4132 17.5146 31.2662 17.022L29.2027 18.2135C28.3495 18.7059 28.0573 19.7967 28.5498 20.6497C29.0424 21.5028 30.133 21.795 30.9862 21.3026L29.9513 21.9C29.0796 22.4033 28.7935 23.5314 29.332 24.3921C29.3647 24.4442 29.3998 24.494 29.4368 24.5415" stroke="white" stroke-width="0.8" stroke-miterlimit="10" stroke-linecap="round" stroke-linejoin="round"/>
<path d="M36.1582 26.5545L43.0525 22.574L42.4535 23.6115C41.6765 24.9574 42.1381 26.6787 43.4848 27.4552C43.8448 27.6627 44.3052 27.5383 44.513 27.1784L47.4668 22.0622" stroke="white" stroke-width="0.8" stroke-miterlimit="10" stroke-linecap="round" stroke-linejoin="round"/>
<path d="M15.7354 10.8248H14.2058C13.802 10.8128 13.3992 10.8351 13.0019 10.8907C12.0658 11.0218 11.1132 10.8216 10.2945 10.3491L5.79476 7.75147C5.60049 7.63932 5.35206 7.70593 5.23991 7.90021L0.904072 15.4101C0.791924 15.6044 0.858534 15.8528 1.05281 15.9649L5.55132 18.5625C6.37454 19.0378 7.02194 19.77 7.38025 20.6506C7.95696 22.0676 8.9919 23.3107 10.4194 24.1348L21.3814 30.4637C22.2344 30.9561 23.3251 30.6639 23.8177 29.8108C24.3101 28.9578 24.0179 27.867 23.1649 27.3745L25.2284 28.566C25.3104 28.6132 25.3946 28.6533 25.4801 28.6863" stroke="white" stroke-width="0.8" stroke-miterlimit="10" stroke-linecap="round" stroke-linejoin="round"/>
<path d="M28.9754 18.3711L22.0811 14.3906H23.279C24.8333 14.3906 26.0931 13.1301 26.0922 11.5758C26.0919 11.1602 25.7539 10.8236 25.3384 10.8236H19.7012" stroke="white" stroke-width="0.8" stroke-miterlimit="10" stroke-linecap="round" stroke-linejoin="round"/>
</g>
</svg>
