<svg width="258" height="57" viewBox="0 0 258 57" fill="none" xmlns="http://www.w3.org/2000/svg">
<path d="M26.788 0.000396068C26.6496 0.00757644 26.5143 0.042798 26.3913 0.106344C26.3913 0.106344 15.0143 5.73336 0.827033 7.60905C0.35038 7.67439 -0.00350902 8.08001 2.62539e-05 8.55711V28.4977C2.62539e-05 40.7135 6.74483 47.9596 13.3949 51.9893C20.045 56.019 26.6813 56.9892 26.6813 56.9892C26.7756 57.0036 26.8714 57.0036 26.9657 56.9892C26.9657 56.9892 33.602 56.019 40.2521 51.9893C46.9022 47.9596 53.647 40.7135 53.647 28.4977V8.55711C53.651 8.08001 53.2967 7.67432 52.82 7.60905C38.6327 5.73336 27.2557 0.106344 27.2557 0.106344C27.1114 0.0323864 26.9504 -0.00427117 26.788 0.000396068ZM26.8235 11.403C36.3355 11.403 44.0634 19.0656 44.0634 28.4975C44.0634 37.9293 36.3355 45.6014 26.8235 45.6014C17.3114 45.6014 9.58353 37.9293 9.58353 28.4975C9.58353 19.0656 17.3114 11.403 26.8235 11.403ZM22.9897 19.9503V24.7054H18.2035C17.6744 24.7035 17.2439 25.127 17.2418 25.6516V31.3528C17.2437 31.8774 17.6744 32.301 18.2035 32.299H22.9897V37.0541C22.9916 37.5794 23.4235 38.0033 23.9533 38.0003H29.6937C30.2227 38.0022 30.6533 37.5787 30.6554 37.0541V32.299H35.4434C35.9725 32.3009 36.403 31.8774 36.4051 31.3528V25.6516C36.4032 25.127 35.9725 24.7034 35.4434 24.7054H30.6554V19.9503C30.6535 19.4257 30.2227 19.0021 29.6937 19.0041H23.9037C23.3633 19.0519 22.9893 19.4613 22.9897 19.9503Z" fill="white"/>
<path d="M84.0784 32.6888V29.5907H90.9184C92.3937 29.5907 93.6007 29.0542 94.5396 27.9813C95.5052 26.8815 95.988 25.4867 95.988 23.7968C95.988 22.6434 95.7332 21.6241 95.2236 20.7389C94.7139 19.8538 94.0031 19.1698 93.0911 18.6869C92.2059 18.1773 91.1732 17.9359 89.993 17.9627H84.0784V14.8646L90.0332 14.8244C91.8572 14.8244 93.4666 15.2133 94.8614 15.9912C96.2831 16.7422 97.3829 17.7884 98.1607 19.1295C98.9654 20.4707 99.3678 22.0265 99.3678 23.7968C99.3678 25.5135 99.0057 27.0425 98.2814 28.3837C97.5572 29.7248 96.5647 30.7844 95.304 31.5622C94.0433 32.3133 92.5814 32.6888 90.9184 32.6888H84.0784ZM80.8596 43.0293V14.8646H84.2796V43.0293H80.8596ZM104.848 32.1255C104.848 29.9528 105.263 28.1959 106.095 26.8547C106.926 25.4867 107.986 24.4808 109.274 23.8371C110.588 23.1665 111.969 22.8312 113.418 22.8312V25.8488C112.238 25.8488 111.098 26.05 109.998 26.4524C108.925 26.8279 108.04 27.4582 107.342 28.3434C106.645 29.2286 106.296 30.4357 106.296 31.9646L104.848 32.1255ZM103.077 43.0293V22.9117H106.296V43.0293H103.077ZM125.564 43.5121C123.606 43.5121 121.863 43.0695 120.334 42.1844C118.832 41.2724 117.651 40.0251 116.793 38.4425C115.935 36.8599 115.506 35.0359 115.506 32.9705C115.506 30.9051 115.921 29.0811 116.753 27.4985C117.611 25.9159 118.791 24.682 120.294 23.7968C121.823 22.8848 123.553 22.4288 125.484 22.4288C127.469 22.4288 129.212 22.8848 130.715 23.7968C132.243 24.682 133.424 25.9159 134.255 27.4985C135.114 29.0811 135.543 30.9051 135.543 32.9705C135.543 35.0359 135.114 36.8599 134.255 38.4425C133.424 40.0251 132.257 41.2724 130.755 42.1844C129.253 43.0695 127.523 43.5121 125.564 43.5121ZM125.564 40.5347C126.906 40.5347 128.072 40.2128 129.065 39.5691C130.057 38.9253 130.835 38.0401 131.399 36.9135C131.989 35.7869 132.284 34.4726 132.284 32.9705C132.284 31.4684 131.989 30.154 131.399 29.0274C130.835 27.9008 130.044 27.0157 129.025 26.3719C128.005 25.7281 126.825 25.4062 125.484 25.4062C124.17 25.4062 123.003 25.7281 121.983 26.3719C120.991 27.0157 120.2 27.9008 119.61 29.0274C119.046 30.154 118.765 31.4684 118.765 32.9705C118.765 34.4458 119.046 35.7601 119.61 36.9135C120.2 38.0401 121.004 38.9253 122.024 39.5691C123.07 40.2128 124.25 40.5347 125.564 40.5347ZM160.291 43.0293V14.8646H163.67V43.0293H160.291ZM140.937 43.0293V14.8646H144.357V43.0293H140.937ZM143.955 30.0735V26.9754H161.015V30.0735H143.955ZM179.039 43.5121C177.081 43.5121 175.351 43.0695 173.849 42.1844C172.347 41.2724 171.167 40.0251 170.308 38.4425C169.477 36.8599 169.061 35.0359 169.061 32.9705C169.061 30.9051 169.477 29.0811 170.308 27.4985C171.167 25.9159 172.333 24.682 173.809 23.7968C175.311 22.8848 177.028 22.4288 178.959 22.4288C180.81 22.4288 182.419 22.8982 183.787 23.8371C185.182 24.7491 186.255 26.0366 187.006 27.6997C187.757 29.3627 188.132 31.3208 188.132 33.574H184.914C184.914 31.8573 184.686 30.3954 184.23 29.1884C183.774 27.9545 183.09 27.0022 182.178 26.3317C181.292 25.6611 180.206 25.3258 178.919 25.3258C177.604 25.3258 176.437 25.6477 175.418 26.2914C174.426 26.9084 173.661 27.7935 173.125 28.9469C172.588 30.1004 172.32 31.4549 172.32 33.0107C172.32 34.5397 172.615 35.8674 173.205 36.994C173.795 38.0938 174.613 38.9655 175.66 39.6093C176.706 40.2262 177.886 40.5347 179.2 40.5347C180.595 40.5347 181.775 40.1994 182.741 39.5288C183.707 38.8582 184.471 37.9865 185.034 36.9135L187.851 38.3218C187.341 39.3679 186.657 40.2799 185.799 41.0578C184.967 41.8356 183.975 42.4392 182.821 42.8684C181.695 43.2975 180.434 43.5121 179.039 43.5121ZM171.193 33.574L171.234 30.7978H186.161V33.574H171.193ZM204.585 43.0293L204.383 39.73V32.4072C204.383 30.8246 204.196 29.5237 203.82 28.5044C203.471 27.4582 202.922 26.6804 202.171 26.1707C201.446 25.6342 200.481 25.366 199.274 25.366C198.12 25.366 197.114 25.594 196.256 26.05C195.424 26.506 194.74 27.2168 194.204 28.1825L191.307 27.0156C191.843 26.0768 192.487 25.2587 193.238 24.5613C193.989 23.8639 194.861 23.3408 195.854 22.9921C196.873 22.6166 198.026 22.4288 199.314 22.4288C201.165 22.4288 202.707 22.7909 203.941 23.5152C205.175 24.2394 206.1 25.3258 206.717 26.7742C207.334 28.1959 207.629 29.9797 207.602 32.1255L207.562 43.0293H204.585ZM198.549 43.5121C196.189 43.5121 194.338 42.9756 192.997 41.9027C191.683 40.8029 191.025 39.2874 191.025 37.3561C191.025 35.3175 191.696 33.7618 193.037 32.6888C194.405 31.5891 196.31 31.0392 198.751 31.0392H204.504V33.7349H199.475C197.597 33.7349 196.256 34.0434 195.451 34.6604C194.673 35.2773 194.284 36.1625 194.284 37.3159C194.284 38.362 194.673 39.1935 195.451 39.8105C196.229 40.4006 197.315 40.6956 198.71 40.6956C199.864 40.6956 200.87 40.4274 201.728 39.8909C202.586 39.3545 203.243 38.6302 203.699 37.7182C204.155 36.7794 204.383 35.7199 204.383 34.5397H206.355C206.355 37.2757 205.684 39.4618 204.343 41.098C203.002 42.7074 201.071 43.5121 198.549 43.5121ZM212.703 43.0293V14.8646H215.922V43.0293H212.703ZM229.108 43.5121C227.15 43.5121 225.634 43.0025 224.561 41.9832C223.488 40.9639 222.952 39.5288 222.952 37.678V16.6349H226.171V37.3561C226.171 38.3754 226.439 39.1667 226.975 39.73C227.539 40.2665 228.316 40.5347 229.309 40.5347C229.631 40.5347 229.939 40.4945 230.234 40.414C230.556 40.3067 230.972 40.0653 231.482 39.6898L232.729 42.3051C232.032 42.7611 231.401 43.0695 230.838 43.2305C230.275 43.4182 229.698 43.5121 229.108 43.5121ZM219.451 25.7684V22.9117H232.206V25.7684H219.451ZM236.75 43.0293V14.3415H239.968V43.0293H236.75ZM250.912 43.0293V32.7291L254.131 31.522V43.0293H250.912ZM250.912 32.7291C250.912 30.7441 250.671 29.2286 250.188 28.1825C249.732 27.1364 249.102 26.4255 248.297 26.05C247.492 25.6477 246.58 25.4465 245.561 25.4465C243.791 25.4465 242.409 26.0768 241.417 27.3375C240.451 28.5714 239.968 30.3284 239.968 32.6084H238.399C238.399 30.4893 238.708 28.6653 239.325 27.1364C239.942 25.6074 240.84 24.4406 242.02 23.6359C243.201 22.8312 244.622 22.4288 246.285 22.4288C248.7 22.4288 250.617 23.1799 252.039 24.682C253.461 26.1841 254.158 28.4641 254.131 31.522L250.912 32.7291Z" fill="white"/>
</svg>
