<svg width="49" height="51" viewBox="0 0 49 51" fill="none" xmlns="http://www.w3.org/2000/svg">
<path d="M24.0617 0.000353486C23.9382 0.00676188 23.8175 0.0381966 23.7077 0.0949109C23.7077 0.0949109 13.5539 5.11695 0.891925 6.79099C0.466518 6.8493 0.150677 7.21131 0.153832 7.63711V25.4339C0.153832 36.3363 6.17349 42.8034 12.1086 46.3998C18.0437 49.9962 23.9666 50.8622 23.9666 50.8622C24.0507 50.875 24.1362 50.875 24.2204 50.8622C24.2204 50.8622 30.1432 49.9962 36.0783 46.3998C42.0135 42.8034 48.0331 36.3363 48.0331 25.4339V7.63711C48.0367 7.21131 47.7204 6.84924 47.295 6.79099C34.633 5.11695 24.4792 0.0949109 24.4792 0.0949109C24.3504 0.0289045 24.2067 -0.00381197 24.0617 0.000353486ZM24.0934 10.1771C32.5828 10.1771 39.4798 17.0159 39.4798 25.4337C39.4798 33.8515 32.5828 40.6987 24.0934 40.6987C15.604 40.6987 8.70699 33.8515 8.70699 25.4337C8.70699 17.0159 15.604 10.1771 24.0934 10.1771ZM20.6718 17.8054V22.0492H16.4002C15.928 22.0476 15.5438 22.4255 15.5419 22.8937V27.982C15.5436 28.4502 15.928 28.8283 16.4002 28.8265H20.6718V33.0703C20.6735 33.5392 21.059 33.9175 21.5318 33.9148H26.655C27.1272 33.9165 27.5115 33.5385 27.5134 33.0703V28.8265H31.7866C32.2588 28.8282 32.6431 28.4502 32.645 27.982V22.8937C32.6432 22.4255 32.2588 22.0475 31.7866 22.0492H27.5134V17.8054C27.5116 17.3372 27.1272 16.9592 26.655 16.9609H21.4875C21.0053 17.0036 20.6714 17.369 20.6718 17.8054Z" fill="white"/>
</svg>
