<svg width="33" height="33" viewBox="0 0 33 33" fill="none" xmlns="http://www.w3.org/2000/svg">
  <path d="M16.4991 0.000126987C13.9681 -0.00987645 11.4699 0.571268 9.20324 1.69727C9.05295 1.75791 8.91678 1.84889 8.80325 1.96452C8.68971 2.08016 8.60124 2.21797 8.54336 2.36933C8.48549 2.5207 8.45946 2.68238 8.46689 2.84426C8.47432 3.00614 8.51506 3.16475 8.58656 3.31018C8.65806 3.4556 8.75879 3.58473 8.88244 3.68947C9.0061 3.79422 9.15003 3.87234 9.30524 3.91896C9.46046 3.96558 9.62361 3.97969 9.78453 3.9604C9.94544 3.94112 10.1006 3.88887 10.2404 3.8069C12.3976 2.74255 14.7906 2.24592 17.1932 2.36396C19.5957 2.48199 21.9285 3.2108 23.9709 4.48148C26.0133 5.75215 27.6979 7.5227 28.8654 9.62573C30.0328 11.7288 30.6446 14.0948 30.6428 16.5001C30.6428 22.2515 27.5548 28.6629 22.3923 29.4643C21.8441 29.5953 21.2737 29.6041 20.7217 29.4901C20.1697 29.376 19.6496 29.1419 19.1982 28.8044C18.1725 27.671 17.6273 26.1835 17.6777 24.6558C19.6397 24.3726 21.4341 23.3926 22.7327 21.895C24.0313 20.3973 24.7473 18.4823 24.7496 16.5001V9.42868C24.7496 9.1161 24.6254 8.81633 24.4044 8.5953C24.1833 8.37428 23.8835 8.25011 23.5709 8.25011H20.035C19.7224 8.25011 19.4226 8.37428 19.2016 8.5953C18.9805 8.81633 18.8564 9.1161 18.8564 9.42868C18.8564 9.74125 18.9805 10.041 19.2016 10.2621C19.4226 10.4831 19.7224 10.6072 20.035 10.6072H22.3923V16.5001C22.3923 18.063 21.7714 19.5618 20.6662 20.667C19.561 21.7721 18.062 22.3929 16.4991 22.3929C14.9361 22.3929 13.4371 21.7721 12.3319 20.667C11.2267 19.5618 10.6058 18.063 10.6058 16.5001V10.6072H12.9631C13.2757 10.6072 13.5755 10.4831 13.7966 10.2621C14.0176 10.041 14.1418 9.74125 14.1418 9.42868C14.1418 9.1161 14.0176 8.81633 13.7966 8.5953C13.5755 8.37428 13.2757 8.25011 12.9631 8.25011H9.42718C9.11459 8.25011 8.81479 8.37428 8.59375 8.5953C8.37271 8.81633 8.24854 9.1161 8.24854 9.42868V16.5001C8.25086 18.4823 8.96681 20.3973 10.2654 21.895C11.564 23.3926 13.3584 24.3726 15.3204 24.6558C15.4736 27.3665 16.2398 29.3701 17.607 30.5486C18.6736 31.4398 20.0378 31.8945 21.4258 31.8215C21.8593 31.8219 22.2924 31.7943 22.7223 31.739C29.3935 30.7726 33.0001 23.159 33.0001 16.5001C33.0001 12.124 31.2616 7.9272 28.1671 4.83285C25.0725 1.73851 20.8754 0.000126987 16.4991 0.000126987Z" fill="white"/>
  <path d="M5.89112 23.5715C5.38551 23.5791 4.88429 23.6666 4.40602 23.8308C2.79033 21.1672 2.09934 18.0448 2.44034 14.9482C2.78134 11.8517 4.13526 8.9544 6.29186 6.70619C6.41242 6.59777 6.50931 6.46565 6.57648 6.31808C6.64365 6.1705 6.67964 6.01066 6.68221 5.84854C6.68478 5.68643 6.65387 5.52553 6.59141 5.3759C6.52895 5.22628 6.43629 5.09115 6.31922 4.97896C6.20215 4.86678 6.0632 4.77996 5.91104 4.72392C5.75888 4.66789 5.5968 4.64385 5.43493 4.65331C5.27306 4.66278 5.11488 4.70553 4.97029 4.77891C4.8257 4.85229 4.6978 4.95471 4.5946 5.07977C2.07015 7.71053 0.48819 11.1033 0.0958349 14.7281C-0.29652 18.3528 0.522829 22.0055 2.42589 25.1154C1.69819 25.9163 1.26814 26.943 1.20792 28.0234C1.1477 29.1037 1.46097 30.1719 2.09516 31.0486C2.72935 31.9254 3.64585 32.5573 4.69082 32.8383C5.7358 33.1193 6.84563 33.0323 7.83405 32.5919C8.82247 32.1515 9.62931 31.3845 10.1191 30.4197C10.6089 29.4548 10.7519 28.3509 10.5241 27.2931C10.2963 26.2354 9.71146 25.2881 8.86786 24.6105C8.02426 23.9328 6.9732 23.566 5.89112 23.5715ZM5.89112 30.6429C5.42489 30.6429 4.96913 30.5047 4.58147 30.2457C4.19382 29.9867 3.89168 29.6185 3.71326 29.1878C3.53484 28.7571 3.48816 28.2832 3.57912 27.8259C3.67007 27.3687 3.89458 26.9487 4.22426 26.619C4.55393 26.2894 4.97396 26.0649 5.43123 25.9739C5.8885 25.883 6.36247 25.9297 6.79321 26.1081C7.22395 26.2865 7.59211 26.5886 7.85113 26.9762C8.11016 27.3639 8.24841 27.8196 8.24841 28.2858C8.24841 28.9109 8.00005 29.5105 7.55797 29.9525C7.1159 30.3946 6.51631 30.6429 5.89112 30.6429Z" fill="white"/>
</svg>  