<svg width="22" height="32" viewBox="0 0 22 32" fill="none" xmlns="http://www.w3.org/2000/svg">
  <path d="M11.0013 6.13159C8.04239 6.13159 5.63477 8.51293 5.63477 11.4396C5.63477 14.3662 8.04239 16.7475 11.0013 16.7475C13.9603 16.7475 16.3679 14.3662 16.3679 11.4396C16.3679 8.51293 13.9603 6.13159 11.0013 6.13159Z" fill="#307BC4"></path>
  <path d="M9.79379 24.255L9.76496 24.2289L9.08118 23.6169L7.47203 22.1769L5.72237 22.3631L4.65164 22.4765L4.39779 22.5038L3.58031 22.5906L1.00586 28.0017L4.99265 28.0538L7.57316 31.0587L10.507 24.8931L9.79379 24.255Z" fill="#307BC4"></path>
  <path d="M18.4169 22.5906L17.5995 22.5038L17.3456 22.4772L16.2749 22.3631L14.5252 22.1769L12.9161 23.6169L12.2323 24.2289L12.2035 24.255L11.4902 24.8931L14.4241 31.0587L17.0046 28.0538L20.9914 28.0017L18.4169 22.5906Z" fill="#307BC4"></path>
  <path d="M20.3987 11.4397L21.9999 7.90471L18.6037 5.97578L17.7985 2.18479L13.9043 2.59844L11 0L8.09562 2.5985L4.20145 2.18485L3.39623 5.97578L0 7.90465L1.60118 11.4396L0 14.9746L3.39623 16.9035L4.20145 20.6945L4.49829 20.663L5.56963 20.5489L6.64035 20.4355L6.92738 20.4051H6.92799L8.09562 20.2808L8.97383 21.0663L9.90048 21.8955L10.1894 22.1539L10.6137 22.5336L11 22.8793L11.3864 22.5336L11.8107 22.1539L12.0996 21.8955L12.8202 21.2513L12.8208 21.2507L13.9044 20.2808L15.7969 20.4816H15.7975L15.9901 20.5023L16.4304 20.549H16.431L17.5017 20.663L17.7986 20.6946L18.6038 16.9036L22 14.9747L20.3987 11.4397ZM11 18.5673C7.02668 18.5673 3.79359 15.3702 3.79359 11.4396C3.79359 7.50974 7.02668 4.31196 11 4.31196C14.9733 4.31196 18.2063 7.50974 18.2063 11.4396C18.2063 15.3702 14.9733 18.5673 11 18.5673Z" fill="#307BC4"></path>
</svg>