<svg width="58" height="69" viewBox="0 0 58 69" fill="none" xmlns="http://www.w3.org/2000/svg">
<path d="M45.4703 30.0834C46.0178 30.195 46.5514 29.842 46.6634 29.2934C46.9133 28.0689 47.0399 26.8089 47.0399 25.548C47.0399 15.2984 38.7262 6.95947 28.5072 6.95947C18.2883 6.95947 9.97461 15.2984 9.97461 25.548C9.97461 35.7977 18.2883 44.1366 28.5072 44.1366C35.4726 44.1366 41.7862 40.2775 44.9842 34.0654C45.2403 33.5678 45.0459 32.9561 44.5498 32.6992C44.0538 32.4422 43.4439 32.6375 43.1878 33.1348C40.3382 38.6701 34.7131 42.1087 28.5074 42.1087C19.4032 42.1087 11.9965 34.6796 11.9965 25.5479C11.9965 16.4162 19.4032 8.98715 28.5074 8.98715C37.6116 8.98715 45.0183 16.4162 45.0183 25.5479C45.0183 26.6724 44.9055 27.7957 44.6828 28.8866C44.5708 29.4353 44.9235 29.9711 45.4703 30.0834Z" fill="white"/>
<path d="M39.7544 21.7771C39.6352 21.4092 39.318 21.1416 38.9364 21.0867L32.3482 20.1401L29.4148 14.1478C29.0797 13.4031 27.9349 13.4033 27.6 14.1478L24.6665 20.14L18.0784 21.0866C17.2678 21.1762 16.9156 22.2689 17.5175 22.8176L22.2927 27.4676L21.1544 34.0447C20.9889 34.8432 21.9137 35.5201 22.6226 35.1148L28.5073 31.9963L34.3921 35.1148C35.0998 35.5201 36.0262 34.8432 35.8603 34.0447L34.7219 27.4676L39.4971 22.8176C39.7738 22.5484 39.8735 22.1447 39.7544 21.7771ZM32.9305 26.386C32.6907 26.6194 32.5815 26.9565 32.6385 27.2868L33.5161 32.3572L28.9795 29.9531C28.684 29.7966 28.3305 29.7966 28.035 29.9531L23.4984 32.3572L24.3759 27.2868C24.4331 26.9565 24.3238 26.6194 24.084 26.386L20.4027 22.8011L25.4817 22.0713C25.8125 22.0237 26.0985 21.8155 26.2458 21.5145L28.5072 16.8951L30.7686 21.5145C30.9159 21.8153 31.2019 22.0237 31.5326 22.0713L36.6117 22.8011L32.9305 26.386Z" fill="white"/>
<path d="M56.875 60.2685L46.9948 43.1037C51.321 38.5227 53.9785 32.341 53.9785 25.5479C53.9784 11.4607 42.5522 0 28.5073 0C24.186 0 19.9169 1.10535 16.1612 3.19664C15.673 3.4685 15.497 4.08567 15.768 4.57534C16.0389 5.06473 16.6543 5.2413 17.1424 4.96971C20.5986 3.04515 24.5285 2.02794 28.5073 2.02794C41.4374 2.02794 51.9567 12.5791 51.9567 25.5481C51.9567 38.5172 41.4374 49.0684 28.5073 49.0684C15.5772 49.0684 5.05789 38.5172 5.05789 25.5479C5.05789 18.5905 8.10493 12.028 13.4179 7.54352C13.8451 7.18298 13.8999 6.5433 13.5405 6.11496C13.181 5.68649 12.5433 5.63123 12.1162 5.99204C6.34574 10.8627 3.03615 17.9905 3.03615 25.5479C3.03615 32.3526 5.70256 38.544 10.0419 43.1274L7.24367 47.9886C6.57312 49.1141 8.3474 50.1546 8.9945 49.0026L11.5383 44.5835C14.5815 47.3156 18.281 49.3258 22.3674 50.3441L13.6444 65.4983L11.413 58.4544C11.2549 57.955 10.7433 57.659 10.233 57.771L3.03548 59.3547L6.63553 53.1004C6.91466 52.6154 6.74901 51.9953 6.26555 51.7154C5.78195 51.4354 5.16383 51.6015 4.8847 52.0864L0.139263 60.3305C-0.310912 61.0547 0.403977 62.0388 1.23127 61.828L9.76532 59.9501L12.411 68.302C12.6423 69.1236 13.8459 69.2575 14.2498 68.5019L24.4554 50.7716C25.7752 50.9842 27.1282 51.0962 28.5069 51.0962C29.8969 51.0962 31.2606 50.9821 32.5908 50.7662L38.7203 61.415C38.9075 61.7404 39.2473 61.9221 39.5967 61.9221C39.7681 61.9221 39.942 61.8783 40.1012 61.7861C40.5846 61.506 40.7503 60.886 40.4711 60.401L34.6779 50.3364C38.7625 49.313 42.4595 47.2984 45.4993 44.5624L53.9784 59.2929L46.7809 57.7092C46.2706 57.5969 45.7591 57.8931 45.6008 58.3925L43.3695 65.4364L42.8298 64.4988C42.5507 64.0139 41.9325 63.8478 41.449 64.1278C40.9655 64.4079 40.7999 65.0279 41.079 65.5128L42.7639 68.4402C43.168 69.1959 44.3715 69.0618 44.6028 68.2403L47.2484 59.8883L55.7825 61.7663C56.6106 61.9762 57.3249 60.9929 56.875 60.2685Z" fill="white"/>
</svg>
