<svg width="19" height="19" viewBox="0 0 19 19" fill="none" xmlns="http://www.w3.org/2000/svg">
  <path d="M16.5864 2.17098H15.7467V0.771423H14.3472V2.17098H5.1101V0.771423H3.71055V2.17098H2.87081C1.71324 2.17098 0.771484 3.11274 0.771484 4.27031V16.5864C0.771484 17.7439 1.71324 18.6857 2.87081 18.6857H16.5864C17.744 18.6857 18.6858 17.7439 18.6858 16.5864V4.27031C18.6858 3.11274 17.744 2.17098 16.5864 2.17098ZM17.2862 16.5864C17.2862 16.9722 16.9723 17.2862 16.5864 17.2862H2.87081C2.48496 17.2862 2.17104 16.9722 2.17104 16.5864V7.34933H17.2862V16.5864ZM17.2862 5.94977H2.17104V4.27031C2.17104 3.88445 2.48496 3.57053 2.87081 3.57053H3.71055V4.97008H5.1101V3.57053H14.3472V4.97008H15.7467V3.57053H16.5864C16.9723 3.57053 17.2862 3.88445 17.2862 4.27031V5.94977Z" fill="white"/>
  <path d="M4.83022 8.81885H3.43066V10.2184H4.83022V8.81885Z" fill="white"/>
  <path d="M7.62905 8.81885H6.22949V10.2184H7.62905V8.81885Z" fill="white"/>
  <path d="M10.4279 8.81885H9.02832V10.2184H10.4279V8.81885Z" fill="white"/>
  <path d="M13.2277 8.81885H11.8281V10.2184H13.2277V8.81885Z" fill="white"/>
  <path d="M16.0265 8.81885H14.627V10.2184H16.0265V8.81885Z" fill="white"/>
  <path d="M4.83022 11.618H3.43066V13.0175H4.83022V11.618Z" fill="white"/>
  <path d="M7.62905 11.618H6.22949V13.0175H7.62905V11.618Z" fill="white"/>
  <path d="M10.4279 11.618H9.02832V13.0175H10.4279V11.618Z" fill="white"/>
  <path d="M13.2277 11.618H11.8281V13.0175H13.2277V11.618Z" fill="white"/>
  <path d="M4.83022 14.4171H3.43066V15.8166H4.83022V14.4171Z" fill="white"/>
  <path d="M7.62905 14.4171H6.22949V15.8166H7.62905V14.4171Z" fill="white"/>
  <path d="M10.4279 14.4171H9.02832V15.8166H10.4279V14.4171Z" fill="white"/>
  <path d="M13.2277 14.4171H11.8281V15.8166H13.2277V14.4171Z" fill="white"/>
  <path d="M16.0265 11.618H14.627V13.0175H16.0265V11.618Z" fill="white"/>
</svg>