<svg width="12" height="11" viewBox="0 0 12 11" fill="none" xmlns="http://www.w3.org/2000/svg">
  <path d="M2.38144 7.31206C3.47051 8.60899 4.78151 9.63013 6.27784 10.3527C6.84754 10.6216 7.60943 10.9407 8.45827 10.9954C8.51089 10.9977 8.56123 11 8.61385 11C9.18355 11 9.64114 10.804 10.0141 10.4005C10.0164 10.3983 10.0209 10.3937 10.0232 10.3891C10.1559 10.2296 10.3069 10.086 10.4648 9.93328C10.5723 9.83071 10.6822 9.72358 10.7874 9.61417C11.2747 9.10816 11.2747 8.4654 10.7828 7.97534L9.40777 6.60547C9.1744 6.36386 8.89527 6.23622 8.60241 6.23622C8.30955 6.23622 8.02813 6.36386 7.78789 6.60319L6.9688 7.41919C6.8933 7.37588 6.81551 7.33713 6.7423 7.30066C6.65078 7.25508 6.56612 7.21177 6.49062 7.1639C5.74475 6.69208 5.06751 6.07667 4.42002 5.28574C4.09284 4.87319 3.87319 4.52673 3.7199 4.17344C3.93497 3.97969 4.13631 3.77683 4.33079 3.57853C4.39943 3.50787 4.47035 3.43722 4.54128 3.36656C4.78838 3.12039 4.92108 2.83547 4.92108 2.546C4.92108 2.25653 4.79067 1.97161 4.54128 1.72545L3.85947 1.04621C3.77939 0.966432 3.70389 0.888935 3.62609 0.809159C3.47509 0.654165 3.31722 0.494613 3.16164 0.351015C2.92598 0.120804 2.64914 0 2.35628 0C2.06571 0 1.78657 0.120804 1.54176 0.353295L0.686065 1.20576C0.374903 1.51575 0.19873 1.89184 0.162122 2.32719C0.118651 2.87194 0.219321 3.45089 0.480149 4.15064C0.880542 5.23332 1.48456 6.2385 2.38144 7.31206ZM0.720385 2.37505C0.74784 2.0719 0.864526 1.8189 1.08417 1.60008L1.93529 0.752176C2.06799 0.624534 2.21442 0.558433 2.35628 0.558433C2.49584 0.558433 2.6377 0.624534 2.76811 0.756734C2.9214 0.898052 3.06554 1.04621 3.22113 1.20348C3.29892 1.28326 3.37899 1.36303 3.45907 1.44509L4.14089 2.12433C4.28274 2.26564 4.35595 2.40924 4.35595 2.55056C4.35595 2.69188 4.28274 2.83547 4.14089 2.97679C4.06996 3.04745 3.99903 3.12039 3.92811 3.19105C3.71533 3.4053 3.51627 3.60816 3.29663 3.80191C3.29205 3.80647 3.28976 3.80874 3.28519 3.8133C3.09529 4.00249 3.12503 4.18255 3.17079 4.31931C3.17308 4.32615 3.17537 4.33071 3.17765 4.33755C3.35383 4.75922 3.59864 5.16038 3.98073 5.63904C4.66712 6.48239 5.39011 7.13655 6.18632 7.64028C6.2847 7.7041 6.38995 7.75425 6.48833 7.80439C6.57985 7.84998 6.66451 7.89329 6.74001 7.94115C6.74916 7.94571 6.75602 7.95027 6.76518 7.95483C6.84068 7.99358 6.91389 8.01181 6.98711 8.01181C7.17015 8.01181 7.28912 7.89557 7.32801 7.85682L8.18371 7.00435C8.31641 6.87215 8.46056 6.80149 8.60241 6.80149C8.77629 6.80149 8.91815 6.90862 9.00738 7.00435L10.387 8.3765C10.6616 8.65002 10.6593 8.94633 10.3802 9.23581C10.2841 9.33838 10.1834 9.43639 10.0759 9.53896C9.9157 9.69395 9.74868 9.8535 9.59767 10.0336C9.33456 10.3162 9.0211 10.4484 8.61614 10.4484C8.57724 10.4484 8.53606 10.4461 8.49716 10.4438C7.74671 10.396 7.04888 10.1042 6.52494 9.85578C5.10183 9.16971 3.8526 8.19644 2.81616 6.96104C1.96275 5.93763 1.38847 4.98487 1.00867 3.96374C0.773008 3.33692 0.683777 2.8332 0.720385 2.37505Z" fill="#307BC4"></path>
</svg>