<svg width="28" height="28" viewBox="0 0 28 28" fill="none" xmlns="http://www.w3.org/2000/svg">
<path d="M1.743 1.74333C2.70601 0.780314 3.95464 0.468314 4.53233 1.046L26.8469 23.3606C27.4246 23.9383 27.1126 25.1869 26.1496 26.1499C25.1868 27.1127 23.9379 27.4249 23.3603 26.8472L1.04567 4.53265C0.467986 3.95497 0.780218 2.70611 1.743 1.74333Z" fill="#274760"/>
<path d="M1.74333 26.1499C0.780314 25.1869 0.468314 23.9383 1.046 23.3606L23.3606 1.04599C23.9383 0.468325 25.1869 0.780311 26.1499 1.74333C27.1127 2.70611 27.4249 3.95498 26.8472 4.53265L4.53265 26.8472C3.95497 27.4249 2.70611 27.1127 1.74333 26.1499Z" fill="#274760"/>
</svg>
