<svg width="13" height="10" viewBox="0 0 13 10" fill="none" xmlns="http://www.w3.org/2000/svg">
  <path d="M11.2784 0.522339H1.02531C0.459825 0.522339 0 0.982164 0 1.54765V8.7248C0 9.29026 0.459825 9.75009 1.02531 9.75009H11.2784C11.8438 9.75009 12.3037 9.29026 12.3037 8.72477V1.54765C12.3037 0.982164 11.8438 0.522339 11.2784 0.522339ZM1.02531 1.03498H11.2784C11.3162 1.03498 11.3494 1.04875 11.3849 1.05654C10.4972 1.86894 7.55385 4.56162 6.52383 5.48966C6.44323 5.56225 6.31332 5.64886 6.15186 5.64886C5.9904 5.64886 5.86049 5.56225 5.77962 5.48942C4.7497 4.56152 1.80616 1.8687 0.918642 1.05659C0.954159 1.0488 0.987513 1.03498 1.02531 1.03498ZM0.512645 8.72477V1.54765C0.512645 1.49743 0.527784 1.45187 0.541337 1.40597C1.22073 2.02778 3.27448 3.90659 4.60616 5.11757C3.27881 6.25775 1.22453 8.20538 0.539727 8.85838C0.52764 8.81479 0.512645 8.77216 0.512645 8.72477ZM11.2784 9.23744H1.02531C0.984365 9.23744 0.947959 9.22317 0.909726 9.21404C1.61736 8.53945 3.68471 6.58062 4.98873 5.46505C5.15872 5.61925 5.31401 5.75986 5.43642 5.87016C5.64769 6.06091 5.89499 6.16153 6.15183 6.16153C6.40867 6.16153 6.65597 6.06089 6.86698 5.8704C6.98944 5.76005 7.14485 5.61932 7.31494 5.46505C8.61903 6.5805 10.6861 8.53919 11.3939 9.21404C11.3557 9.22317 11.3193 9.23744 11.2784 9.23744ZM11.791 8.72477C11.791 8.77214 11.776 8.81479 11.764 8.85838C11.0789 8.20504 9.02486 6.25763 7.69753 5.11759C9.02926 3.90662 11.0827 2.02798 11.7623 1.40592C11.7759 1.45182 11.791 1.4974 11.791 1.54763V8.72477Z" fill="#307BC4"></path>
</svg>