<svg width="27" height="22" viewBox="0 0 27 22" fill="none" xmlns="http://www.w3.org/2000/svg">
  <path d="M16.5008 4.95C15.8936 4.95 15.4008 4.4572 15.4008 3.85V2.2H11.0008V3.85C11.0008 4.4572 10.508 4.95 9.90078 4.95C9.29358 4.95 8.80078 4.4572 8.80078 3.85V2.2C8.80078 0.9867 9.78748 0 11.0008 0H15.4008C16.6141 0 17.6008 0.9867 17.6008 2.2V3.85C17.6008 4.4572 17.108 4.95 16.5008 4.95Z" fill="#307BC4"></path>
  <path d="M13.981 14.718C13.783 14.795 13.497 14.85 13.2 14.85C12.903 14.85 12.617 14.795 12.353 14.696L0 10.582V18.975C0 20.647 1.353 22 3.025 22H23.375C25.047 22 26.4 20.647 26.4 18.975V10.582L13.981 14.718Z" fill="#307BC4"></path>
  <path d="M26.4 6.32499V8.84399L13.464 13.156C13.376 13.189 13.288 13.2 13.2 13.2C13.112 13.2 13.024 13.189 12.936 13.156L0 8.84399V6.32499C0 4.65299 1.353 3.29999 3.025 3.29999H23.375C25.047 3.29999 26.4 4.65299 26.4 6.32499Z" fill="#307BC4"></path>
</svg>