<svg width="29" height="24" viewBox="0 0 29 24" fill="none" xmlns="http://www.w3.org/2000/svg">
  <path d="M28.4331 4.82659L14.7827 0.048049C14.5998 -0.0160163 14.4003 -0.0160163 14.2174 0.048049L0.566973 4.82659C0.227583 4.94539 0.000453804 5.26347 6.78953e-07 5.62055C-0.000452446 5.97763 0.22594 6.29621 0.565048 6.4158L14.2154 11.2306C14.3075 11.2631 14.4038 11.2794 14.5 11.2794C14.5963 11.2794 14.6925 11.2631 14.7846 11.2306L28.435 6.4158C28.7741 6.29621 29.0004 5.97763 29 5.62055C28.9995 5.26347 28.7724 4.94539 28.4331 4.82659Z" fill="#307BC4"></path>
  <path d="M26.9583 16.0785V8.72559L25.259 9.32493V16.0785C24.7472 16.3708 24.4023 16.9184 24.4023 17.5464C24.4023 18.1744 24.7472 18.7221 25.259 19.0144V23.157C25.259 23.6226 25.6394 24 26.1086 24C26.5779 24 26.9583 23.6226 26.9583 23.157V19.0144C27.4701 18.7222 27.8149 18.1744 27.8149 17.5465C27.8149 16.9185 27.4701 16.3708 26.9583 16.0785Z" fill="#307BC4"></path>
  <path d="M14.5002 12.9653C14.2086 12.9653 13.9214 12.9161 13.6465 12.8192L5.97266 10.1124V13.8219C5.97266 14.7295 6.92688 15.4969 8.80882 16.103C10.4492 16.6312 12.4705 16.9222 14.5002 16.9222C16.53 16.9222 18.5512 16.6312 20.1917 16.103C22.0736 15.4969 23.0278 14.7295 23.0278 13.8219V10.1124L15.354 12.8192C15.0791 12.9161 14.7919 12.9653 14.5002 12.9653Z" fill="#307BC4"></path>
</svg>