<svg width="22" height="22" viewBox="0 0 22 22" fill="none" xmlns="http://www.w3.org/2000/svg">
  <path d="M19.8 2.2H18.7V1.1C18.7 0.44 18.26 0 17.6 0C16.94 0 16.5 0.44 16.5 1.1V2.2H5.5V1.1C5.5 0.44 5.06 0 4.4 0C3.74 0 3.3 0.44 3.3 1.1V2.2H1.1C0.55 2.2 0 2.64 0 3.3V18.7C0 19.36 0.55 19.8 1.1 19.8H7.81C7.04 18.48 6.6 16.94 6.6 15.4C6.6 10.56 10.56 6.6 15.4 6.6C17.49 6.6 19.36 7.37 20.9 8.58V3.3C20.9 2.75 20.35 2.2 19.8 2.2Z" fill="#307BC4"></path>
  <path d="M15.3998 8.80005C11.7698 8.80005 8.7998 11.77 8.7998 15.4C8.7998 19.03 11.7698 22 15.3998 22C19.0298 22 21.9998 19.03 21.9998 15.4C21.9998 11.77 19.0298 8.80005 15.3998 8.80005ZM17.5998 16.5H15.3998C14.7398 16.5 14.2998 16.06 14.2998 15.4V12.1C14.2998 11.44 14.7398 11 15.3998 11C16.0598 11 16.4998 11.44 16.4998 12.1V14.3H17.5998C18.2598 14.3 18.6998 14.74 18.6998 15.4C18.6998 16.06 18.2598 16.5 17.5998 16.5Z" fill="#307BC4"></path>
</svg>