<svg width="89" height="73" viewBox="0 0 89 73" fill="none" xmlns="http://www.w3.org/2000/svg">
    <path d="M32.282 32.9105V34.9926C32.282 35.7115 32.8646 36.2939 33.5833 36.2939C34.302 36.2939 34.8846 35.7115 34.8846 34.9926V32.9105C34.8846 32.1916 34.302 31.6091 33.5833 31.6091C32.8646 31.6091 32.282 32.1916 32.282 32.9105Z" fill="#307BC4"/>
    <path d="M53.9531 32.9105V34.9926C53.9531 35.7115 54.5358 36.2939 55.2545 36.2939C55.9731 36.2939 56.5558 35.7115 56.5558 34.9926V32.9105C56.5558 32.1916 55.9731 31.6091 55.2545 31.6091C54.5358 31.6091 53.9531 32.1916 53.9531 32.9105Z" fill="#307BC4"/>
    <path d="M46.2945 34.0758C45.3014 35.2156 43.5357 35.2147 42.5432 34.0758C42.0709 33.5341 41.249 33.4777 40.7071 33.9496C40.1653 34.4219 40.1089 35.2439 40.581 35.7857C42.6116 38.1157 46.2279 38.1136 48.2566 35.7857C48.7287 35.2439 48.6723 34.4219 48.1305 33.9496C47.5888 33.4775 46.7667 33.5339 46.2945 34.0758Z" fill="#307BC4"/>
    <path d="M84.9777 3.87225C77.8411 2.15935 70.4504 3.58908 64.5216 7.78892C63.6158 6.96248 62.7276 6.38278 61.0945 6.32136C60.6948 5.23136 59.9112 4.30308 58.8696 3.72615C54.4681 1.28849 49.4721 0 44.4215 0C40.3799 0 36.3664 0.815675 32.6373 2.41701C31.9769 2.7007 31.6716 3.46589 31.9551 4.12627C32.2388 4.78665 33.0039 5.09203 33.6643 4.80851C37.1175 3.32551 40.7877 2.60267 44.4215 2.60267C49.0322 2.60267 53.5923 3.77838 57.6087 6.00297C58.2625 6.36508 58.699 7.02043 58.7761 7.75612C58.8455 8.41859 59.404 8.92177 60.0703 8.92177L60.6569 8.91778C61.4704 8.91778 61.9803 9.00384 62.5092 9.47388C66.0065 12.5832 68.6537 16.5684 70.1648 20.9978C70.2757 21.3233 70.2488 21.6679 70.1088 21.9681H69.7736C67.8958 21.9681 66.1305 21.2369 64.8028 19.9092L56.2911 11.3973C55.7828 10.8889 54.9588 10.889 54.4508 11.3973C47.6342 18.214 38.5711 21.9681 28.9308 21.9681H18.7292C18.589 21.6681 18.5616 21.3231 18.6721 20.999C20.5882 15.3814 24.3643 10.4716 29.3047 7.17417C29.9024 6.77509 30.0636 5.96705 29.6647 5.3693C29.2656 4.77156 28.4578 4.61019 27.8599 5.00927C26.6073 5.84524 25.4241 6.77682 24.3178 7.78978C18.3888 3.58908 10.9972 2.15883 3.86049 3.87225C1.10635 4.53333 -0.561441 7.33501 0.173726 10.0786L2.46563 18.6327C3.34586 21.9179 7.15842 23.448 10.0378 21.6249C12.1103 20.3126 14.3489 19.3619 16.7175 18.7855C16.537 19.2389 16.3663 19.6965 16.2086 20.159C16.003 20.7618 15.9459 21.4085 16.0578 22.0618C12.2013 22.6548 9.23864 25.9956 9.23864 30.0154C9.23864 34.4283 12.8095 38.0215 17.2134 38.0607C19.7907 46.5196 26.2125 53.3176 34.4349 56.4111C30.8012 59.4095 28.6283 63.9236 28.6283 68.733V70.9428C28.6283 71.6617 29.211 72.2441 29.9297 72.2441H58.9085C59.6273 72.2441 60.2098 71.6617 60.2098 70.9428V68.733C60.2098 63.933 58.0355 59.4116 54.4034 56.4118C56.1129 55.771 57.7638 54.9676 59.3298 54.001C59.9412 53.6236 60.131 52.8218 59.7535 52.2102C59.3759 51.5987 58.5741 51.4089 57.9627 51.7865C53.9002 54.2939 49.2168 55.6194 44.4187 55.6194C30.1752 55.6194 18.5873 44.0312 18.5873 29.7875C18.5873 28.0326 18.7674 26.2828 19.1185 24.5707H28.9308C38.5596 24.5707 48.0599 20.9704 55.3557 14.1425L62.9626 21.7496C64.7692 23.556 67.1671 24.5555 69.7198 24.5694C70.0708 26.2807 70.2507 28.0311 70.2507 29.7875C70.2505 36.9872 67.2091 43.916 61.9062 48.7972C61.3774 49.2841 61.3434 50.1072 61.8301 50.6361C62.3178 51.1657 63.1409 51.1983 63.6687 50.7123C67.4246 47.2551 70.1477 42.8638 71.6133 38.0611C76.0222 38.0277 79.599 34.4321 79.599 30.0154C79.599 25.9954 76.6361 22.6547 72.7796 22.0616C72.8903 21.4139 72.836 20.7684 72.6283 20.1582C72.4704 19.6953 72.2976 19.2382 72.1172 18.7845C74.4868 19.3609 76.7265 20.3117 78.7998 21.6247C81.682 23.4492 85.4932 21.9131 86.372 18.6325L88.6641 10.0784C89.3985 7.33796 87.7342 4.53402 84.9777 3.87225ZM11.8413 30.0154C11.8413 27.2964 13.8445 25.0368 16.4525 24.6346C16.1416 26.3307 15.9846 28.0574 15.9846 29.7877C15.9846 31.7114 16.1777 33.5905 16.5435 35.4081C13.8915 35.0447 11.8413 32.7657 11.8413 30.0154ZM34.3856 68.7331V69.6417H31.2308V68.7331C31.2308 68.222 31.2619 67.7152 31.3193 67.2141C32.3312 67.5682 33.3586 67.8855 34.396 68.1561C34.3891 68.3485 34.3856 68.5411 34.3856 68.7331ZM57.6071 68.7331V69.6417H54.4524V68.7331C54.4524 68.5412 54.4489 68.3485 54.4419 68.1561C55.4794 67.8855 56.5066 67.5682 57.5183 67.2142C57.5759 67.7153 57.6071 68.2222 57.6071 68.7331ZM37.5395 57.3789C39.7433 57.9284 42.0472 58.2222 44.4187 58.2222C46.7526 58.2222 49.0617 57.9361 51.2986 57.3796C54.0149 59.0646 56.0053 61.6667 56.9648 64.6518C55.5953 65.1446 54.1909 65.5593 52.7745 65.8858C52.1329 66.034 51.7027 66.6378 51.773 67.2927C51.8238 67.7677 51.8497 68.2523 51.8497 68.7331V69.6417H36.9883V68.7331C36.9883 68.2523 37.0141 67.7679 37.065 67.2927C37.1353 66.6378 36.7051 66.0338 36.0635 65.8858C34.6468 65.5591 33.2417 65.1442 31.8714 64.6513C32.8299 61.6641 34.8206 59.0648 37.5395 57.3789ZM18.0717 15.8587C14.695 16.4029 11.5271 17.6011 8.64558 19.4258C7.25871 20.3039 5.40769 19.557 4.97964 17.9589L2.68773 9.405C2.33481 8.08857 3.12775 6.72477 4.46778 6.40308C10.723 4.90117 17.1953 6.09042 22.4479 9.65937C20.7351 11.5305 19.2613 13.6168 18.0717 15.8587ZM72.3858 24.6346C74.9935 25.0371 76.9965 27.2966 76.9965 30.0154C76.9965 32.7686 74.9419 35.0496 72.2857 35.4091C72.6587 33.5702 72.8532 31.6878 72.8532 29.7877C72.8532 28.0566 72.6962 26.3298 72.3858 24.6346ZM86.1502 9.405L83.8582 17.9589C83.4287 19.561 81.5746 20.3017 80.1924 19.4258C77.3118 17.6017 74.1447 16.4036 70.7692 15.8591C69.5822 13.6158 68.1112 11.5291 66.3948 9.65607C71.6464 6.08972 78.1163 4.90169 84.3702 6.40291C85.704 6.72321 86.5047 8.08215 86.1502 9.405Z" fill="#307BC4"/>
  </svg>  