<svg width="60" height="72" viewBox="0 0 60 72" fill="none" xmlns="http://www.w3.org/2000/svg">
  <path d="M59.9099 19.2727C59.9099 19.2714 59.9099 19.2689 59.9086 19.2676C59.6857 17.7427 52.357 11.5713 45.6902 11.5713C38.4331 11.5713 31.7116 20.3861 29.8286 20.5713C28.1085 20.5777 28.115 23.1427 29.8351 23.1427C35.1271 23.1427 41.3234 7.19472 55.1835 18.0487C53.5428 18.4524 52.3896 19.4861 51.7901 21.0856C47.6462 17.5614 40.9781 19.553 39.1603 23.9476C38.5243 25.5071 40.909 26.4779 41.5736 24.917C43.0579 21.5716 48.991 20.129 51.652 24.9723C53.8412 28.9516 60.8742 25.7861 59.9099 19.2727ZM53.9481 23.7534C53.9898 21.3389 54.9489 20.1997 57.3636 20.4594C57.2815 23.6891 54.5736 24.8643 53.9481 23.7534Z" fill="#307BC4"/>
  <path d="M44.271 25.4854C44.3101 25.5304 48.1882 30.0137 48.1882 36C48.1882 48.8083 37.7384 69.4286 31.2476 69.4286C26.6332 69.4286 4.93102 51.9879 2.79259 38.1356C27.9872 48.7093 18.5682 6.67414 42.0257 6.43886C42.9535 6.43629 45.5793 6.42857 46.9932 6.42857C48.007 6.42857 49.7089 6.93 49.7089 10.2857C49.7089 11.9867 52.3152 11.9867 52.3152 10.2857C52.3152 5.54143 49.4483 3.85714 46.9932 3.85714C45.4334 3.85714 43.1412 3.86486 41.6791 3.86871V3.88671C35.802 4.03586 31.7024 6.543 28.6413 10.0929V6.45171C28.6752 4.61057 27.0359 2.57143 23.4289 2.57143C21.9211 2.57143 20.7223 2.93014 19.827 3.61543C19.0047 2.15357 16.8324 0 14.8921 0C10.6165 0 6.45176 4.97057 8.97721 8.31471C10.9384 10.9144 11.4857 13.5244 11.6395 14.7343C8.94724 16.4134 0 22.9719 0 36C0 51.4131 24.7463 72 31.2476 72C40.4398 72 50.7944 48.5151 50.7944 36C50.7944 29.0649 46.4264 24.0133 46.2413 23.8011C45.1089 22.5141 43.1438 24.201 44.271 25.4854ZM21.5067 23.1891C20.2662 19.773 17.931 15.129 14.2119 14.2817C14.049 13.0719 13.5955 11.0366 12.3732 8.80586C14.8647 8.26714 16.4454 6.68571 17.2273 4.36371C18.4314 5.931 18.2581 7.83386 18.2164 12.8571C18.2164 14.5581 20.8226 14.5581 20.8226 12.8571V9.01929C22.6783 9.50657 24.4244 9.36386 26.0351 8.69143V13.6749C24.186 16.6924 22.7799 20.043 21.5067 23.1891ZM25.8188 5.90657C23.8068 7.11257 21.9055 6.72557 20.8995 6.354C21.4911 4.67871 25.0382 4.89471 25.8188 5.90657ZM15.0068 2.58943C14.6093 4.91014 13.3075 6.309 10.8759 6.41571C10.4393 5.15571 12.6755 2.35929 15.0068 2.58943ZM13.3166 16.7323C16.7451 17.1347 19.2054 24.0339 19.9547 26.9859C16.0571 36.2751 12.7211 40.1439 2.64143 35.2376C3.005 23.4399 11.5496 17.7737 13.3166 16.7323Z" fill="#307BC4"/>
  <path d="M32.5508 26.9999V34.3734L27.6797 42.7846L22.1636 46.0503L18.9396 43.9302C18.6047 43.7103 18.1851 43.655 17.8046 43.7797L13.8953 45.0654C12.2546 45.6054 13.0912 48.0457 14.7201 47.5044L18.0248 46.418L20.6402 48.1383L19.5599 52.4017C19.1429 54.0487 21.6684 54.68 22.0893 53.0266L23.2621 48.4006L27.3409 45.986V59.1427C27.3409 60.8437 29.9471 60.8437 29.9471 59.1427V51.9607L34.2383 56.1946C35.445 57.398 37.302 55.5839 36.0783 54.3766L29.9445 48.3247V44.0562L34.3738 36.4087L37.5939 37.9966L36.4862 43.4622C36.1487 45.1362 38.7028 45.6492 39.0403 43.9674L39.8665 39.8943L42.0544 42.053C43.2768 43.2539 45.1155 41.4359 43.8971 40.2337L39.9877 36.3766C39.4313 35.969 37.2576 34.9867 35.157 33.9196V26.9999C35.157 25.2989 32.5508 25.2989 32.5508 26.9999Z" fill="#307BC4"/>
</svg> 