<svg width="67" height="74" viewBox="0 0 67 74" fill="none" xmlns="http://www.w3.org/2000/svg">
  <path d="M53.9011 17.3061C53.7087 17.3061 53.5201 17.2529 53.3559 17.1526C53.1917 17.0522 53.0584 16.9086 52.9706 16.7374C52.8828 16.5662 52.8439 16.3741 52.8582 16.1823C52.8725 15.9904 52.9394 15.8062 53.0515 15.6499C53.6882 14.7605 54.028 13.6928 54.0224 12.599C54.0205 11.3328 53.5675 10.1087 52.7447 9.14636C51.9218 8.18398 50.783 7.54626 49.5325 7.34761C48.282 7.14895 47.0016 7.40236 45.921 8.06236C44.8405 8.72237 44.0304 9.7458 43.6362 10.9491C43.5454 11.2071 43.3571 11.4193 43.1117 11.5402C42.8663 11.6611 42.5833 11.6811 42.3233 11.5958C42.0634 11.5106 41.8471 11.3269 41.721 11.0842C41.5948 10.8415 41.5687 10.559 41.6483 10.2972C42.1973 8.62058 43.3259 7.19448 44.8315 6.27489C46.3371 5.35531 48.1212 5.00245 49.8635 5.27965C51.6059 5.55685 53.1924 6.44596 54.3383 7.7874C55.4842 9.12884 56.1145 10.8348 56.116 12.599C56.1234 14.1303 55.6474 15.6248 54.7559 16.8699C54.6585 17.0055 54.5302 17.1159 54.3815 17.1918C54.2327 17.2677 54.068 17.3069 53.9011 17.3061Z" fill="#307BC4"/>
  <path d="M62.0579 29.402C61.886 29.4019 61.7166 29.3595 61.565 29.2784C61.4133 29.1974 61.2839 29.0802 61.1883 28.9372C61.0927 28.7942 61.0339 28.6299 61.0169 28.4588C61 28.2876 61.0255 28.115 61.0912 27.956C61.4569 27.0569 61.6418 26.0944 61.6352 25.1238C61.6472 24.0902 61.454 23.0644 61.0667 22.106C60.6794 21.1476 60.1058 20.2756 59.3791 19.5405C58.6524 18.8053 57.7871 18.2217 56.8332 17.8233C55.8794 17.425 54.856 17.2199 53.8223 17.2199C52.7886 17.2199 51.7652 17.425 50.8113 17.8233C49.8575 18.2217 48.9921 18.8053 48.2654 19.5405C47.5387 20.2756 46.9651 21.1476 46.5779 22.106C46.1906 23.0644 45.9973 24.0902 46.0093 25.1238C46.0093 25.4013 45.8991 25.6674 45.7029 25.8636C45.5066 26.0598 45.2405 26.17 44.963 26.17C44.6856 26.17 44.4194 26.0598 44.2232 25.8636C44.027 25.6674 43.9168 25.4013 43.9168 25.1238C43.9033 23.8144 44.1496 22.5154 44.6414 21.3018C45.1331 20.0882 45.8606 18.9841 46.7818 18.0535C47.7029 17.1228 48.7994 16.384 50.0079 15.8798C51.2164 15.3756 52.5128 15.116 53.8223 15.116C55.1317 15.116 56.4282 15.3756 57.6366 15.8798C58.8451 16.384 59.9416 17.1228 60.8628 18.0535C61.7839 18.9841 62.5114 20.0882 63.0032 21.3018C63.495 22.5154 63.7412 23.8144 63.7278 25.1238C63.7351 26.3701 63.4965 27.6056 63.0257 28.7596C62.9459 28.9503 62.8114 29.1131 62.6392 29.2274C62.4669 29.3417 62.2647 29.4025 62.0579 29.402Z" fill="#307BC4"/>
  <path d="M56.7 45.3041C56.36 45.3041 56.0231 45.2863 55.6914 45.2539C55.5547 45.2401 55.422 45.1996 55.301 45.1346C55.1799 45.0696 55.0729 44.9813 54.9859 44.875C54.899 44.7686 54.8338 44.6461 54.7942 44.5145C54.7546 44.383 54.7413 44.2449 54.755 44.1082C54.7687 43.9715 54.8093 43.8388 54.8743 43.7178C54.9393 43.5967 55.0275 43.4897 55.1339 43.4027C55.2403 43.3158 55.3627 43.2506 55.4943 43.211C55.6259 43.1714 55.7639 43.1581 55.9007 43.1718C56.1622 43.1976 56.4276 43.2108 56.6969 43.2115C58.3316 43.2133 59.9256 42.7017 61.254 41.749C62.5824 40.7963 63.5781 39.4505 64.1007 37.9016C64.6233 36.3527 64.6463 34.6788 64.1666 33.116C63.6869 31.5533 62.7287 30.1806 61.427 29.1916C61.205 29.0251 61.0583 28.7773 61.019 28.5026C60.9798 28.2279 61.0513 27.9488 61.2178 27.7269C61.3843 27.5049 61.6321 27.3581 61.9068 27.3189C62.1815 27.2796 62.4605 27.3511 62.6825 27.5176C64.3317 28.7721 65.5459 30.5123 66.1541 32.4931C66.7623 34.474 66.7339 36.5957 66.0729 38.5595C65.4119 40.5234 64.1516 42.2304 62.4694 43.4404C60.7872 44.6503 58.7679 45.3021 56.6958 45.3041H56.7Z" fill="#307BC4"/>
  <path d="M52.853 67.2412C52.59 67.2412 52.3367 67.1423 52.1435 66.9641C51.9502 66.7859 51.831 66.5415 51.8098 66.2794C51.7886 66.0174 51.8668 65.7569 52.0289 65.5499C52.1909 65.3429 52.425 65.2045 52.6845 65.1622C54.5101 64.8669 56.1703 63.9296 57.3662 62.519C58.5621 61.1085 59.2152 59.3173 59.208 57.468C59.2081 56.7018 59.0974 55.9396 58.8794 55.205C58.8405 55.0732 58.8279 54.9351 58.8423 54.7984C58.8567 54.6618 58.8979 54.5293 58.9636 54.4086C59.0292 54.2879 59.118 54.1813 59.2248 54.0949C59.3316 54.0085 59.4544 53.9439 59.5862 53.905C59.7179 53.866 59.8561 53.8534 59.9927 53.8679C60.1294 53.8823 60.2618 53.9235 60.3825 53.9891C60.5033 54.0548 60.6099 54.1435 60.6963 54.2503C60.7827 54.3572 60.8472 54.48 60.8862 54.6117C61.1622 55.5388 61.3032 56.5008 61.3047 57.468C61.3135 59.814 60.4847 62.0861 58.9673 63.8753C57.4499 65.6645 55.3436 66.8532 53.0277 67.2276C52.9699 67.2364 52.9115 67.241 52.853 67.2412Z" fill="#307BC4"/>
  <path d="M59.8796 55.9551C59.6402 55.9553 59.4079 55.8734 59.2216 55.723C59.0353 55.5726 58.9062 55.3628 58.8559 55.1287C58.8056 54.8946 58.8371 54.6504 58.9451 54.4367C59.0532 54.223 59.2312 54.0529 59.4496 53.9547C60.8148 53.3371 61.9731 52.3392 62.7858 51.0804C63.5986 49.8216 64.0313 48.3552 64.0323 46.8568C64.0391 45.114 63.4541 43.4204 62.3729 42.0534C62.2082 41.8349 62.1356 41.5605 62.1708 41.2891C62.206 41.0178 62.3462 40.771 62.5612 40.6017C62.7762 40.4324 63.0489 40.3541 63.321 40.3835C63.5931 40.413 63.8428 40.5478 64.0166 40.7592C64.9419 41.9378 65.5869 43.3114 65.9029 44.7761C66.2188 46.2409 66.1973 47.7583 65.84 49.2135C65.4828 50.6687 64.7991 52.0235 63.8407 53.1754C62.8824 54.3273 61.6745 55.246 60.3086 55.862C60.1738 55.923 60.0276 55.9548 59.8796 55.9551Z" fill="#307BC4"/>
  <path d="M43.538 73.252C40.5475 73.2486 37.6803 72.0592 35.5657 69.9445C33.451 67.8299 32.2616 64.9628 32.2583 61.9722V6.64372C32.2116 5.70768 32.3633 4.77234 32.7036 3.89909C33.0438 3.02583 33.5649 2.23438 34.2325 1.57667C34.9686 0.918417 35.8514 0.445722 36.8073 0.198015C37.7632 -0.0496914 38.7644 -0.0652273 39.7275 0.152704C44.3602 1.25004 48.7061 3.32117 52.4762 6.22835C52.6927 6.40247 52.8311 6.65545 52.861 6.93162C52.8909 7.20778 52.8099 7.48453 52.6358 7.70097C52.4617 7.91741 52.2087 8.05581 51.9325 8.08573C51.6564 8.11566 51.3796 8.03465 51.1632 7.86052C47.6469 5.17367 43.6105 3.24719 39.3101 2.20338C38.675 2.05221 38.0131 2.05481 37.3793 2.21094C36.7455 2.36708 36.1581 2.67224 35.6659 3.10107C35.2109 3.56657 34.8587 4.12246 34.6321 4.73273C34.4056 5.343 34.3097 5.99405 34.3508 6.64372V61.9722C34.3516 64.0716 35.0713 66.1075 36.3901 67.741C37.7089 69.3745 39.5472 70.5072 41.5993 70.9506C43.6513 71.394 45.7934 71.1214 47.6689 70.1781C49.5445 69.2348 51.0405 67.6777 51.9081 65.7659C52.0229 65.5132 52.2333 65.3163 52.4932 65.2187C52.7531 65.1211 53.0411 65.1307 53.2939 65.2454C53.5467 65.3602 53.7435 65.5706 53.8411 65.8305C53.9388 66.0904 53.9291 66.3784 53.8144 66.6312C52.9157 68.6033 51.4695 70.2757 49.6477 71.4494C47.8258 72.6231 45.7052 73.2488 43.538 73.252Z" fill="#307BC4"/>
  <path d="M12.7077 17.3061C12.5414 17.3062 12.3775 17.2667 12.2296 17.1908C12.0817 17.115 11.954 17.0049 11.8571 16.8699C10.9655 15.6248 10.4896 14.1303 10.4969 12.599C10.4985 10.8348 11.1287 9.12884 12.2747 7.7874C13.4206 6.44596 15.0071 5.55685 16.7494 5.27965C18.4917 5.00245 20.2758 5.35531 21.7814 6.27489C23.2871 7.19448 24.4156 8.62058 24.9646 10.2972C25.0109 10.4286 25.0304 10.5679 25.0221 10.707C25.0138 10.846 24.9778 10.982 24.9163 11.107C24.8547 11.232 24.7688 11.3434 24.6636 11.4347C24.5585 11.526 24.4361 11.5954 24.3037 11.6388C24.1714 11.6822 24.0317 11.6988 23.8928 11.6875C23.754 11.6761 23.6188 11.6372 23.4952 11.573C23.3716 11.5087 23.2621 11.4204 23.173 11.3133C23.084 11.2062 23.0173 11.0823 22.9767 10.9491C22.5837 9.74423 21.7738 8.71907 20.6927 8.05778C19.6116 7.39648 18.3301 7.1424 17.0785 7.3412C15.8269 7.53999 14.6872 8.17862 13.8642 9.14234C13.0412 10.1061 12.5888 11.3317 12.5884 12.599C12.5828 13.6928 12.9226 14.7605 13.5593 15.6499C13.6715 15.8062 13.7384 15.9904 13.7526 16.1823C13.7669 16.3741 13.728 16.5662 13.6402 16.7374C13.5524 16.9086 13.4191 17.0522 13.2549 17.1526C13.0908 17.2529 12.9021 17.3061 12.7098 17.3061H12.7077Z" fill="#307BC4"/>
  <path d="M4.55097 29.402C4.34376 29.4021 4.14116 29.3408 3.96887 29.2257C3.79657 29.1105 3.66234 28.9469 3.58318 28.7554C3.11292 27.6027 2.87436 26.3687 2.88114 25.1238C2.86768 23.8144 3.11396 22.5154 3.60572 21.3018C4.09748 20.0882 4.82497 18.9841 5.74612 18.0535C6.66727 17.1228 7.76379 16.384 8.97226 15.8798C10.1807 15.3756 11.4772 15.116 12.7866 15.116C14.0961 15.116 15.3925 15.3756 16.601 15.8798C17.8095 16.384 18.906 17.1228 19.8271 18.0535C20.7483 18.9841 21.4758 20.0882 21.9675 21.3018C22.4593 22.5154 22.7056 23.8144 22.6921 25.1238C22.6921 25.4013 22.5819 25.6674 22.3857 25.8636C22.1895 26.0598 21.9233 26.17 21.6459 26.17C21.3684 26.17 21.1023 26.0598 20.906 25.8636C20.7098 25.6674 20.5996 25.4013 20.5996 25.1238C20.6116 24.0902 20.4183 23.0644 20.031 22.106C19.6438 21.1476 19.0702 20.2756 18.3435 19.5405C17.6168 18.8053 16.7515 18.2217 15.7976 17.8233C14.8437 17.425 13.8203 17.2199 12.7866 17.2199C11.7529 17.2199 10.7295 17.425 9.77567 17.8233C8.82181 18.2217 7.95647 18.8053 7.22979 19.5405C6.5031 20.2756 5.9295 21.1476 5.54223 22.106C5.15496 23.0644 4.9617 24.0902 4.97366 25.1238C4.96653 26.0959 5.15142 27.0598 5.51772 27.9602C5.62237 28.2161 5.62147 28.5031 5.51521 28.7583C5.40895 29.0136 5.20598 29.2164 4.95065 29.3224C4.82383 29.3746 4.68809 29.4016 4.55097 29.402Z" fill="#307BC4"/>
  <path d="M9.90899 45.3041C7.8347 45.3067 5.81203 44.6574 4.12674 43.4481C2.44146 42.2388 1.17877 40.5304 0.51706 38.5645C-0.144645 36.5986 -0.171908 34.4745 0.439122 32.4922C1.05015 30.51 2.26859 28.7698 3.92228 27.5176C4.14426 27.3511 4.4233 27.2796 4.698 27.3189C4.9727 27.3581 5.22055 27.5049 5.38704 27.7269C5.55354 27.9488 5.62502 28.2279 5.58578 28.5026C5.54654 28.7773 5.39978 29.0251 5.17779 29.1916C3.87999 30.1825 2.92535 31.5553 2.44805 33.1168C1.97074 34.6783 1.99478 36.3502 2.51677 37.8973C3.03877 39.4445 4.03248 40.7892 5.35823 41.7424C6.68397 42.6956 8.27509 43.2094 9.90794 43.2115C10.1772 43.2115 10.4426 43.1983 10.7042 43.1718C10.8409 43.1581 10.9789 43.1714 11.1105 43.211C11.2421 43.2506 11.3645 43.3158 11.4709 43.4027C11.5773 43.4897 11.6655 43.5967 11.7305 43.7178C11.7955 43.8388 11.8361 43.9715 11.8498 44.1082C11.8635 44.2449 11.8502 44.383 11.8106 44.5145C11.771 44.6461 11.7058 44.7686 11.6189 44.875C11.5319 44.9813 11.4249 45.0696 11.3038 45.1346C11.1828 45.1996 11.0501 45.2401 10.9134 45.2539C10.5859 45.2863 10.249 45.3041 9.90899 45.3041Z" fill="#307BC4"/>
  <path d="M13.7562 67.2412C13.6991 67.2408 13.6421 67.2362 13.5856 67.2276C11.2697 66.8532 9.16346 65.6645 7.64606 63.8753C6.12866 62.0861 5.29979 59.814 5.30866 57.468C5.31014 56.5008 5.45109 55.5388 5.72717 54.6117C5.76612 54.48 5.83065 54.3572 5.91706 54.2503C6.00347 54.1435 6.11007 54.0548 6.23079 53.9891C6.3515 53.9235 6.48396 53.8823 6.6206 53.8679C6.75724 53.8534 6.89539 53.866 7.02715 53.905C7.15891 53.9439 7.28172 54.0085 7.38854 54.0949C7.49537 54.1813 7.58413 54.2879 7.64976 54.4086C7.71539 54.5293 7.7566 54.6618 7.77104 54.7984C7.78547 54.9351 7.77285 55.0732 7.7339 55.205C7.51593 55.9396 7.40527 56.7018 7.40538 57.468C7.39809 59.3173 8.0512 61.1085 9.24713 62.519C10.4431 63.9296 12.1033 64.8669 13.9288 65.1622C14.1883 65.2045 14.4224 65.3429 14.5845 65.5499C14.7465 65.7569 14.8247 66.0174 14.8035 66.2794C14.7823 66.5415 14.6632 66.7859 14.4699 66.9641C14.2766 67.1423 14.0233 67.2412 13.7604 67.2412H13.7562Z" fill="#307BC4"/>
  <path d="M6.72931 55.955C6.58134 55.9546 6.43514 55.9229 6.30034 55.8619C4.93407 55.2463 3.7258 54.3278 2.76702 53.1762C1.80825 52.0245 1.12411 50.6697 0.766429 49.2145C0.408744 47.7592 0.38689 46.2417 0.70252 44.7767C1.01815 43.3118 1.66299 41.9379 2.5882 40.7591C2.67202 40.6479 2.77719 40.5545 2.89756 40.4845C3.01793 40.4144 3.15107 40.3691 3.28917 40.3512C3.42727 40.3333 3.56756 40.3431 3.70182 40.3802C3.83607 40.4172 3.96158 40.4806 4.07099 40.5668C4.1804 40.6529 4.27152 40.76 4.33899 40.8819C4.40646 41.0037 4.44894 41.1378 4.46392 41.2762C4.47891 41.4147 4.4661 41.5547 4.42625 41.6882C4.38641 41.8216 4.32033 41.9457 4.23188 42.0533C3.15069 43.4203 2.56564 45.1138 2.57251 46.8567C2.57345 48.3551 3.00619 49.8214 3.81892 51.0802C4.63166 52.339 5.78995 53.337 7.15514 53.9545C7.37351 54.0528 7.55158 54.2229 7.65964 54.4366C7.76769 54.6502 7.79919 54.8945 7.74887 55.1286C7.69855 55.3627 7.56946 55.5725 7.38314 55.7228C7.19683 55.8732 6.96456 55.9552 6.72512 55.955H6.72931Z" fill="#307BC4"/>
  <path d="M23.0709 73.2518C20.9043 73.2481 18.7843 72.6222 16.9631 71.4485C15.1419 70.2747 13.6961 68.6027 12.7977 66.6311C12.683 66.3783 12.6733 66.0903 12.7709 65.8304C12.8686 65.5705 13.0654 65.3601 13.3182 65.2453C13.571 65.1306 13.859 65.121 14.1189 65.2186C14.3788 65.3162 14.5892 65.513 14.704 65.7658C15.5726 67.6758 17.0687 69.2309 18.9436 70.1729C20.8184 71.1148 22.9592 71.3867 25.01 70.9435C27.0608 70.5003 28.8982 69.3686 30.2168 67.7365C31.5354 66.1044 32.2558 64.0703 32.2582 61.9721V6.64362C32.2992 5.99395 32.2034 5.3429 31.9768 4.73263C31.7503 4.12236 31.3981 3.56648 30.943 3.10098C30.4511 2.67208 29.8639 2.36687 29.2302 2.21073C28.5966 2.05458 27.9348 2.05203 27.2999 2.20328C22.9989 3.24238 18.9616 5.16658 15.4458 7.8531C15.2288 8.00879 14.9604 8.07557 14.6957 8.03977C14.431 8.00398 14.1901 7.86831 14.0222 7.66056C13.8543 7.45282 13.7722 7.18874 13.7928 6.92244C13.8133 6.65614 13.935 6.40778 14.1327 6.22826C17.9032 3.32092 22.2494 1.24977 26.8825 0.152608C27.8454 -0.0652347 28.8465 -0.0496527 29.8022 0.198054C30.7579 0.44576 31.6405 0.918409 32.3764 1.57657C33.0441 2.23428 33.5651 3.02573 33.9054 3.89899C34.2456 4.77225 34.3974 5.70758 34.3507 6.64362V61.9721C34.3474 64.9626 33.1579 67.8298 31.0433 69.9444C28.9286 72.0591 26.0615 73.2485 23.0709 73.2518Z" fill="#307BC4"/>
  <path d="M33.3044 21.9485C33.2085 21.9485 33.113 21.9352 33.0208 21.9087C32.8886 21.8714 32.765 21.8084 32.6571 21.7233C32.5492 21.6383 32.4591 21.5328 32.3919 21.4129C32.3248 21.293 32.2819 21.1611 32.2658 21.0246C32.2496 20.8881 32.2605 20.7498 32.2979 20.6176C32.8482 18.6632 34.947 15.0724 38.9092 15.4679C39.1853 15.4956 39.4391 15.6319 39.6147 15.8468C39.7903 16.0616 39.8733 16.3375 39.8456 16.6136C39.8178 16.8897 39.6816 17.1434 39.4667 17.319C39.2519 17.4946 38.976 17.5777 38.6999 17.55C35.4733 17.2361 34.3213 21.146 34.3056 21.1857C34.2441 21.4043 34.1131 21.5969 33.9325 21.7345C33.7519 21.8721 33.5314 21.9472 33.3044 21.9485Z" fill="#307BC4"/>
  <path d="M33.3044 27.142C33.077 27.1418 32.8559 27.0676 32.6745 26.9305C32.493 26.7935 32.3612 26.601 32.2989 26.3824C32.2518 26.2202 31.1009 22.4139 27.9046 22.7435C27.6284 22.7712 27.3524 22.6881 27.1375 22.5124C26.9225 22.3367 26.7862 22.0828 26.7584 21.8066C26.7307 21.5303 26.8138 21.2544 26.9895 21.0394C27.1652 20.8245 27.4191 20.6881 27.6953 20.6604C31.6711 20.2659 33.7563 23.8567 34.3067 25.8111C34.344 25.9434 34.3549 26.0817 34.3388 26.2181C34.3226 26.3546 34.2797 26.4865 34.2126 26.6064C34.1455 26.7263 34.0554 26.8318 33.9475 26.9169C33.8396 27.0019 33.716 27.0649 33.5837 27.1022C33.4929 27.1283 33.3989 27.1417 33.3044 27.142Z" fill="#307BC4"/>
  <path d="M47.6384 34.2158C46.1898 34.2172 44.7587 33.8991 43.447 33.2842C42.1354 32.6693 40.9755 31.7728 40.0498 30.6586C39.958 30.5536 39.888 30.4312 39.8441 30.2988C39.8002 30.1664 39.7833 30.0265 39.7943 29.8874C39.8052 29.7484 39.8439 29.6129 39.908 29.489C39.9721 29.3651 40.0603 29.2552 40.1675 29.1659C40.2747 29.0766 40.3986 29.0096 40.532 28.9689C40.6655 28.9282 40.8057 28.9146 40.9445 28.9289C41.0833 28.9432 41.2178 28.9851 41.3401 29.0522C41.4625 29.1192 41.5702 29.2101 41.6569 29.3193C42.6803 30.549 44.0578 31.4333 45.6018 31.852C47.1458 32.2706 48.7814 32.2033 50.2857 31.659C51.7901 31.1148 53.0902 30.1202 54.009 28.8106C54.9278 27.5009 55.4207 25.94 55.4205 24.3402C55.4205 24.1403 55.4131 23.9415 55.3985 23.7449C55.3857 23.6065 55.4005 23.4671 55.4421 23.3346C55.4837 23.202 55.5513 23.0791 55.6409 22.973C55.7305 22.8669 55.8404 22.7797 55.9641 22.7165C56.0877 22.6532 56.2228 22.6153 56.3613 22.6048C56.4998 22.5943 56.639 22.6115 56.7708 22.6554C56.9026 22.6993 57.0243 22.7689 57.1289 22.8603C57.2334 22.9518 57.3188 23.0631 57.3799 23.1878C57.441 23.3125 57.4766 23.4482 57.4847 23.5869C57.5036 23.8359 57.513 24.087 57.513 24.3402C57.5105 26.9584 56.4694 29.4687 54.6181 31.3202C52.7668 33.1717 50.2566 34.2131 47.6384 34.2158Z" fill="#307BC4"/>
  <path d="M53.8227 40.2945H53.8017C48.7106 40.1951 46.3189 35.7192 45.7654 33.3662C45.7051 33.0975 45.7531 32.8159 45.8991 32.5825C46.0451 32.349 46.2772 32.1825 46.5451 32.119C46.813 32.0555 47.0951 32.1002 47.3303 32.2434C47.5655 32.3866 47.7348 32.6167 47.8014 32.8838C47.8537 33.0931 49.1166 38.1099 53.8425 38.202C54.12 38.2046 54.3851 38.3174 54.5794 38.5155C54.7738 38.7135 54.8815 38.9807 54.8789 39.2582C54.8762 39.5357 54.7635 39.8008 54.5654 39.9951C54.3673 40.1895 54.1001 40.2972 53.8227 40.2945Z" fill="#307BC4"/>
  <path d="M47.4436 54.3356H47.3567C47.0802 54.3127 46.8242 54.1809 46.6448 53.9692C46.4655 53.7575 46.3776 53.4832 46.4004 53.2067C46.5516 52.1169 46.4797 51.0078 46.189 49.9466C45.8984 48.8855 45.3951 47.8945 44.7097 47.0338C43.0558 45.3215 40.8495 44.2497 38.4813 44.008C38.2045 43.988 37.947 43.8589 37.7654 43.649C37.5838 43.4392 37.493 43.1658 37.513 42.889C37.533 42.6122 37.6621 42.3547 37.8719 42.1731C38.0818 41.9915 38.3552 41.9007 38.6319 41.9207C41.5575 42.2033 44.2815 43.5362 46.3 45.6726C47.1683 46.7404 47.8098 47.9739 48.1856 49.2978C48.5614 50.6218 48.6635 52.0084 48.4857 53.3731C48.4646 53.6351 48.3457 53.8796 48.1527 54.0579C47.9596 54.2363 47.7064 54.3354 47.4436 54.3356Z" fill="#307BC4"/>
  <path d="M40.7673 63.3951H40.7182C40.5809 63.3888 40.4462 63.3555 40.3218 63.2971C40.1974 63.2387 40.0858 63.1564 39.9932 63.0549C39.9006 62.9534 39.8289 62.8346 39.7822 62.7054C39.7355 62.5762 39.7148 62.439 39.7211 62.3017C39.8916 58.6168 42.2949 51.7428 50.145 52.0201C50.2824 52.0252 50.4174 52.0573 50.5424 52.1146C50.6674 52.1718 50.7799 52.2532 50.8735 52.3539C50.967 52.4547 51.0398 52.5729 51.0877 52.7017C51.1356 52.8306 51.1576 52.9677 51.1525 53.1051C51.1475 53.2425 51.1154 53.3775 51.0581 53.5025C51.0008 53.6275 50.9195 53.74 50.8187 53.8336C50.718 53.9271 50.5998 53.9999 50.4709 54.0478C50.342 54.0957 50.205 54.1177 50.0676 54.1126C42.319 53.8333 41.8283 62.0485 41.8115 62.399C41.7986 62.6674 41.683 62.9204 41.4886 63.1059C41.2942 63.2913 41.036 63.3948 40.7673 63.3951Z" fill="#307BC4"/>
  <path d="M21.5224 35.466C18.9044 35.4633 16.3944 34.4222 14.543 32.5712C12.6917 30.7202 11.6501 28.2104 11.6467 25.5924C11.6467 25.3382 11.6561 25.086 11.675 24.8381C11.6831 24.6994 11.7188 24.5638 11.7799 24.439C11.841 24.3143 11.9263 24.203 12.0309 24.1116C12.1354 24.0201 12.2572 23.9505 12.389 23.9066C12.5207 23.8627 12.66 23.8455 12.7985 23.856C12.937 23.8665 13.072 23.9045 13.1957 23.9677C13.3193 24.0309 13.4292 24.1181 13.5188 24.2242C13.6084 24.3304 13.676 24.4533 13.7176 24.5858C13.7593 24.7183 13.7741 24.8578 13.7612 24.9961C13.7466 25.1928 13.7393 25.3916 13.7393 25.5924C13.7395 27.1919 14.2327 28.7524 15.1515 30.0616C16.0703 31.3708 17.3702 32.3651 18.8743 32.9091C20.3784 33.4532 22.0136 33.5206 23.5573 33.1021C25.101 32.6837 26.4784 31.7997 27.5018 30.5706C27.5897 30.465 27.6976 30.3777 27.8192 30.3138C27.9409 30.2499 28.0739 30.2106 28.2108 30.1981C28.3476 30.1856 28.4856 30.2002 28.6168 30.2411C28.748 30.2819 28.8699 30.3482 28.9755 30.4361C29.081 30.524 29.1683 30.6319 29.2322 30.7536C29.2961 30.8752 29.3354 31.0083 29.3479 31.1451C29.3604 31.2819 29.3458 31.4199 29.3049 31.5511C29.2641 31.6823 29.1978 31.8042 29.1099 31.9098C28.1843 33.0237 27.0245 33.92 25.713 34.5346C24.4016 35.1493 22.9707 35.4673 21.5224 35.466Z" fill="#307BC4"/>
  <path d="M15.3329 41.5501C15.0554 41.5528 14.7882 41.4451 14.5901 41.2507C14.3921 41.0564 14.2793 40.7913 14.2767 40.5138C14.274 40.2363 14.3817 39.9692 14.5761 39.7711C14.7704 39.573 15.0355 39.4603 15.313 39.4576C20.0379 39.3655 21.3018 34.3529 21.3541 34.1395C21.4207 33.8723 21.59 33.6422 21.8252 33.499C22.0604 33.3558 22.3425 33.3111 22.6104 33.3746C22.8784 33.4381 23.1105 33.6046 23.2564 33.8381C23.4024 34.0715 23.4504 34.3531 23.3901 34.6218C22.8419 36.9696 20.4439 41.4455 15.3538 41.5501H15.3329Z" fill="#307BC4"/>
  <path d="M15.5494 56.9888C15.2863 56.9897 15.0326 56.8915 14.8387 56.7137C14.6448 56.5359 14.525 56.2916 14.5032 56.0294C14.3235 54.663 14.4247 53.2743 14.8005 51.9484C15.1763 50.6225 15.8189 49.3873 16.6888 48.3184C18.7067 46.1819 21.4305 44.8489 24.3558 44.5665C24.6319 44.5503 24.9034 44.6424 25.1125 44.8234C25.3216 45.0044 25.4518 45.2598 25.4753 45.5354C25.4853 45.6724 25.4682 45.8101 25.4249 45.9406C25.3817 46.071 25.3132 46.1916 25.2233 46.2956C25.1334 46.3996 25.024 46.4848 24.9012 46.5464C24.7783 46.6081 24.6446 46.6449 24.5075 46.6549C22.1359 46.9025 19.9269 47.9766 18.2676 49.689C17.5859 50.5501 17.0856 51.5403 16.797 52.6C16.5084 53.6597 16.4374 54.7668 16.5884 55.8547C16.6112 56.1312 16.5233 56.4054 16.344 56.6172C16.1647 56.8289 15.9086 56.9607 15.6321 56.9836L15.5494 56.9888Z" fill="#307BC4"/>
  <path d="M22.2257 66.0473C21.9567 66.0476 21.6979 65.9443 21.503 65.7588C21.3082 65.5733 21.1923 65.32 21.1794 65.0513C21.1616 64.7008 20.6563 56.4625 12.9233 56.7628C12.6459 56.773 12.3757 56.6726 12.1722 56.4837C11.9687 56.2947 11.8486 56.0327 11.8384 55.7552C11.8281 55.4777 11.9285 55.2075 12.1174 55.0041C12.3064 54.8006 12.5684 54.6805 12.8459 54.6702C20.6856 54.3846 23.0993 61.2669 23.2698 64.9519C23.2762 65.0891 23.2554 65.2263 23.2087 65.3555C23.162 65.4848 23.0903 65.6035 22.9977 65.7051C22.9052 65.8066 22.7935 65.8889 22.6691 65.9472C22.5447 66.0056 22.41 66.0389 22.2727 66.0452L22.2257 66.0473Z" fill="#307BC4"/>
  <path d="M33.3044 63.0184H33.2981C33.1606 63.0176 33.0246 62.9897 32.8979 62.9363C32.7712 62.8829 32.6563 62.805 32.5597 62.7072C32.4631 62.6094 32.3868 62.4934 32.335 62.3661C32.2833 62.2387 32.2571 62.1023 32.2581 61.9649C32.3269 59.913 31.6677 57.9029 30.3973 56.2901C29.1269 54.6774 27.3271 53.5658 25.3161 53.1522C25.0436 53.0996 24.8032 52.9409 24.6477 52.7111C24.4922 52.4812 24.4344 52.199 24.487 51.9265C24.5396 51.654 24.6982 51.4136 24.9281 51.2581C25.158 51.1026 25.4402 51.0447 25.7127 51.0973C25.7995 51.1141 34.4082 52.876 34.3506 61.9785C34.349 62.2549 34.238 62.5194 34.042 62.7142C33.8459 62.9091 33.5808 63.0185 33.3044 63.0184Z" fill="#307BC4"/>
</svg> 