<svg width="73" height="73" viewBox="0 0 73 73" fill="none" xmlns="http://www.w3.org/2000/svg">
  <path d="M67.1598 1.85996C61.9298 -1.0357 56.1985 0.943158 52.3695 3.89949C47.2641 1.42418 41.6798 0.0933649 36.0067 0C30.3337 0.0932469 24.7493 1.42407 19.644 3.89949C15.8143 0.943771 10.0837 -1.03692 4.85372 1.85996C3.06953 2.7918 1.64748 4.2926 0.813079 6.12438C-0.0213252 7.95616 -0.220328 10.0141 0.247626 11.9718C0.937816 14.6027 2.26025 17.0252 4.09993 19.0286C4.04476 20.2009 4.24313 21.3713 4.68152 22.4599C5.1199 23.5485 5.78797 24.5297 6.64014 25.3366C7.93487 26.6706 9.6251 27.5517 11.4601 27.8492C11.7733 27.8939 12.0893 27.9167 12.4057 27.9172C13.09 27.9338 13.7706 27.8132 14.4076 27.5628C15.0445 27.3123 15.6249 26.9369 16.1146 26.4587C18.4171 24.1569 17.9133 19.9062 14.9919 16.9848C12.9205 14.9134 10.1848 14.0646 7.94426 14.5623C6.99288 13.4244 6.30142 12.0925 5.91822 10.6597C5.73489 9.93441 5.80995 9.1679 6.13049 8.49194C6.45102 7.81597 6.99701 7.27278 7.67461 6.95572C9.9268 5.70736 13.7742 6.02972 17.29 9.55844C17.4412 9.70961 17.5912 9.85832 17.7399 10.0046C18.7919 11.0359 19.6279 12.2665 20.1992 13.6245C20.7704 14.9825 21.0654 16.4406 21.067 17.9139C21.0355 20.2648 20.685 22.6007 20.0251 24.8573C17.4475 33.9543 19.6697 38.0511 22.4832 43.2376C25.4046 48.6287 29.0498 55.3473 29.0498 70.9361C29.0498 71.2205 29.1628 71.4933 29.3639 71.6944C29.565 71.8955 29.8378 72.0085 30.1223 72.0085C30.4067 72.0085 30.6795 71.8955 30.8806 71.6944C31.0817 71.4933 31.1947 71.2205 31.1947 70.9361C31.1947 54.8031 27.4086 47.8222 24.3659 42.2129C21.5842 37.0853 19.7469 33.6945 22.0861 25.4402C22.8003 22.996 23.179 20.4661 23.2119 17.92C23.2108 16.1603 22.8591 14.4185 22.1775 12.7962C21.4959 11.1739 20.498 9.70368 19.2419 8.47127C19.0979 8.33093 18.9545 8.18752 18.8093 8.04228C14.5053 3.72177 9.5928 3.43864 6.63524 5.07675C5.5508 5.62218 4.6831 6.51889 4.17361 7.62067C3.66412 8.72245 3.54288 9.96434 3.82967 11.1439C4.23555 12.7167 4.95812 14.1902 5.95315 15.4742C5.80024 15.5929 5.65473 15.7208 5.51742 15.8572C5.28691 16.0904 5.08151 16.3472 4.90458 16.6232C3.69559 15.1132 2.82062 13.3638 2.33741 11.4907C1.98198 9.98749 2.13865 8.40861 2.78256 7.00454C3.42648 5.60047 4.52077 4.45159 5.89187 3.74015C10.4318 1.22752 15.5453 3.25356 18.8172 5.98866C18.9775 6.12275 19.1735 6.20703 19.381 6.23109C19.5886 6.25516 19.7986 6.21796 19.9853 6.12409C24.9579 3.6078 30.4347 2.24755 36.0067 2.14493C41.5783 2.24669 47.0549 3.60589 52.0276 6.12103C52.2142 6.2149 52.4243 6.25209 52.6319 6.22803C52.8394 6.20396 53.0354 6.11969 53.1956 5.98559C56.4688 3.25111 61.5811 1.22323 66.121 3.73709C67.4929 4.4485 68.5877 5.59785 69.2317 7.00262C69.8757 8.40738 70.0319 9.98704 69.6755 11.4907C69.1926 13.3661 68.3168 15.1175 67.1058 16.6288C66.9299 16.3528 66.7255 16.0961 66.4961 15.8627C66.3586 15.7264 66.2131 15.5985 66.0603 15.4797C67.0559 14.1945 67.7785 12.7195 68.1838 11.1451C68.4705 9.96556 68.3492 8.72372 67.8397 7.62197C67.3303 6.52021 66.4626 5.6235 65.3783 5.07798C62.4213 3.44048 57.5094 3.72299 53.203 8.0435C53.059 8.18875 52.9156 8.33215 52.774 8.47249C51.518 9.70478 50.5202 11.175 49.8386 12.7972C49.1571 14.4194 48.8056 16.1611 48.8047 17.9206C48.8376 20.467 49.2163 22.997 49.9304 25.4414C52.2696 33.6975 50.4324 37.0853 47.6507 42.2135C44.6049 47.8222 40.8188 54.8031 40.8188 70.9361C40.8188 71.2205 40.9317 71.4933 41.1329 71.6944C41.334 71.8955 41.6068 72.0085 41.8912 72.0085C42.1757 72.0085 42.4484 71.8955 42.6496 71.6944C42.8507 71.4933 42.9637 71.2205 42.9637 70.9361C42.9637 55.3473 46.6064 48.6287 49.5327 43.2358C52.3462 38.0493 54.5684 33.9525 51.9908 24.8561C51.3309 22.5992 50.9805 20.2632 50.949 17.912C50.9509 16.4395 51.2461 14.982 51.8172 13.6247C52.3883 12.2674 53.224 11.0374 54.2755 10.0064C54.425 9.86016 54.5749 9.71124 54.7253 9.55967C58.2417 6.03033 62.0885 5.70798 64.3413 6.95694C65.0187 7.27421 65.5644 7.81749 65.8847 8.49344C66.205 9.16938 66.2799 9.93578 66.0965 10.6609C65.713 12.0935 65.0216 13.4251 64.0705 14.5629C61.8305 14.0653 59.0942 14.914 57.0228 16.9854C54.1014 19.9068 53.5977 24.1556 55.9001 26.4593C56.3898 26.9375 56.9702 27.3129 57.6072 27.5634C58.2441 27.8139 58.9247 27.9344 59.609 27.9179C59.9254 27.9173 60.2414 27.8946 60.5546 27.8498C62.3896 27.5523 64.0798 26.6712 65.3746 25.3372C66.2266 24.5301 66.8945 23.5488 67.3327 22.4601C67.7708 21.3713 67.969 20.2009 67.9136 19.0286C69.7527 17.0263 71.0751 14.6051 71.7659 11.9755C72.2347 10.0172 72.0362 7.95848 71.2017 6.12592C70.3673 4.29336 68.9447 2.79196 67.1598 1.85996ZM13.4751 18.4985C15.5251 20.5491 16.0392 23.4987 14.5978 24.9395C13.1319 26.4054 10.2424 25.9028 8.15692 23.8167C6.10697 21.7668 5.5928 18.8172 7.0342 17.3758C7.32856 17.0957 7.67586 16.8772 8.05574 16.733C8.43563 16.5889 8.84047 16.5219 9.24654 16.5362C10.8565 16.62 12.3717 17.3231 13.4751 18.4985ZM63.8566 23.8167C61.7729 25.9004 58.8803 26.4048 57.4156 24.9395C55.9742 23.4987 56.4884 20.5491 58.5384 18.4985C60.622 16.4149 63.5134 15.9099 64.9793 17.3758C66.4207 18.8172 65.9065 21.7668 63.8566 23.8167Z" fill="#307BC4"/>
  <path d="M45.8237 26.3123C44.4356 20.0001 45.2305 15.6177 46.1405 13.0566C46.2963 12.6161 46.3428 12.1444 46.2761 11.682C46.2093 11.2196 46.0314 10.7803 45.7575 10.4018C45.4832 10.0261 45.1233 9.72114 44.7077 9.51215C44.2921 9.30317 43.8326 9.19617 43.3674 9.20003C43.0119 9.20874 42.6563 9.18824 42.3042 9.13875C41.552 9.013 40.8178 8.79673 40.1176 8.49465C38.8233 7.91808 37.4223 7.62012 36.0054 7.62012C34.5885 7.62012 33.1875 7.91808 31.8933 8.49465C31.193 8.79673 30.4588 9.013 29.7067 9.13875C29.3543 9.18783 28.9985 9.20832 28.6428 9.20003C28.1774 9.19522 27.7177 9.30179 27.3019 9.51086C26.8861 9.71992 26.5264 10.0254 26.2527 10.4018C25.9788 10.7803 25.8009 11.2196 25.7342 11.682C25.6675 12.1444 25.714 12.6161 25.8697 13.0566C26.7797 15.6177 27.5746 19.997 26.1865 26.3123C24.6973 33.0909 25.9242 35.9547 27.6224 39.9173C29.7508 44.8813 32.6648 51.6838 32.6648 70.9355C32.6648 71.22 32.7778 71.4928 32.979 71.6939C33.1801 71.895 33.4529 72.008 33.7373 72.008C34.0217 72.008 34.2945 71.895 34.4956 71.6939C34.6968 71.4928 34.8098 71.22 34.8098 70.9355C34.8098 51.2438 31.7952 44.209 29.5939 39.0728C27.9423 35.2077 26.9428 32.8789 28.2849 26.7726C29.782 19.9609 28.8977 15.1636 27.8939 12.3384C27.8542 12.2248 27.8429 12.1032 27.8608 11.9843C27.8788 11.8653 27.9255 11.7525 27.9968 11.6557C28.0636 11.5604 28.1521 11.4824 28.2551 11.4282C28.3581 11.3741 28.4725 11.3453 28.5888 11.3444H28.6036C29.0749 11.3547 29.5462 11.327 30.0131 11.2616C30.9271 11.115 31.8198 10.8575 32.6716 10.495C33.7184 10.0137 34.8569 9.76447 36.0091 9.76447C37.1613 9.76447 38.2998 10.0137 39.3466 10.495C40.1984 10.8575 41.0911 11.115 42.0051 11.2616C42.472 11.327 42.9433 11.3546 43.4146 11.3444H43.422C43.5384 11.3454 43.6529 11.3741 43.756 11.4283C43.859 11.4824 43.9477 11.5604 44.0146 11.6557C44.086 11.7525 44.1327 11.8653 44.1506 11.9843C44.1686 12.1032 44.1572 12.2248 44.1176 12.3384C43.1131 15.1636 42.2294 19.9609 43.7266 26.7726C45.0681 32.8783 44.0685 35.2101 42.4139 39.0735C40.2126 44.2097 37.198 51.2444 37.198 70.9361C37.198 71.2206 37.311 71.4934 37.5121 71.6945C37.7132 71.8956 37.986 72.0086 38.2705 72.0086C38.5549 72.0086 38.8277 71.8956 39.0288 71.6945C39.2299 71.4934 39.3429 71.2206 39.3429 70.9361C39.3429 51.6844 42.257 44.8838 44.3854 39.9179C46.086 35.9547 47.3129 33.0909 45.8237 26.3123Z" fill="#307BC4"/>
</svg> 