<svg width="77" height="72" viewBox="0 0 77 72" fill="none" xmlns="http://www.w3.org/2000/svg">
    <path d="M48.6453 35.8125C47.8216 35.8125 47.1531 36.481 47.1531 37.3047C47.1531 38.1284 47.8216 38.7969 48.6453 38.7969C49.469 38.7969 50.1375 38.1284 50.1375 37.3047C50.1375 36.481 49.469 35.8125 48.6453 35.8125Z" fill="#307BC4"/>
    <path d="M62.075 59.6875H60.2924L55.4346 32.4519C54.5303 27.4822 50.2079 23.875 45.1565 23.875H31.2434C26.1911 23.875 21.8692 27.4824 20.9659 32.457L16.1075 59.6875H14.325C11.8566 59.6875 9.84839 61.6957 9.84839 64.1641V70.1328C9.84839 70.9568 10.5164 71.625 11.3406 71.625H65.0593C65.8833 71.625 66.5515 70.9568 66.5515 70.1328V64.1641C66.5515 61.6957 64.5433 59.6875 62.075 59.6875ZM23.9032 32.9857C24.5476 29.4359 27.6347 26.8594 31.2434 26.8594H45.1565C48.7648 26.8594 51.8524 29.4361 52.4973 32.9811L57.2609 59.6875H19.139L23.9032 32.9857ZM63.5671 68.6406H12.8328V64.1641C12.8328 63.3413 13.5022 62.6719 14.325 62.6719C17.6783 62.6719 60.043 62.6719 62.075 62.6719C62.8977 62.6719 63.5671 63.3413 63.5671 64.1641V68.6406Z" fill="#307BC4"/>
    <path d="M53.4561 54.9444L51.267 42.8949C51.1197 42.0838 50.3416 41.5454 49.5322 41.6934C48.7212 41.8407 48.1834 42.6174 48.3307 43.4282L50.5197 55.4777C50.668 56.2948 51.4511 56.826 52.2545 56.6792C53.0655 56.5319 53.6035 55.7551 53.4561 54.9444Z" fill="#307BC4"/>
    <path d="M74.9078 35.8125H62.075C61.251 35.8125 60.5828 36.4807 60.5828 37.3047C60.5828 38.1287 61.251 38.7969 62.075 38.7969H74.9078C75.7317 38.7969 76.4 38.1287 76.4 37.3047C76.4 36.4807 75.7317 35.8125 74.9078 35.8125Z" fill="#307BC4"/>
    <path d="M14.325 35.8125H1.49219C0.668052 35.8125 0 36.4807 0 37.3047C0 38.1287 0.668052 38.7969 1.49219 38.7969H14.325C15.1491 38.7969 15.8172 38.1287 15.8172 37.3047C15.8172 36.4807 15.1491 35.8125 14.325 35.8125Z" fill="#307BC4"/>
    <path d="M64.5791 10.9257C63.9962 10.3431 63.0517 10.3431 62.4687 10.9257L54.0274 19.367C53.4447 19.9497 53.4447 20.8945 54.0274 21.4774C54.6104 22.0601 55.5548 22.0599 56.1378 21.4774L64.5791 13.0361C65.1619 12.4532 65.1619 11.5084 64.5791 10.9257Z" fill="#307BC4"/>
    <path d="M22.3726 19.367L13.9313 10.9257C13.3485 10.3432 12.4038 10.343 11.8209 10.9257C11.2382 11.5084 11.2382 12.4533 11.8209 13.0361L20.2622 21.4774C20.8452 22.0601 21.7898 22.0601 22.3726 21.4774C22.9553 20.8947 22.9553 19.9499 22.3726 19.367Z" fill="#307BC4"/>
    <path d="M38.2 0C37.376 0 36.7078 0.668202 36.7078 1.49219V13.4297C36.7078 14.2537 37.376 14.9219 38.2 14.9219C39.0239 14.9219 39.6921 14.2537 39.6921 13.4297V1.49219C39.6921 0.668202 39.0239 0 38.2 0Z" fill="#307BC4"/>
  </svg>