<svg width="28" height="33" viewBox="0 0 28 33" fill="none" xmlns="http://www.w3.org/2000/svg">
<path d="M13.7881 15.8963C16.009 15.8963 17.932 15.113 19.5036 13.5676C21.0747 12.0225 21.8715 10.132 21.8715 7.94788C21.8715 5.76453 21.075 3.87373 19.5033 2.32812C17.9317 0.783257 16.0088 0 13.7881 0C11.5668 0 9.64416 0.783257 8.07279 2.32837C6.50141 3.87348 5.70459 5.76427 5.70459 7.94788C5.70459 10.132 6.50141 12.0228 8.07279 13.5679C9.64467 15.1127 11.5676 15.8963 13.7881 15.8963ZM9.46365 3.69573C10.6694 2.51015 12.0838 1.93385 13.7881 1.93385C15.4921 1.93385 16.9067 2.51015 18.1127 3.69573C19.3185 4.88157 19.9048 6.2726 19.9048 7.94788C19.9048 9.62366 19.3185 11.0144 18.1127 12.2003C16.9067 13.3861 15.4921 13.9624 13.7881 13.9624C12.0843 13.9624 10.6699 13.3859 9.46365 12.2003C8.25766 11.0147 7.6713 9.62366 7.6713 7.94788C7.6713 6.2726 8.25766 4.88157 9.46365 3.69573Z" fill="white"/>
<path d="M27.9321 25.3754C27.8868 24.7324 27.7952 24.0309 27.6602 23.2902C27.524 22.544 27.3486 21.8385 27.1387 21.1937C26.9215 20.5273 26.6268 19.8692 26.2619 19.2385C25.8838 18.5839 25.4393 18.0139 24.9405 17.5448C24.4189 17.0541 23.7803 16.6596 23.0419 16.3718C22.306 16.0856 21.4905 15.9406 20.6181 15.9406C20.2755 15.9406 19.9442 16.0788 19.3043 16.4884C18.9105 16.7409 18.4499 17.033 17.9357 17.356C17.4961 17.6314 16.9005 17.8895 16.1649 18.1232C15.4472 18.3515 14.7185 18.4673 13.999 18.4673C13.28 18.4673 12.5513 18.3515 11.8331 18.1232C11.0982 17.8898 10.5024 17.6317 10.0635 17.3563C9.55422 17.0363 9.09333 16.7442 8.69364 16.4882C8.05428 16.0785 7.72295 15.9403 7.38036 15.9403C6.50775 15.9403 5.69248 16.0856 4.95686 16.3721C4.21892 16.6594 3.58008 17.0539 3.058 17.5451C2.55921 18.0144 2.11471 18.5841 1.73678 19.2385C1.37242 19.8692 1.07745 20.5271 0.860325 21.194C0.650621 21.8388 0.475227 22.544 0.339009 23.2902C0.203815 24.0299 0.112406 24.7316 0.0670849 25.3761C0.0225323 26.0063 0 26.6622 0 27.3248C0 29.0475 0.556907 30.442 1.6551 31.4705C2.73973 32.4854 4.17463 33 5.92011 33H22.0799C23.8249 33 25.2598 32.4854 26.3446 31.4705C27.4431 30.4428 28 29.0477 28 27.3246C27.9997 26.6597 27.977 26.0038 27.9321 25.3754ZM24.9886 30.0694C24.2719 30.7401 23.3204 31.0661 22.0796 31.0661H5.92011C4.67904 31.0661 3.72756 30.7401 3.01114 30.0696C2.30828 29.4118 1.96671 28.5137 1.96671 27.3248C1.96671 26.7065 1.98745 26.096 2.02893 25.5098C2.06939 24.9348 2.15209 24.3031 2.27474 23.6319C2.39585 22.969 2.54999 22.3468 2.73332 21.7836C2.90923 21.2436 3.14915 20.7088 3.44668 20.1937C3.73064 19.7028 4.05735 19.2815 4.41787 18.9422C4.75509 18.6247 5.18013 18.3649 5.68096 18.17C6.14416 17.9897 6.6647 17.891 7.2298 17.8762C7.29868 17.9122 7.42133 17.9809 7.62002 18.1083C8.02432 18.3674 8.49033 18.6629 9.0055 18.9865C9.58622 19.3505 10.3344 19.6793 11.2283 19.9631C12.1421 20.2536 13.0741 20.4012 13.9992 20.4012C14.9243 20.4012 15.8566 20.2536 16.7699 19.9633C17.6646 19.6791 18.4125 19.3505 18.994 18.986C19.5212 18.6546 19.9741 18.3676 20.3784 18.1083C20.5771 17.9812 20.6998 17.9122 20.7687 17.8762C21.334 17.891 21.8546 17.9897 22.318 18.17C22.8186 18.3649 23.2436 18.6249 23.5808 18.9422C23.9414 19.2813 24.2681 19.7025 24.552 20.194C24.8498 20.7088 25.09 21.2438 25.2656 21.7834C25.4492 22.3474 25.6036 22.9692 25.7245 23.6316C25.8469 24.3041 25.9298 24.9361 25.9703 25.5101V25.5106C26.012 26.0944 26.033 26.7047 26.0333 27.3248C26.033 28.514 25.6915 29.4118 24.9886 30.0694Z" fill="white"/>
</svg>
