<svg width="33" height="33" viewBox="0 0 33 33" fill="none" xmlns="http://www.w3.org/2000/svg">
<path d="M22.3785 19.4137L17.7774 15.9629V8.9335C17.7774 8.22671 17.2061 7.6554 16.4993 7.6554C15.7925 7.6554 15.2212 8.22671 15.2212 8.9335V16.602C15.2212 17.0046 15.4104 17.3842 15.7324 17.6245L20.8447 21.4587C21.0748 21.6313 21.3432 21.7144 21.6103 21.7144C22.0001 21.7144 22.3835 21.5392 22.6341 21.2018C23.0585 20.6381 22.9434 19.8368 22.3785 19.4137Z" fill="white"/>
<path d="M16.5 0C7.40135 0 0 7.40135 0 16.5C0 25.5987 7.40135 33 16.5 33C25.5987 33 33 25.5987 33 16.5C33 7.40135 25.5987 0 16.5 0ZM16.5 30.4439C8.81235 30.4439 2.55615 24.1876 2.55615 16.5C2.55615 8.81235 8.81235 2.55615 16.5 2.55615C24.1889 2.55615 30.4439 8.81235 30.4439 16.5C30.4439 24.1876 24.1876 30.4439 16.5 30.4439Z" fill="white"/>
</svg>
