<svg width="39" height="33" viewBox="0 0 39 33" fill="none" xmlns="http://www.w3.org/2000/svg">
<path d="M38.3069 3.5561C37.8016 2.91838 37.0939 2.52886 36.3142 2.45933L8.84999 0.0110989C8.07015 -0.05843 7.31194 0.200413 6.71452 0.73981C6.11955 1.27709 5.75522 2.02874 5.68803 2.85715L5.13549 8.39149H2.92918C1.31404 8.39149 0 9.79434 0 11.5187V29.8728C0 31.5971 1.31404 33 2.92918 33H30.489C32.1043 33 33.4183 31.5971 33.4183 29.8728V26.8954L34.3963 26.9826C34.4787 26.9899 34.5608 26.9936 34.6421 26.9936C36.1479 26.9936 37.4315 25.7568 37.559 24.1265L38.9896 5.83599C39.0547 5.00352 38.8122 4.19389 38.3069 3.5561ZM2.92918 10.0179H30.489C31.2642 10.0179 31.8949 10.6911 31.8949 11.5187V13.1911H1.52343V11.5187C1.52343 10.6911 2.15406 10.0179 2.92918 10.0179ZM1.52343 14.8175H31.8949V18.1914H1.52343V14.8175ZM30.489 31.3736H2.92918C2.15406 31.3736 1.52343 30.7003 1.52343 29.8728V19.8178H31.8949V29.8728C31.8949 30.7003 31.2642 31.3736 30.489 31.3736ZM37.4715 5.7006L36.0409 23.9911C35.9764 24.8158 35.2953 25.4309 34.523 25.3618L33.4183 25.2633V11.5187C33.4183 9.79434 32.1043 8.39149 30.489 8.39149H6.6676L7.20377 3.02109C7.20438 3.01491 7.20491 3.00881 7.20537 3.00255C7.26989 2.17788 7.95056 1.56277 8.72324 1.63189L36.1875 4.08013C36.5617 4.11347 36.9014 4.30042 37.1438 4.60651C37.3863 4.9126 37.5027 5.30107 37.4715 5.7006Z" fill="white"/>
<path d="M28.7074 22.2356H21.3765C20.9558 22.2356 20.6147 22.5997 20.6147 23.0488V28.1548C20.6147 28.604 20.9558 28.9681 21.3765 28.9681H28.7074C29.1281 28.9681 29.4691 28.604 29.4691 28.1548V23.0488C29.4691 22.5997 29.1281 22.2356 28.7074 22.2356ZM27.9457 27.3416H22.1382V23.862H27.9457V27.3416Z" fill="white"/>
</svg>
