<svg width="29" height="26" viewBox="0 0 29 26" fill="none" xmlns="http://www.w3.org/2000/svg">
<path d="M27.5119 0H0.851761C0.383292 0 0 0.433333 0 0.962963C0 1.49259 0.383292 1.92593 0.851761 1.92593H27.5119C27.9803 1.92593 28.3636 1.49259 28.3636 0.962963C28.3636 0.433333 27.9803 0 27.5119 0Z" fill="white"/>
<path d="M19.5905 7.99255H0.851761C0.383292 7.99255 0 8.42589 0 8.95552C0 9.48515 0.383292 9.91848 0.851761 9.91848H19.5905C20.059 9.91848 20.4423 9.48515 20.4423 8.95552C20.4423 8.42589 20.059 7.99255 19.5905 7.99255Z" fill="white"/>
<path d="M27.5119 16.0815H0.851761C0.383292 16.0815 0 16.5149 0 17.0445C0 17.5741 0.383292 18.0075 0.851761 18.0075H27.5119C27.9803 18.0075 28.3636 17.5741 28.3636 17.0445C28.3636 16.5149 27.9803 16.0815 27.5119 16.0815Z" fill="white"/>
<path d="M12.8616 24.0741H0.851761C0.383292 24.0741 0 24.5074 0 25.0371C0 25.5667 0.383292 26 0.851761 26H12.8616C13.3301 26 13.7133 25.5667 13.7133 25.0371C13.7133 24.5074 13.3301 24.0741 12.8616 24.0741Z" fill="white"/>
</svg>
