<svg width="70" height="72" viewBox="0 0 70 72" fill="none" xmlns="http://www.w3.org/2000/svg">
<path d="M36.2499 29.7944C32.1137 29.7944 28.75 33.1349 28.75 37.2425C28.75 41.3501 32.1137 44.6905 36.2499 44.6905C40.386 44.6905 43.7497 41.3501 43.7497 37.2425C43.7497 33.1349 40.386 29.7944 36.2499 29.7944ZM36.2499 42.2078C33.4924 42.2078 31.25 39.9809 31.25 37.2425C31.25 34.5041 33.4924 32.2771 36.2499 32.2771C39.0073 32.2771 41.2498 34.5041 41.2498 37.2425C41.2498 39.9809 39.0073 42.2078 36.2499 42.2078Z" fill="#307BC4"/>
<path d="M63.8532 40.8821C65.4519 40.6152 67.0756 40.5047 68.7131 40.5531C69.3956 40.5469 69.9781 40.033 69.9981 39.3465C70.0181 38.6613 69.4743 38.0903 68.7843 38.0705C65.8757 37.991 63.0095 38.3808 60.232 39.1914C60.1508 39.2088 60.0745 39.2323 59.9983 39.2659C59.5333 39.4061 59.0683 39.5439 58.6083 39.709C55.4071 39.539 52.6909 37.7576 51.3209 34.9026C49.9159 31.9705 50.2947 28.1397 52.2397 25.5838C52.3184 25.4808 52.3834 25.3641 52.4284 25.235C52.6234 24.6752 52.8446 24.1265 53.0684 23.5803H53.0821C55.3021 23.5803 57.4983 23.27 59.6183 22.6952C61.9507 24.3226 64.7019 25.1965 67.5406 25.1965C67.9806 25.1965 68.4219 25.1754 68.8643 25.1332C69.5518 25.0687 70.0556 24.4629 69.9906 23.7801C69.9243 23.0962 69.3068 22.5748 68.6281 22.6629C66.5781 22.8566 64.5519 22.4879 62.727 21.6314C64.7319 20.7935 66.6344 19.7036 68.3706 18.3592C68.9156 17.9372 69.0118 17.1576 68.5869 16.6176C68.1619 16.0764 67.3756 15.982 66.8319 16.4029C63.2045 19.2145 58.792 20.8431 54.2171 21.0703C56.2133 17.1824 58.9783 13.7116 62.3645 10.8839C62.8932 10.4432 62.9607 9.6599 62.517 9.13482C62.0732 8.60973 61.2857 8.5427 60.7557 8.98337C56.5921 12.4604 53.3096 16.8448 51.1297 21.7667C51.1172 21.7903 51.1072 21.8126 51.0972 21.8375C50.7697 22.5798 50.4672 23.3345 50.1922 24.1004C48.3172 25.8445 45.7173 26.2988 43.7848 25.1729C41.6223 23.9155 40.5361 21.3024 41.2024 18.9588C41.2074 18.9414 41.2036 18.9253 41.2074 18.9079C41.2111 18.8917 41.2224 18.8793 41.2249 18.862C41.4361 17.7956 41.5798 16.7194 41.6923 15.6407C45.6135 13.3094 48.5372 9.68721 49.9384 5.34625C50.1484 4.6933 49.7872 3.99319 49.1297 3.78464C48.471 3.57858 47.7685 3.93608 47.5585 4.58655C46.5273 7.78176 44.5398 10.5239 41.8861 12.5199C41.8948 12.0209 41.8861 11.5232 41.8723 11.0241C41.8698 10.9695 41.8773 10.9161 41.8673 10.8628C41.7661 7.4739 41.2011 4.09994 40.1449 0.860044C39.9324 0.207099 39.2299 -0.150407 38.5712 0.0606209C37.9149 0.271649 37.5549 0.970523 37.7674 1.62347C38.5737 4.0987 39.0686 6.65834 39.2786 9.23909C36.4674 7.92823 34.3937 5.41204 33.72 2.32234C33.5737 1.65326 32.9075 1.22624 32.2338 1.37148C31.5588 1.51671 31.1313 2.17711 31.2763 2.84743C32.21 7.12509 35.29 10.5214 39.3999 11.9539C39.3986 14.0058 39.2024 16.0578 38.8211 18.0812C35.76 21.7319 33.045 23.5877 27.1526 23.5877C21.8952 23.5877 17.684 22.041 14.6378 18.9898C14.6366 18.9886 14.6366 18.9886 14.6353 18.9886C14.6353 18.9886 14.6341 18.9873 14.6341 18.9861C14.1929 18.5467 13.7904 18.0762 13.3691 17.6206C14.8041 13.5465 15.3728 9.15468 14.9953 4.85964C14.9353 4.1769 14.3478 3.66175 13.6416 3.73126C12.9541 3.79085 12.4441 4.3929 12.5054 5.07563C12.8091 8.5427 12.4416 12.0756 11.4567 15.421C9.38169 12.8576 7.57922 10.0906 6.12425 7.11516C5.82301 6.49697 5.07302 6.24125 4.45428 6.54166C3.83304 6.84082 3.5743 7.5819 3.87679 8.20009C4.93927 10.3737 6.1805 12.4417 7.55922 14.413C5.52676 14.3547 3.5043 14.1163 1.51683 13.6868C0.843097 13.5304 0.176859 13.9649 0.0293621 14.6352C-0.118135 15.3043 0.310607 15.9659 0.984345 16.1124C3.4568 16.6474 5.983 16.9168 8.51296 16.9168C8.8242 16.9168 9.13544 16.9044 9.44669 16.8957C9.93168 17.4977 10.4279 18.0886 10.9429 18.6658C11.0067 18.7515 11.0729 18.8297 11.1579 18.898C11.7004 19.4975 12.2329 20.1058 12.8079 20.678C12.8079 20.678 12.8079 20.6793 12.8091 20.6793L12.9654 20.858C16.4616 24.8254 21.2502 30.2562 21.2502 34.7598C21.2502 38.5583 18.1215 40.5022 14.4991 42.7528C14.1366 42.9775 13.7716 43.2071 13.4079 43.4368C9.33794 43.3759 5.67426 42.26 1.91558 39.9151C1.33184 39.5514 0.560602 39.7276 0.193109 40.3049C-0.175634 40.8871 0.000612836 41.653 0.585602 42.0179C3.74929 43.9916 6.86049 45.1809 10.1642 45.6699C6.71549 48.1551 3.4318 50.8823 0.379356 53.8243C-0.115635 54.3022 -0.128135 55.088 0.353106 55.5796C0.599352 55.8303 0.924346 55.9557 1.25059 55.9557C1.56433 55.9557 1.87808 55.839 2.12057 55.6056C3.88804 53.9013 5.74051 52.2776 7.65172 50.7247C6.69549 54.4288 6.22425 58.2323 6.2505 62.078C6.2555 62.7607 6.81424 63.3106 7.50047 63.3106H7.50922C8.19921 63.3057 8.75545 62.7458 8.75045 62.0606C8.7167 57.2914 9.49919 52.5916 11.0617 48.0856C12.1479 47.2899 13.2491 46.5178 14.3691 45.7755C17.5803 44.1692 21.4065 44.6694 24.3764 47.0863C27.1414 49.3369 28.3801 52.8623 27.6626 56.2052C23.7002 57.701 19.9865 59.7455 16.6316 62.3312C16.0853 62.752 15.9866 63.5316 16.4103 64.0728C16.6553 64.3869 17.024 64.552 17.3965 64.552C17.664 64.552 17.934 64.4676 18.1615 64.2913C21.0452 62.0693 24.2177 60.2818 27.5839 58.9113C27.6101 59.213 27.6551 59.5121 27.6951 59.8125C25.4214 62.5311 24.8477 69.0729 25.0039 70.8642C25.0614 71.5122 25.6064 72 26.2489 72C26.2851 72 26.3214 71.9988 26.3576 71.995C27.0451 71.9354 27.5551 71.3346 27.4951 70.6519C27.3576 69.0717 27.8076 65.6555 28.6301 63.323C29.2838 64.8188 30.2338 66.1856 31.425 67.3127C32.4863 68.3157 33.5587 68.9736 34.905 69.4466C35.0437 69.4937 35.1837 69.5173 35.3225 69.5173C35.8375 69.5173 36.3187 69.1995 36.5012 68.6906C36.7312 68.0438 36.3912 67.3338 35.74 67.1066C34.7287 66.7504 33.9537 66.2749 33.15 65.514C31.6188 64.0666 30.5863 62.1251 30.2426 60.0459C30.0938 59.1521 30.0213 58.2397 30.0101 57.3323C31.2375 54.1321 33.7862 51.8158 37.0474 50.9705C40.2761 50.1276 43.7573 50.8314 46.2735 52.7716C46.391 57.2169 47.736 61.5156 50.2072 65.2372C50.4459 65.5972 50.8447 65.7933 51.2509 65.7933C51.4872 65.7933 51.7259 65.7263 51.9372 65.5885C52.5134 65.2111 52.6721 64.4402 52.2934 63.868C50.3522 60.9446 49.1885 57.6228 48.8585 54.1644C52.9896 56.3343 56.4483 59.5307 58.9395 63.5005C59.1758 63.8792 59.5845 64.0865 60.002 64.0865C60.2283 64.0865 60.4557 64.0256 60.662 63.899C61.2482 63.5365 61.427 62.7719 61.062 62.1897C59.557 59.7902 57.7221 57.6563 55.6258 55.8191C57.8845 55.5473 60.1658 55.5485 62.4395 55.8514C63.1195 55.9395 63.7519 55.4641 63.8444 54.7863C63.9357 54.1061 63.4557 53.4817 62.7707 53.3911C59.4845 52.9554 56.1821 53.0869 52.9421 53.7473C51.6222 52.8412 50.2222 52.043 48.751 51.359C48.7485 48.0359 48.7797 45.619 50.2222 44.1853C51.5772 42.836 54.2871 42.2078 58.7495 42.2078C58.8958 42.2078 59.0433 42.1818 59.1883 42.1296C59.5845 41.9819 59.9883 41.8739 60.3895 41.7461C63.2232 43.2146 65.7757 45.2665 67.7744 47.7417C68.0219 48.0483 68.3844 48.2072 68.7506 48.2072C69.0256 48.2072 69.3006 48.1179 69.5318 47.9341C70.0706 47.5046 70.1568 46.7238 69.7256 46.1901C68.0669 44.1356 66.0681 42.3407 63.8532 40.8821ZM48.451 42.4313C46.6123 44.2585 46.306 46.802 46.2573 49.7614C43.3448 48.1365 39.8149 47.6809 36.4149 48.566C33.9987 49.1929 31.855 50.5124 30.2051 52.321C29.7176 49.5839 28.2463 47.0255 25.9601 45.1647C24.0339 43.5969 21.7565 42.6771 19.444 42.4425C21.874 40.578 23.7502 38.2902 23.7502 34.7598C23.7502 31.4603 21.8552 28.0131 19.5253 24.8601C21.824 25.6595 24.3864 26.0704 27.1526 26.0704C32.5913 26.0704 35.8424 24.5758 38.6674 21.9057C39.1124 24.1128 40.4874 26.1325 42.5211 27.3167C44.2835 28.3408 46.3898 28.5283 48.3735 27.9473C47.6685 30.5864 47.876 33.4874 49.066 35.9689C49.9234 37.7552 51.1847 39.2199 52.7271 40.2813C50.8484 40.7182 49.4622 41.4246 48.451 42.4313Z" fill="#307BC4"/>
</svg>
