<svg width="77" height="72" viewBox="0 0 77 72" fill="none" xmlns="http://www.w3.org/2000/svg">
<path d="M48.6455 35.8125C47.8218 35.8125 47.1533 36.481 47.1533 37.3047C47.1533 38.1284 47.8218 38.7969 48.6455 38.7969C49.4692 38.7969 50.1377 38.1284 50.1377 37.3047C50.1377 36.481 49.4692 35.8125 48.6455 35.8125Z" fill="#307BC4"/>
<path d="M62.0752 59.6875H60.2926L55.4348 32.4519C54.5305 27.4822 50.2081 23.875 45.1568 23.875H31.2436C26.1914 23.875 21.8694 27.4824 20.9662 32.457L16.1078 59.6875H14.3252C11.8568 59.6875 9.84863 61.6957 9.84863 64.1641V70.1328C9.84863 70.9568 10.5167 71.625 11.3408 71.625H65.0596C65.8836 71.625 66.5518 70.9568 66.5518 70.1328V64.1641C66.5518 61.6957 64.5436 59.6875 62.0752 59.6875ZM23.9034 32.9857C24.5479 29.4359 27.6349 26.8594 31.2436 26.8594H45.1568C48.765 26.8594 51.8527 29.4361 52.4976 32.9811L57.2611 59.6875H19.1393L23.9034 32.9857ZM63.5674 68.6406H12.833V64.1641C12.833 63.3413 13.5024 62.6719 14.3252 62.6719C17.6786 62.6719 60.0433 62.6719 62.0752 62.6719C62.898 62.6719 63.5674 63.3413 63.5674 64.1641V68.6406Z" fill="#307BC4"/>
<path d="M53.4558 54.9444L51.2668 42.8949C51.1195 42.0838 50.3413 41.5454 49.5319 41.6934C48.7209 41.8407 48.1832 42.6174 48.3304 43.4282L50.5195 55.4777C50.6678 56.2948 51.4509 56.826 52.2543 56.6792C53.0653 56.5319 53.6032 55.7551 53.4558 54.9444Z" fill="#307BC4"/>
<path d="M74.908 35.8125H62.0752C61.2512 35.8125 60.583 36.4807 60.583 37.3047C60.583 38.1287 61.2512 38.7969 62.0752 38.7969H74.908C75.732 38.7969 76.4002 38.1287 76.4002 37.3047C76.4002 36.4807 75.732 35.8125 74.908 35.8125Z" fill="#307BC4"/>
<path d="M14.325 35.8125H1.49219C0.668052 35.8125 0 36.4807 0 37.3047C0 38.1287 0.668052 38.7969 1.49219 38.7969H14.325C15.1491 38.7969 15.8172 38.1287 15.8172 37.3047C15.8172 36.4807 15.1491 35.8125 14.325 35.8125Z" fill="#307BC4"/>
<path d="M64.5791 10.9257C63.9962 10.3431 63.0517 10.3431 62.4687 10.9257L54.0274 19.367C53.4447 19.9497 53.4447 20.8945 54.0274 21.4774C54.6104 22.0601 55.5548 22.0599 56.1378 21.4774L64.5791 13.0361C65.1619 12.4532 65.1619 11.5084 64.5791 10.9257Z" fill="#307BC4"/>
<path d="M22.3725 19.367L13.9312 10.9257C13.3484 10.3432 12.4037 10.343 11.8208 10.9257C11.2381 11.5084 11.2381 12.4533 11.8208 13.0361L20.2621 21.4774C20.8451 22.0601 21.7897 22.0601 22.3725 21.4774C22.9552 20.8947 22.9552 19.9499 22.3725 19.367Z" fill="#307BC4"/>
<path d="M38.2002 0C37.3762 0 36.708 0.668202 36.708 1.49219V13.4297C36.708 14.2537 37.3762 14.9219 38.2002 14.9219C39.0242 14.9219 39.6924 14.2537 39.6924 13.4297V1.49219C39.6924 0.668202 39.0242 0 38.2002 0Z" fill="#307BC4"/>
</svg>
