<svg width="67" height="74" viewBox="0 0 67 74" fill="none" xmlns="http://www.w3.org/2000/svg">
<path d="M53.9011 17.3061C53.7087 17.3061 53.5201 17.2529 53.3559 17.1526C53.1917 17.0522 53.0584 16.9086 52.9706 16.7374C52.8828 16.5662 52.8439 16.3741 52.8582 16.1823C52.8725 15.9904 52.9394 15.8062 53.0515 15.6499C53.6882 14.7605 54.028 13.6928 54.0224 12.599C54.0205 11.3328 53.5675 10.1087 52.7447 9.14636C51.9218 8.18398 50.783 7.54626 49.5325 7.34761C48.282 7.14895 47.0016 7.40236 45.921 8.06236C44.8405 8.72237 44.0304 9.7458 43.6362 10.9491C43.5454 11.2071 43.3571 11.4193 43.1117 11.5402C42.8663 11.6611 42.5833 11.6811 42.3233 11.5958C42.0634 11.5106 41.8471 11.3269 41.721 11.0842C41.5948 10.8415 41.5687 10.559 41.6483 10.2972C42.1973 8.62058 43.3259 7.19448 44.8315 6.27489C46.3371 5.35531 48.1212 5.00245 49.8635 5.27965C51.6059 5.55685 53.1924 6.44596 54.3383 7.7874C55.4842 9.12884 56.1145 10.8348 56.116 12.599C56.1234 14.1303 55.6474 15.6248 54.7559 16.8699C54.6585 17.0055 54.5302 17.1159 54.3815 17.1918C54.2327 17.2677 54.068 17.3069 53.9011 17.3061Z" fill="#307BC4"/>
<path d="M62.0577 29.4022C61.8857 29.4022 61.7164 29.3598 61.5647 29.2787C61.413 29.1976 61.2837 29.0804 61.1881 28.9375C61.0925 28.7945 61.0336 28.6302 61.0167 28.459C60.9997 28.2879 61.0252 28.1152 61.0909 27.9563C61.4567 27.0571 61.6416 26.0947 61.635 25.124C61.647 24.0904 61.4537 23.0647 61.0664 22.1063C60.6792 21.1479 60.1056 20.2758 59.3789 19.5407C58.6522 18.8056 57.7869 18.2219 56.833 17.8236C55.8791 17.4252 54.8557 17.2201 53.822 17.2201C52.7883 17.2201 51.7649 17.4252 50.8111 17.8236C49.8572 18.2219 48.9919 18.8056 48.2652 19.5407C47.5385 20.2758 46.9649 21.1479 46.5776 22.1063C46.1904 23.0647 45.9971 24.0904 46.0091 25.124C46.0091 25.4015 45.8988 25.6676 45.7026 25.8639C45.5064 26.0601 45.2403 26.1703 44.9628 26.1703C44.6853 26.1703 44.4192 26.0601 44.223 25.8639C44.0268 25.6676 43.9165 25.4015 43.9165 25.124C43.9031 23.8147 44.1494 22.5156 44.6411 21.302C45.1329 20.0884 45.8604 18.9844 46.7815 18.0537C47.7027 17.123 48.7992 16.3842 50.0077 15.88C51.2161 15.3758 52.5126 15.1162 53.822 15.1162C55.1315 15.1162 56.4279 15.3758 57.6364 15.88C58.8449 16.3842 59.9414 17.123 60.8625 18.0537C61.7837 18.9844 62.5112 20.0884 63.0029 21.302C63.4947 22.5156 63.741 23.8147 63.7275 25.124C63.7349 26.3703 63.4963 27.6058 63.0255 28.7598C62.9457 28.9505 62.8112 29.1133 62.6389 29.2276C62.4667 29.342 62.2644 29.4027 62.0577 29.4022Z" fill="#307BC4"/>
<path d="M56.6998 45.3043C56.3597 45.3043 56.0228 45.2865 55.6912 45.2541C55.5545 45.2404 55.4218 45.1998 55.3007 45.1348C55.1797 45.0698 55.0726 44.9816 54.9857 44.8752C54.8987 44.7688 54.8336 44.6464 54.794 44.5148C54.7543 44.3832 54.741 44.2452 54.7548 44.1084C54.7685 43.9717 54.809 43.8391 54.874 43.718C54.9391 43.597 55.0273 43.4899 55.1337 43.403C55.24 43.316 55.3625 43.2509 55.4941 43.2112C55.6256 43.1716 55.7637 43.1583 55.9004 43.172C56.162 43.1978 56.4274 43.2111 56.6966 43.2118C58.3313 43.2135 59.9253 42.702 61.2537 41.7492C62.5821 40.7965 63.5779 39.4508 64.1004 37.9018C64.623 36.3529 64.6461 34.679 64.1664 33.1163C63.6867 31.5535 62.7284 30.1808 61.4268 29.1919C61.2048 29.0254 61.058 28.7775 61.0188 28.5028C60.9795 28.2281 61.051 27.9491 61.2175 27.7271C61.384 27.5051 61.6319 27.3584 61.9066 27.3191C62.1813 27.2799 62.4603 27.3514 62.6823 27.5179C64.3315 28.7724 65.5457 30.5125 66.1539 32.4934C66.7621 34.4742 66.7337 36.5959 66.0727 38.5598C65.4117 40.5236 64.1513 42.2307 62.4692 43.4406C60.787 44.6505 58.7677 45.3024 56.6956 45.3043H56.6998Z" fill="#307BC4"/>
<path d="M52.8527 67.2409C52.5898 67.241 52.3365 67.1421 52.1432 66.9639C51.9499 66.7857 51.8308 66.5412 51.8096 66.2792C51.7883 66.0171 51.8665 65.7567 52.0286 65.5497C52.1907 65.3427 52.4248 65.2043 52.6843 65.162C54.5098 64.8667 56.17 63.9294 57.366 62.5188C58.5619 61.1082 59.215 59.3171 59.2077 57.4678C59.2078 56.7015 59.0972 55.9393 58.8792 55.2047C58.8402 55.073 58.8276 54.9348 58.8421 54.7982C58.8565 54.6615 58.8977 54.5291 58.9633 54.4084C59.029 54.2876 59.1177 54.181 59.2245 54.0946C59.3314 54.0082 59.4542 53.9437 59.5859 53.9047C59.7177 53.8658 59.8558 53.8532 59.9925 53.8676C60.1291 53.882 60.2616 53.9233 60.3823 53.9889C60.503 54.0545 60.6096 54.1433 60.696 54.2501C60.7824 54.3569 60.847 54.4797 60.8859 54.6115C61.162 55.5385 61.303 56.5005 61.3044 57.4678C61.3133 59.8138 60.4844 62.0859 58.967 63.8751C57.4496 65.6642 55.3434 66.853 53.0274 67.2273C52.9696 67.2362 52.9112 67.2407 52.8527 67.2409Z" fill="#307BC4"/>
<path d="M59.8796 55.9551C59.6402 55.9553 59.4079 55.8734 59.2216 55.723C59.0353 55.5726 58.9062 55.3628 58.8559 55.1287C58.8056 54.8946 58.8371 54.6504 58.9451 54.4367C59.0532 54.223 59.2312 54.0529 59.4496 53.9547C60.8148 53.3371 61.9731 52.3392 62.7858 51.0804C63.5986 49.8216 64.0313 48.3552 64.0323 46.8568C64.0391 45.114 63.4541 43.4204 62.3729 42.0534C62.2082 41.8349 62.1356 41.5605 62.1708 41.2891C62.206 41.0178 62.3462 40.771 62.5612 40.6017C62.7762 40.4324 63.0489 40.3541 63.321 40.3835C63.5931 40.413 63.8428 40.5478 64.0166 40.7592C64.9419 41.9378 65.5869 43.3114 65.9029 44.7761C66.2188 46.2409 66.1973 47.7583 65.84 49.2135C65.4828 50.6687 64.7991 52.0235 63.8407 53.1754C62.8824 54.3273 61.6745 55.246 60.3086 55.862C60.1738 55.923 60.0276 55.9548 59.8796 55.9551Z" fill="#307BC4"/>
<path d="M43.538 73.252C40.5475 73.2486 37.6803 72.0592 35.5657 69.9445C33.451 67.8299 32.2616 64.9628 32.2583 61.9722V6.64372C32.2116 5.70768 32.3633 4.77234 32.7036 3.89909C33.0438 3.02583 33.5649 2.23438 34.2325 1.57667C34.9686 0.918417 35.8514 0.445722 36.8073 0.198015C37.7632 -0.0496914 38.7644 -0.0652273 39.7275 0.152704C44.3602 1.25004 48.7061 3.32117 52.4762 6.22835C52.6927 6.40247 52.8311 6.65545 52.861 6.93162C52.8909 7.20778 52.8099 7.48453 52.6358 7.70097C52.4617 7.91741 52.2087 8.05581 51.9325 8.08573C51.6564 8.11566 51.3796 8.03465 51.1632 7.86052C47.6469 5.17367 43.6105 3.24719 39.3101 2.20338C38.675 2.05221 38.0131 2.05481 37.3793 2.21094C36.7455 2.36708 36.1581 2.67224 35.6659 3.10107C35.2109 3.56657 34.8587 4.12246 34.6321 4.73273C34.4056 5.343 34.3097 5.99405 34.3508 6.64372V61.9722C34.3516 64.0716 35.0713 66.1075 36.3901 67.741C37.7089 69.3745 39.5472 70.5072 41.5993 70.9506C43.6513 71.394 45.7934 71.1214 47.6689 70.1781C49.5445 69.2348 51.0405 67.6777 51.9081 65.7659C52.0229 65.5132 52.2333 65.3163 52.4932 65.2187C52.7531 65.1211 53.0411 65.1307 53.2939 65.2454C53.5467 65.3602 53.7435 65.5706 53.8411 65.8305C53.9388 66.0904 53.9291 66.3784 53.8144 66.6312C52.9157 68.6033 51.4695 70.2757 49.6477 71.4494C47.8258 72.6231 45.7052 73.2488 43.538 73.252Z" fill="#307BC4"/>
<path d="M12.7079 17.3061C12.5417 17.3062 12.3778 17.2667 12.2299 17.1908C12.0819 17.115 11.9542 17.0049 11.8573 16.8699C10.9658 15.6248 10.4898 14.1303 10.4972 12.599C10.4987 10.8348 11.129 9.12884 12.2749 7.7874C13.4208 6.44596 15.0073 5.55685 16.7496 5.27965C18.492 5.00245 20.276 5.35531 21.7817 6.27489C23.2873 7.19448 24.4159 8.62058 24.9649 10.2972C25.0111 10.4286 25.0307 10.5679 25.0224 10.707C25.0141 10.846 24.9781 10.982 24.9165 11.107C24.855 11.232 24.7691 11.3434 24.6639 11.4347C24.5587 11.526 24.4363 11.5954 24.304 11.6388C24.1716 11.6822 24.0319 11.6988 23.8931 11.6875C23.7542 11.6761 23.619 11.6372 23.4954 11.573C23.3718 11.5087 23.2623 11.4204 23.1733 11.3133C23.0842 11.2062 23.0175 11.0823 22.977 10.9491C22.5839 9.74423 21.7741 8.71907 20.693 8.05778C19.6119 7.39648 18.3304 7.1424 17.0787 7.3412C15.8271 7.53999 14.6874 8.17862 13.8644 9.14234C13.0414 10.1061 12.589 11.3317 12.5886 12.599C12.5831 13.6928 12.9228 14.7605 13.5596 15.6499C13.6717 15.8062 13.7386 15.9904 13.7529 16.1823C13.7672 16.3741 13.7282 16.5662 13.6404 16.7374C13.5526 16.9086 13.4193 17.0522 13.2552 17.1526C13.091 17.2529 12.9024 17.3061 12.71 17.3061H12.7079Z" fill="#307BC4"/>
<path d="M4.55122 29.4022C4.34401 29.4024 4.14141 29.341 3.96911 29.2259C3.79682 29.1108 3.66258 28.9471 3.58343 28.7556C3.11316 27.6029 2.8746 26.3689 2.88138 25.124C2.86793 23.8147 3.1142 22.5156 3.60596 21.302C4.09773 20.0884 4.82522 18.9844 5.74636 18.0537C6.66751 17.123 7.76403 16.3842 8.97251 15.88C10.181 15.3758 11.4774 15.1162 12.7869 15.1162C14.0963 15.1162 15.3928 15.3758 16.6012 15.88C17.8097 16.3842 18.9062 17.123 19.8274 18.0537C20.7485 18.9844 21.476 20.0884 21.9678 21.302C22.4596 22.5156 22.7058 23.8147 22.6924 25.124C22.6924 25.4015 22.5821 25.6676 22.3859 25.8639C22.1897 26.0601 21.9236 26.1703 21.6461 26.1703C21.3686 26.1703 21.1025 26.0601 20.9063 25.8639C20.7101 25.6676 20.5998 25.4015 20.5998 25.124C20.6118 24.0904 20.4186 23.0647 20.0313 22.1063C19.644 21.1479 19.0704 20.2758 18.3437 19.5407C17.617 18.8056 16.7517 18.2219 15.7978 17.8236C14.844 17.4252 13.8206 17.2201 12.7869 17.2201C11.7532 17.2201 10.7298 17.4252 9.77591 17.8236C8.82205 18.2219 7.95672 18.8056 7.23003 19.5407C6.50334 20.2758 5.92975 21.1479 5.54247 22.1063C5.1552 23.0647 4.96195 24.0904 4.97391 25.124C4.96677 26.0961 5.15166 27.06 5.51797 27.9605C5.62262 28.2164 5.62171 28.5033 5.51546 28.7586C5.4092 29.0138 5.20623 29.2166 4.95089 29.3227C4.82407 29.3748 4.68833 29.4018 4.55122 29.4022Z" fill="#307BC4"/>
<path d="M9.90899 45.3043C7.8347 45.3069 5.81203 44.6577 4.12674 43.4483C2.44146 42.239 1.17877 40.5307 0.51706 38.5648C-0.144645 36.5989 -0.171908 34.4747 0.439122 32.4925C1.05015 30.5102 2.26859 28.77 3.92228 27.5179C4.14426 27.3514 4.4233 27.2799 4.698 27.3191C4.9727 27.3584 5.22055 27.5051 5.38704 27.7271C5.55354 27.9491 5.62502 28.2281 5.58578 28.5028C5.54654 28.7775 5.39978 29.0254 5.17779 29.1919C3.87999 30.1828 2.92535 31.5555 2.44805 33.117C1.97074 34.6786 1.99478 36.3504 2.51677 37.8976C3.03877 39.4447 4.03248 40.7894 5.35823 41.7426C6.68397 42.6958 8.27509 43.2096 9.90794 43.2118C10.1772 43.2118 10.4426 43.1985 10.7042 43.172C10.8409 43.1583 10.9789 43.1716 11.1105 43.2112C11.2421 43.2509 11.3645 43.316 11.4709 43.403C11.5773 43.4899 11.6655 43.597 11.7305 43.718C11.7955 43.8391 11.8361 43.9717 11.8498 44.1084C11.8635 44.2452 11.8502 44.3832 11.8106 44.5148C11.771 44.6464 11.7058 44.7688 11.6189 44.8752C11.5319 44.9816 11.4249 45.0698 11.3038 45.1348C11.1828 45.1998 11.0501 45.2404 10.9134 45.2541C10.5859 45.2865 10.249 45.3043 9.90899 45.3043Z" fill="#307BC4"/>
<path d="M13.7562 67.2409C13.6991 67.2405 13.6421 67.236 13.5856 67.2273C11.2697 66.853 9.16346 65.6642 7.64606 63.8751C6.12866 62.0859 5.29979 59.8138 5.30866 57.4678C5.31014 56.5005 5.45109 55.5385 5.72717 54.6115C5.76612 54.4797 5.83065 54.3569 5.91706 54.2501C6.00347 54.1433 6.11007 54.0545 6.23079 53.9889C6.3515 53.9233 6.48396 53.882 6.6206 53.8676C6.75724 53.8532 6.89539 53.8658 7.02715 53.9047C7.15891 53.9437 7.28172 54.0082 7.38854 54.0946C7.49537 54.181 7.58413 54.2876 7.64976 54.4084C7.71539 54.5291 7.7566 54.6615 7.77104 54.7982C7.78547 54.9348 7.77285 55.073 7.7339 55.2047C7.51593 55.9393 7.40527 56.7015 7.40538 57.4678C7.39809 59.3171 8.0512 61.1082 9.24713 62.5188C10.4431 63.9294 12.1033 64.8667 13.9288 65.162C14.1883 65.2043 14.4224 65.3427 14.5845 65.5497C14.7465 65.7567 14.8247 66.0171 14.8035 66.2792C14.7823 66.5412 14.6632 66.7857 14.4699 66.9639C14.2766 67.1421 14.0233 67.241 13.7604 67.2409H13.7562Z" fill="#307BC4"/>
<path d="M6.72931 55.9552C6.58134 55.9549 6.43514 55.9231 6.30034 55.8621C4.93407 55.2465 3.7258 54.3281 2.76702 53.1764C1.80825 52.0247 1.12411 50.6699 0.766429 49.2147C0.408744 47.7595 0.38689 46.2419 0.70252 44.777C1.01815 43.312 1.66299 41.9381 2.5882 40.7593C2.67202 40.6481 2.77719 40.5547 2.89756 40.4847C3.01793 40.4147 3.15107 40.3694 3.28917 40.3515C3.42727 40.3336 3.56756 40.3434 3.70182 40.3804C3.83607 40.4174 3.96158 40.4809 4.07099 40.567C4.1804 40.6532 4.27152 40.7603 4.33899 40.8821C4.40646 41.0039 4.44894 41.138 4.46392 41.2765C4.47891 41.4149 4.4661 41.555 4.42625 41.6884C4.38641 41.8218 4.32033 41.946 4.23188 42.0535C3.15069 43.4205 2.56564 45.1141 2.57251 46.8569C2.57345 48.3553 3.00619 49.8217 3.81892 51.0805C4.63166 52.3393 5.78995 53.3372 7.15514 53.9548C7.37351 54.053 7.55158 54.2231 7.65964 54.4368C7.76769 54.6505 7.79919 54.8948 7.74887 55.1289C7.69855 55.3629 7.56946 55.5727 7.38314 55.7231C7.19683 55.8735 6.96456 55.9554 6.72512 55.9552H6.72931Z" fill="#307BC4"/>
<path d="M23.0709 73.2518C20.9043 73.2481 18.7843 72.6222 16.9631 71.4485C15.1419 70.2747 13.6961 68.6027 12.7977 66.6311C12.683 66.3783 12.6733 66.0903 12.7709 65.8304C12.8686 65.5705 13.0654 65.3601 13.3182 65.2453C13.571 65.1306 13.859 65.121 14.1189 65.2186C14.3788 65.3162 14.5892 65.513 14.704 65.7658C15.5726 67.6758 17.0687 69.2309 18.9436 70.1729C20.8184 71.1148 22.9592 71.3867 25.01 70.9435C27.0608 70.5003 28.8982 69.3686 30.2168 67.7365C31.5354 66.1044 32.2558 64.0703 32.2582 61.9721V6.64362C32.2992 5.99395 32.2034 5.3429 31.9768 4.73263C31.7503 4.12236 31.3981 3.56648 30.943 3.10098C30.4511 2.67208 29.8639 2.36687 29.2302 2.21073C28.5966 2.05458 27.9348 2.05203 27.2999 2.20328C22.9989 3.24238 18.9616 5.16658 15.4458 7.8531C15.2288 8.00879 14.9604 8.07557 14.6957 8.03977C14.431 8.00398 14.1901 7.86831 14.0222 7.66056C13.8543 7.45282 13.7722 7.18874 13.7928 6.92244C13.8133 6.65614 13.935 6.40778 14.1327 6.22826C17.9032 3.32092 22.2494 1.24977 26.8825 0.152608C27.8454 -0.0652347 28.8465 -0.0496527 29.8022 0.198054C30.7579 0.44576 31.6405 0.918409 32.3764 1.57657C33.0441 2.23428 33.5651 3.02573 33.9054 3.89899C34.2456 4.77225 34.3974 5.70758 34.3507 6.64362V61.9721C34.3474 64.9626 33.1579 67.8298 31.0433 69.9444C28.9286 72.0591 26.0615 73.2485 23.0709 73.2518Z" fill="#307BC4"/>
<path d="M33.3046 21.9487C33.2087 21.9488 33.1133 21.9354 33.0211 21.9089C32.8888 21.8716 32.7652 21.8087 32.6573 21.7236C32.5494 21.6385 32.4593 21.533 32.3922 21.4131C32.325 21.2932 32.2822 21.1613 32.266 21.0248C32.2499 20.8884 32.2608 20.7501 32.2981 20.6178C32.8484 18.6634 34.9472 15.0727 38.9094 15.4681C39.1855 15.4959 39.4393 15.6322 39.6149 15.847C39.7905 16.0619 39.8736 16.3377 39.8458 16.6138C39.8181 16.8899 39.6818 17.1437 39.4669 17.3193C39.2521 17.4949 38.9763 17.578 38.7002 17.5502C35.4735 17.2363 34.3216 21.1462 34.3059 21.186C34.2443 21.4045 34.1134 21.5971 33.9328 21.7347C33.7521 21.8723 33.5317 21.9474 33.3046 21.9487Z" fill="#307BC4"/>
<path d="M33.3046 27.142C33.0772 27.1418 32.8561 27.0676 32.6747 26.9305C32.4933 26.7935 32.3614 26.601 32.2991 26.3824C32.2521 26.2202 31.1012 22.4139 27.9048 22.7435C27.6286 22.7712 27.3527 22.6881 27.1377 22.5124C26.9228 22.3367 26.7864 22.0828 26.7587 21.8066C26.7309 21.5303 26.814 21.2544 26.9897 21.0394C27.1655 20.8245 27.4194 20.6881 27.6956 20.6604C31.6714 20.2659 33.7566 23.8567 34.3069 25.8111C34.3442 25.9434 34.3551 26.0817 34.339 26.2181C34.3229 26.3546 34.28 26.4865 34.2129 26.6064C34.1457 26.7263 34.0556 26.8318 33.9477 26.9169C33.8398 27.0019 33.7162 27.0649 33.584 27.1022C33.4931 27.1283 33.3991 27.1417 33.3046 27.142Z" fill="#307BC4"/>
<path d="M47.6384 34.2161C46.1898 34.2174 44.7587 33.8993 43.447 33.2844C42.1354 32.6696 40.9755 31.7731 40.0498 30.6588C39.958 30.5538 39.888 30.4315 39.8441 30.2991C39.8002 30.1666 39.7833 30.0268 39.7943 29.8877C39.8052 29.7486 39.8439 29.6131 39.908 29.4892C39.9721 29.3653 40.0603 29.2555 40.1675 29.1661C40.2747 29.0768 40.3986 29.0099 40.532 28.9692C40.6655 28.9285 40.8057 28.9149 40.9445 28.9291C41.0833 28.9434 41.2178 28.9854 41.3401 29.0524C41.4625 29.1195 41.5702 29.2103 41.6569 29.3196C42.6803 30.5492 44.0578 31.4336 45.6018 31.8522C47.1458 32.2709 48.7814 32.2035 50.2857 31.6593C51.7901 31.1151 53.0902 30.1204 54.009 28.8108C54.9278 27.5012 55.4207 25.9402 55.4205 24.3404C55.4205 24.1406 55.4131 23.9418 55.3985 23.7451C55.3857 23.6068 55.4005 23.4673 55.4421 23.3348C55.4837 23.2023 55.5513 23.0794 55.6409 22.9733C55.7305 22.8671 55.8404 22.7799 55.9641 22.7167C56.0877 22.6535 56.2228 22.6155 56.3613 22.605C56.4998 22.5945 56.639 22.6117 56.7708 22.6556C56.9026 22.6995 57.0243 22.7692 57.1289 22.8606C57.2334 22.952 57.3188 23.0633 57.3799 23.1881C57.441 23.3128 57.4766 23.4484 57.4847 23.5871C57.5036 23.8361 57.513 24.0872 57.513 24.3404C57.5105 26.9587 56.4694 29.469 54.6181 31.3205C52.7668 33.1719 50.2566 34.2133 47.6384 34.2161Z" fill="#307BC4"/>
<path d="M53.8229 40.2945H53.802C48.7109 40.1951 46.3191 35.7192 45.7656 33.3662C45.7053 33.0975 45.7534 32.8159 45.8993 32.5825C46.0453 32.349 46.2774 32.1825 46.5453 32.119C46.8132 32.0555 47.0954 32.1002 47.3306 32.2434C47.5657 32.3866 47.735 32.6167 47.8017 32.8838C47.854 33.0931 49.1168 38.1099 53.8428 38.202C54.1203 38.2046 54.3853 38.3174 54.5797 38.5155C54.774 38.7135 54.8817 38.9807 54.8791 39.2582C54.8765 39.5357 54.7637 39.8008 54.5656 39.9951C54.3675 40.1895 54.1004 40.2972 53.8229 40.2945Z" fill="#307BC4"/>
<path d="M47.4436 54.3356H47.3567C47.0802 54.3127 46.8242 54.1809 46.6448 53.9692C46.4655 53.7575 46.3776 53.4832 46.4004 53.2067C46.5516 52.1169 46.4797 51.0078 46.189 49.9466C45.8984 48.8855 45.3951 47.8945 44.7097 47.0338C43.0558 45.3215 40.8495 44.2497 38.4813 44.008C38.2045 43.988 37.947 43.8589 37.7654 43.649C37.5838 43.4392 37.493 43.1658 37.513 42.889C37.533 42.6122 37.6621 42.3547 37.8719 42.1731C38.0818 41.9915 38.3552 41.9007 38.6319 41.9207C41.5575 42.2033 44.2815 43.5362 46.3 45.6726C47.1683 46.7404 47.8098 47.9739 48.1856 49.2978C48.5614 50.6218 48.6635 52.0084 48.4857 53.3731C48.4646 53.6351 48.3457 53.8796 48.1527 54.0579C47.9596 54.2363 47.7064 54.3354 47.4436 54.3356Z" fill="#307BC4"/>
<path d="M40.7676 63.3948H40.7184C40.5812 63.3885 40.4465 63.3552 40.3221 63.2969C40.1977 63.2385 40.086 63.1562 39.9934 63.0547C39.9008 62.9531 39.8291 62.8344 39.7825 62.7051C39.7358 62.5759 39.715 62.4387 39.7213 62.3015C39.8919 58.6165 42.2951 51.7426 50.1452 52.0199C50.2826 52.0249 50.4177 52.057 50.5427 52.1143C50.6677 52.1716 50.7802 52.2529 50.8737 52.3537C50.9673 52.4544 51.0401 52.5726 51.088 52.7015C51.1358 52.8304 51.1579 52.9674 51.1528 53.1048C51.1477 53.2422 51.1156 53.3773 51.0583 53.5023C51.0011 53.6273 50.9197 53.7398 50.819 53.8333C50.7182 53.9269 50.6 53.9997 50.4712 54.0476C50.3423 54.0954 50.2052 54.1175 50.0678 54.1124C42.3192 53.833 41.8285 62.0483 41.8118 62.3988C41.7989 62.6671 41.6833 62.9202 41.4889 63.1056C41.2945 63.291 41.0362 63.3946 40.7676 63.3948Z" fill="#307BC4"/>
<path d="M21.5226 35.466C18.9047 35.4633 16.3947 34.4222 14.5433 32.5712C12.6919 30.7202 11.6503 28.2104 11.647 25.5924C11.647 25.3382 11.6564 25.086 11.6752 24.8381C11.6833 24.6994 11.719 24.5638 11.7801 24.439C11.8412 24.3143 11.9265 24.203 12.0311 24.1116C12.1357 24.0201 12.2574 23.9505 12.3892 23.9066C12.521 23.8627 12.6602 23.8455 12.7987 23.856C12.9372 23.8665 13.0722 23.9045 13.1959 23.9677C13.3196 24.0309 13.4294 24.1181 13.519 24.2242C13.6087 24.3304 13.6763 24.4533 13.7179 24.5858C13.7595 24.7183 13.7743 24.8578 13.7615 24.9961C13.7468 25.1928 13.7395 25.3916 13.7395 25.5924C13.7398 27.1919 14.2329 28.7524 15.1517 30.0616C16.0706 31.3708 17.3705 32.3651 18.8745 32.9091C20.3786 33.4532 22.0138 33.5206 23.5575 33.1021C25.1013 32.6837 26.4786 31.7997 27.502 30.5706C27.59 30.465 27.6978 30.3777 27.8195 30.3138C27.9411 30.2499 28.0742 30.2106 28.211 30.1981C28.3479 30.1856 28.4858 30.2002 28.617 30.2411C28.7482 30.2819 28.8701 30.3482 28.9757 30.4361C29.0813 30.524 29.1685 30.6319 29.2324 30.7536C29.2963 30.8752 29.3356 31.0083 29.3481 31.1451C29.3606 31.2819 29.346 31.4199 29.3052 31.5511C29.2644 31.6823 29.1981 31.8042 29.1101 31.9098C28.1845 33.0237 27.0247 33.92 25.7133 34.5346C24.4018 35.1493 22.971 35.4673 21.5226 35.466Z" fill="#307BC4"/>
<path d="M15.3326 41.5504C15.0551 41.553 14.788 41.4453 14.5899 41.251C14.3918 41.0566 14.2791 40.7915 14.2764 40.5141C14.2738 40.2366 14.3815 39.9694 14.5758 39.7713C14.7702 39.5733 15.0353 39.4605 15.3127 39.4579C20.0377 39.3658 21.3015 34.3531 21.3539 34.1397C21.4205 33.8726 21.5898 33.6424 21.8249 33.4993C22.0601 33.3561 22.3423 33.3114 22.6102 33.3749C22.8781 33.4383 23.1102 33.6049 23.2562 33.8383C23.4021 34.0718 23.4502 34.3534 23.3899 34.622C22.8416 36.9698 20.4436 41.4458 15.3535 41.5504H15.3326Z" fill="#307BC4"/>
<path d="M15.5492 56.9891C15.2861 56.99 15.0323 56.8917 14.8384 56.7139C14.6445 56.5361 14.5247 56.2918 14.5029 56.0296C14.3232 54.6633 14.4244 53.2746 14.8002 51.9487C15.1761 50.6228 15.8186 49.3876 16.6886 48.3187C18.7065 46.1821 21.4303 44.8492 24.3556 44.5668C24.6316 44.5505 24.9031 44.6427 25.1123 44.8236C25.3214 45.0046 25.4515 45.2601 25.4751 45.5356C25.485 45.6727 25.4679 45.8104 25.4247 45.9408C25.3815 46.0712 25.3129 46.1919 25.2231 46.2958C25.1332 46.3998 25.0237 46.485 24.9009 46.5467C24.7781 46.6083 24.6443 46.6452 24.5073 46.6551C22.1356 46.9027 19.9267 47.9768 18.2674 49.6893C17.5856 50.5504 17.0854 51.5406 16.7968 52.6003C16.5082 53.6599 16.4372 54.7671 16.5881 55.8549C16.611 56.1314 16.5231 56.4057 16.3437 56.6174C16.1644 56.8291 15.9083 56.9609 15.6318 56.9838L15.5492 56.9891Z" fill="#307BC4"/>
<path d="M22.2254 66.0473C21.9564 66.0476 21.6976 65.9443 21.5028 65.7588C21.308 65.5733 21.1921 65.32 21.1792 65.0513C21.1614 64.7008 20.656 56.4625 12.9231 56.7628C12.6456 56.773 12.3754 56.6726 12.1719 56.4837C11.9685 56.2947 11.8484 56.0327 11.8381 55.7552C11.8279 55.4777 11.9282 55.2075 12.1172 55.0041C12.3061 54.8006 12.5682 54.6805 12.8457 54.6702C20.6853 54.3846 23.099 61.2669 23.2696 64.9519C23.2759 65.0891 23.2551 65.2263 23.2085 65.3555C23.1618 65.4848 23.0901 65.6035 22.9975 65.7051C22.9049 65.8066 22.7932 65.8889 22.6688 65.9472C22.5444 66.0056 22.4098 66.0389 22.2725 66.0452L22.2254 66.0473Z" fill="#307BC4"/>
<path d="M33.3046 63.0182H33.2983C33.1608 63.0174 33.0249 62.9895 32.8982 62.9361C32.7715 62.8827 32.6565 62.8048 32.56 62.707C32.4634 62.6091 32.387 62.4932 32.3353 62.3658C32.2835 62.2384 32.2574 62.1021 32.2583 61.9646C32.3271 59.9127 31.668 57.9026 30.3976 56.2899C29.1272 54.6771 27.3273 53.5656 25.3164 53.1519C25.0439 53.0994 24.8035 52.9407 24.648 52.7108C24.4925 52.481 24.4346 52.1987 24.4872 51.9262C24.5398 51.6538 24.6985 51.4133 24.9283 51.2578C25.1582 51.1023 25.4404 51.0445 25.7129 51.0971C25.7998 51.1138 34.4084 52.8757 34.3509 61.9782C34.3492 62.2546 34.2382 62.5191 34.0422 62.714C33.8462 62.9088 33.581 63.0182 33.3046 63.0182Z" fill="#307BC4"/>
</svg>
