<svg width="65" height="65" viewBox="0 0 65 65" fill="none" xmlns="http://www.w3.org/2000/svg">
<path d="M36.7412 64.7996H28.7246C26.854 64.7996 24.7162 63.1962 24.7162 59.9896V54.3779C24.7162 51.7057 23.3801 49.3007 21.2423 47.4301C16.4323 43.689 14.0273 38.3446 14.0273 32.4657C14.2946 22.3112 22.5785 14.2946 32.4657 14.0273C37.5429 14.0273 42.3529 15.8979 45.8268 19.3718C49.3007 22.8457 51.4385 27.6557 51.4385 32.7329C51.4385 38.3446 49.0335 43.689 44.4907 47.1629C42.0857 49.0335 40.7496 51.9729 40.7496 54.6451V60.7912C40.7496 62.929 38.879 64.7996 36.7412 64.7996ZM32.7329 16.6996C24.1818 16.6996 16.9668 23.9146 16.6996 32.4657C16.6996 37.5429 18.8373 42.3529 22.8457 45.2923C25.7851 47.6973 27.3885 50.904 27.3885 54.3779V59.9896C27.3885 60.524 27.3885 62.1273 28.7246 62.1273H36.7412C37.5429 62.1273 38.0773 61.5929 38.0773 60.7912V54.6451C38.0773 51.1712 39.9479 47.4301 42.8873 45.0251C46.6285 42.0857 48.7662 37.5429 48.7662 32.7329C48.7662 28.4573 47.1629 24.449 43.9562 21.2423C41.0168 18.3029 37.0085 16.6996 32.7329 16.6996Z" fill="#307BC4"/>
<path d="M39.414 56.7828H26.0529C25.2512 56.7828 24.7168 56.2484 24.7168 55.4467C24.7168 54.645 25.2512 54.1106 26.0529 54.1106H39.414C40.2157 54.1106 40.7501 54.645 40.7501 55.4467C40.7501 56.2484 40.2157 56.7828 39.414 56.7828Z" fill="#307BC4"/>
<path d="M32.7336 8.68342C31.9319 8.68342 31.3975 8.14897 31.3975 7.3473V2.00286C31.3975 1.20119 31.9319 0.666748 32.7336 0.666748C33.5352 0.666748 34.0697 1.20119 34.0697 2.00286V7.3473C34.0697 8.14897 33.5352 8.68342 32.7336 8.68342Z" fill="#307BC4"/>
<path d="M50.6377 16.1657C50.3705 16.1657 49.836 16.1657 49.5688 15.8985C49.0344 15.364 49.0344 14.5624 49.5688 14.0279L53.3099 10.2868C53.8444 9.75238 54.646 9.75238 55.1805 10.2868C55.7149 10.8213 55.7149 11.6229 55.1805 12.1574L51.4394 15.8985C51.4394 15.8985 50.9049 16.1657 50.6377 16.1657Z" fill="#307BC4"/>
<path d="M63.4638 34.0699H58.1193C57.3176 34.0699 56.7832 33.5355 56.7832 32.7338C56.7832 31.9321 57.3176 31.3977 58.1193 31.3977H63.4638C64.2654 31.3977 64.7999 31.9321 64.7999 32.7338C64.7999 33.5355 64.2654 34.0699 63.4638 34.0699Z" fill="#307BC4"/>
<path d="M54.3788 55.7148C54.1116 55.7148 53.5771 55.7148 53.3099 55.4476L49.5688 51.7064C49.0344 51.172 49.0344 50.3703 49.5688 49.8359C50.1032 49.3014 50.9049 49.3014 51.4394 49.8359L55.1805 53.577C55.7149 54.1114 55.7149 54.9131 55.1805 55.4476C55.1805 55.7148 54.9132 55.7148 54.3788 55.7148Z" fill="#307BC4"/>
<path d="M11.0889 55.7148C10.8216 55.7148 10.2872 55.7148 10.02 55.4476C9.48553 54.9131 9.48553 54.1114 10.02 53.577L13.7611 49.8359C14.2955 49.3014 15.0972 49.3014 15.6316 49.8359C16.1661 50.3703 16.1661 51.172 15.6316 51.7064L11.8905 55.4476C11.6233 55.7148 11.3561 55.7148 11.0889 55.7148Z" fill="#307BC4"/>
<path d="M7.34706 34.0692H2.00262C1.20095 34.0692 0.666504 33.5348 0.666504 32.7331C0.666504 31.9314 1.20095 31.397 2.00262 31.397H7.34706C8.14873 31.397 8.68317 31.9314 8.68317 32.7331C8.68317 33.5348 8.14873 34.0692 7.34706 34.0692Z" fill="#307BC4"/>
<path d="M14.83 16.1656C14.5628 16.1656 14.0283 16.1656 13.7611 15.8984L10.02 11.89C9.48553 11.3556 9.48553 10.5539 10.02 10.0195C10.5544 9.48504 11.3561 9.48504 11.8905 10.0195L15.6316 13.7606C16.1661 14.295 16.1661 15.0967 15.6316 15.6312C15.3644 15.8984 15.0972 16.1656 14.83 16.1656Z" fill="#307BC4"/>
<path d="M43.4225 34.0694C42.6208 34.0694 42.0864 33.5349 42.0864 32.7333C42.0864 27.656 37.8108 23.3805 32.7336 23.3805C31.9319 23.3805 31.3975 22.846 31.3975 22.0444C31.3975 21.2427 31.9319 20.7083 32.7336 20.7083C39.4141 20.7083 44.7586 26.0527 44.7586 32.7333C44.7586 33.5349 44.2241 34.0694 43.4225 34.0694Z" fill="#307BC4"/>
</svg>
