<svg width="65" height="65" viewBox="0 0 65 65" fill="none" xmlns="http://www.w3.org/2000/svg">
<mask id="mask0_10_11" style="mask-type:luminance" maskUnits="userSpaceOnUse" x="0" y="0" width="65" height="65">
<path d="M0.0473633 0.666718H64.1807V64.8H0.0473633V0.666718Z" fill="white"/>
</mask>
<g mask="url(#mask0_10_11)">
<path d="M49.253 13.9443C49.253 21.4599 43.0751 25.73 32.1148 35.2385C21.1545 25.73 14.9766 21.4599 14.9766 13.9443C14.9766 10.2428 17.3678 3.92342 24.2295 3.92342C28.4421 3.92342 30.777 6.99856 32.1148 9.44615C33.4525 6.99856 35.7875 3.92342 40 3.92342C46.8617 3.92342 49.253 10.2428 49.253 13.9443Z" stroke="#307BC4" stroke-width="2" stroke-miterlimit="10" stroke-linecap="round" stroke-linejoin="round"/>
<path d="M50.4023 44.3108L56.8169 37.895C57.4971 37.2149 57.918 36.2755 57.918 35.2382C57.918 33.6024 56.8733 32.2106 55.4128 31.6946" stroke="#307BC4" stroke-width="2" stroke-miterlimit="10" stroke-linecap="round" stroke-linejoin="round"/>
<path d="M8.81592 31.6949C9.20798 31.5559 9.62886 31.4807 10.0685 31.4807C11.1057 31.4807 12.0451 31.9016 12.7253 32.5818L15.5386 35.3938C17.2885 37.1437 21.486 38.7771 23.9474 39.0239L24.0401 39.0339C27.2016 39.3508 29.6091 42.0126 29.6091 45.1905V61.5432H16.3315V54.0276L9.60882 50.6669C4.51698 48.1203 1.30029 42.9157 1.30029 37.2226V20.2073C1.30029 18.1317 2.98254 16.4495 5.05811 16.4495C7.13367 16.4495 8.81592 18.1317 8.81592 20.2073V31.6949Z" stroke="#307BC4" stroke-width="2" stroke-miterlimit="10" stroke-linecap="round" stroke-linejoin="round"/>
<path d="M13.8262 44.3108L7.41159 37.895C6.73142 37.2149 6.31055 36.2755 6.31055 35.2382C6.31055 33.6024 7.35522 32.2106 8.81576 31.6946" stroke="#307BC4" stroke-width="2" stroke-miterlimit="10" stroke-linecap="round" stroke-linejoin="round"/>
<path d="M58.7948 48.7667C58.7948 49.4584 58.2338 50.0193 57.5422 50.0193C56.8505 50.0193 56.2896 49.4584 56.2896 48.7667C56.2896 48.075 56.8505 47.5141 57.5422 47.5141C58.2338 47.5141 58.7948 48.075 58.7948 48.7667Z" fill="white"/>
<path d="M61.1038 44.4007C62.2799 42.2374 62.9285 39.7793 62.9285 37.2226V20.2073C62.9285 18.1317 61.2464 16.4495 59.1707 16.4495C57.0951 16.4495 55.4129 18.1317 55.4129 20.2073V31.6949C55.0208 31.5559 54.5999 31.4807 54.1603 31.4807C53.1231 31.4807 52.1836 31.9017 51.5035 32.5819L48.6901 35.394C46.9404 37.1437 42.7428 38.7771 40.2815 39.0239L40.1887 39.0339C37.0271 39.3509 34.6196 42.0127 34.6196 45.1906V61.5432H47.8972V54.0276L52.6896 51.6319" stroke="#307BC4" stroke-width="2" stroke-miterlimit="10" stroke-linecap="round" stroke-linejoin="round"/>
</g>
</svg>
