<svg width="65" height="60" viewBox="0 0 65 60" fill="none" xmlns="http://www.w3.org/2000/svg">
<path d="M17.5963 24.8463C17.5963 24.9904 17.6258 25.1331 17.6834 25.2662C17.7409 25.3993 17.8253 25.5202 17.9316 25.6221C18.038 25.7239 18.1643 25.8047 18.3032 25.8599C18.4422 25.915 18.5911 25.9433 18.7415 25.9433H25.4441C25.5945 25.9433 25.7434 25.915 25.8824 25.8599C26.0214 25.8047 26.1476 25.7239 26.254 25.6221C26.3603 25.5202 26.4447 25.3993 26.5022 25.2662C26.5598 25.1331 26.5894 24.9904 26.5893 24.8463V19.426C28.0887 19.1685 29.4458 18.4142 30.4233 17.2952C31.4008 16.1761 31.9364 14.7635 31.9364 13.3045C31.9364 11.8454 31.4008 10.4328 30.4233 9.31378C29.4458 8.19473 28.0887 7.44049 26.5893 7.18298V1.76368C26.5894 1.61962 26.5598 1.47696 26.5022 1.34386C26.4447 1.21075 26.3603 1.08981 26.254 0.987945C26.1476 0.886078 26.0214 0.80528 25.8824 0.750168C25.7434 0.695056 25.5945 0.666709 25.4441 0.666748H5.24025C3.90406 0.668034 2.62297 1.17698 1.67808 2.0819C0.733197 2.98683 0.201693 4.21382 0.200195 5.49365V24.8463C0.200155 24.9904 0.22975 25.1331 0.287289 25.2662C0.344828 25.3993 0.429184 25.5202 0.535537 25.6221C0.641891 25.7239 0.768157 25.8047 0.907122 25.8599C1.04609 25.915 1.19503 25.9433 1.34543 25.9433H8.04798C8.19839 25.9433 8.34733 25.915 8.4863 25.8599C8.62526 25.8047 8.75153 25.7239 8.85788 25.6221C8.96423 25.5202 9.04859 25.3993 9.10613 25.2662C9.16367 25.1331 9.19326 24.9904 9.19322 24.8463C9.20534 23.7867 9.65333 22.7743 10.44 22.0291C11.2266 21.2839 12.2883 20.8659 13.3948 20.8659C14.5012 20.8659 15.5629 21.2839 16.3496 22.0291C17.1362 22.7743 17.5842 23.7867 17.5963 24.8463ZM7.00399 23.7494H2.49067V5.49365C2.49166 4.79552 2.78169 4.12626 3.29713 3.63266C3.81258 3.13906 4.51137 2.86141 5.24025 2.86061H24.2988V8.1835C24.2988 8.32756 24.3284 8.47022 24.3859 8.60332C24.4435 8.73642 24.5278 8.85736 24.6342 8.95923C24.7405 9.0611 24.8668 9.1419 25.0058 9.19701C25.1447 9.25212 25.2937 9.28047 25.4441 9.28043C26.5502 9.29231 27.6068 9.72151 28.3845 10.4749C29.1623 11.2283 29.5985 12.245 29.5985 13.3045C29.5985 14.364 29.1622 15.3808 28.3844 16.1341C27.6066 16.8875 26.5501 17.3167 25.444 17.3285C25.2936 17.3285 25.1446 17.3568 25.0057 17.412C24.8667 17.4671 24.7405 17.5479 24.6341 17.6498C24.5278 17.7516 24.4435 17.8726 24.3859 18.0056C24.3284 18.1387 24.2988 18.2814 24.2988 18.4255V23.7494H19.7856C19.506 22.3217 18.7142 21.0325 17.5472 20.1049C16.3802 19.1772 14.9113 18.6695 13.3948 18.6695C11.8782 18.6695 10.4093 19.1772 9.24232 20.1049C8.07529 21.0325 7.28353 22.3217 7.00399 23.7494Z" fill="#307BC4"/>
<path d="M59.293 12.208H39.0892C38.9388 12.208 38.7898 12.2363 38.6509 12.2914C38.5119 12.3465 38.3856 12.4273 38.2793 12.5292C38.1729 12.6311 38.0886 12.752 38.031 12.8851C37.9735 13.0182 37.9439 13.1609 37.9439 13.3049V19.7248C37.9439 19.8688 37.9735 20.0115 38.031 20.1446C38.0886 20.2777 38.1729 20.3986 38.2793 20.5005C38.3856 20.6024 38.5119 20.6832 38.6509 20.7383C38.7898 20.7934 38.9388 20.8217 39.0892 20.8217C40.1954 20.8334 41.2521 21.2626 42.03 22.016C42.8078 22.7694 43.2441 23.7862 43.2441 24.8458C43.2441 25.9054 42.8078 26.9222 42.0299 27.6756C41.252 28.4289 40.1952 28.8581 39.089 28.8698C38.9387 28.8698 38.7897 28.8981 38.6508 28.9532C38.5118 29.0083 38.3856 29.0891 38.2792 29.191C38.1729 29.2929 38.0885 29.4138 38.031 29.5469C37.9735 29.68 37.9439 29.8227 37.9439 29.9667V34.5901H33.4301C33.1611 33.1542 32.3736 31.8546 31.2054 30.9186C30.0372 29.9826 28.5626 29.4697 27.0396 29.4697C25.5165 29.4697 24.0419 29.9826 22.8737 30.9186C21.7055 31.8546 20.918 33.1542 20.6491 34.5901H14.99C14.8396 34.5901 14.6906 34.6184 14.5517 34.6735C14.4127 34.7286 14.2864 34.8094 14.1801 34.9113C14.0737 35.0132 13.9894 35.1341 13.9318 35.2672C13.8743 35.4003 13.8447 35.543 13.8447 35.687V55.0397C13.8462 56.3196 14.3777 57.5466 15.3226 58.4515C16.2675 59.3564 17.5486 59.8654 18.8848 59.8667H59.293C60.6292 59.8654 61.9103 59.3564 62.8552 58.4515C63.8001 57.5466 64.3316 56.3196 64.3331 55.0397V17.0349C64.3316 15.7551 63.8001 14.5281 62.8552 13.6232C61.9103 12.7182 60.6292 12.2093 59.293 12.208ZM45.5809 24.8463C45.5791 23.3877 45.043 21.976 44.0659 20.8573C43.0889 19.7385 41.7329 18.9837 40.2344 18.7243V14.4019H59.293C60.0219 14.4027 60.7207 14.6803 61.2361 15.1739C61.7516 15.6675 62.0416 16.3368 62.0426 17.0349V34.5901H56.4853C56.3349 34.5901 56.1859 34.6184 56.047 34.6735C55.908 34.7286 55.7817 34.8094 55.6754 34.9113C55.569 35.0132 55.4847 35.1341 55.4271 35.2672C55.3696 35.4003 55.34 35.543 55.34 35.687C55.3276 36.7465 54.8795 37.7586 54.0929 38.5036C53.3063 39.2487 52.2447 39.6665 51.1384 39.6665C50.0322 39.6665 48.9706 39.2486 48.184 38.5035C47.3974 37.7585 46.9493 36.7464 46.937 35.6869C46.937 35.5429 46.9074 35.4002 46.8498 35.2671C46.7923 35.134 46.7079 35.0131 46.6016 34.9113C46.4952 34.8094 46.369 34.7286 46.23 34.6735C46.0911 34.6184 45.9421 34.5901 45.7917 34.5901H40.2344V30.9672C41.7328 30.7079 43.0886 29.9532 44.0657 28.8347C45.0427 27.7161 45.5789 26.3047 45.5809 24.8463ZM16.1352 55.0397V36.784H21.693C21.8434 36.784 21.9924 36.7557 22.1314 36.7005C22.2703 36.6454 22.3966 36.5646 22.5029 36.4628C22.6093 36.3609 22.6936 36.24 22.7512 36.1069C22.8087 35.9738 22.8383 35.8311 22.8383 35.687C22.8401 34.6209 23.2836 33.5991 24.0712 32.8459C24.8589 32.0927 25.9265 31.6696 27.0395 31.6696C28.1526 31.6696 29.2201 32.0927 30.0078 32.8459C30.7955 33.5991 31.239 34.6209 31.2408 35.687C31.2407 35.8311 31.2703 35.9738 31.3279 36.1069C31.3854 36.24 31.4698 36.3609 31.5761 36.4628C31.6825 36.5646 31.8088 36.6454 31.9477 36.7005C32.0867 36.7557 32.2356 36.784 32.386 36.784H37.9439V41.1074C36.4445 41.3649 35.0874 42.1192 34.1099 43.2382C33.1324 44.3573 32.5968 45.7699 32.5968 47.2289C32.5968 48.688 33.1324 50.1006 34.1099 51.2196C35.0874 52.3386 36.4445 53.0929 37.9439 53.3504V57.6728H18.8848C18.1559 57.672 17.4571 57.3943 16.9417 56.9007C16.4262 56.4071 16.1362 55.7379 16.1352 55.0397ZM59.293 57.6728H40.2344V52.3499C40.2345 52.2058 40.2049 52.0632 40.1473 51.9301C40.0898 51.797 40.0054 51.676 39.8991 51.5742C39.7927 51.4723 39.6665 51.3915 39.5275 51.3364C39.3885 51.2813 39.2396 51.2529 39.0892 51.253C37.9749 51.253 36.9063 50.829 36.1184 50.0743C35.3305 49.3197 34.8879 48.2962 34.8879 47.2289C34.8879 46.1617 35.3305 45.1381 36.1184 44.3835C36.9063 43.6288 37.9749 43.2049 39.0892 43.2049C39.2396 43.2049 39.3885 43.1766 39.5275 43.1214C39.6665 43.0663 39.7927 42.9855 39.8991 42.8837C40.0054 42.7818 40.0898 42.6609 40.1473 42.5278C40.2049 42.3947 40.2345 42.252 40.2344 42.1079V37.4835H44.7477C45.0165 38.9196 45.8039 40.2195 46.9722 41.1557C48.1405 42.092 49.6152 42.605 51.1385 42.605C52.6618 42.605 54.1365 42.092 55.3048 41.1557C56.4731 40.2195 57.2605 38.9196 57.5293 37.4835H62.0426V55.0397C62.0416 55.7379 61.7516 56.4071 61.2361 56.9007C60.7207 57.3943 60.0219 57.672 59.293 57.6728Z" fill="#307BC4"/>
</svg>
