<svg width="80" height="60" viewBox="0 0 80 60" fill="none" xmlns="http://www.w3.org/2000/svg"><path d="M31.9993 41.5713C32.8629 41.5713 33.563 40.886 33.563 40.0408C33.563 39.1955 32.8629 38.5103 31.9993 38.5103C31.1357 38.5103 30.4355 39.1955 30.4355 40.0408C30.4355 40.886 31.1357 41.5713 31.9993 41.5713Z" fill="white"></path><path d="M39.9998 41.5713C40.8634 41.5713 41.5635 40.886 41.5635 40.0408C41.5635 39.1955 40.8634 38.5103 39.9998 38.5103C39.1361 38.5103 38.436 39.1955 38.436 40.0408C38.436 40.886 39.1361 41.5713 39.9998 41.5713Z" fill="white"></path><path d="M48.0003 41.5713C48.8639 41.5713 49.564 40.886 49.564 40.0408C49.564 39.1955 48.8639 38.5103 48.0003 38.5103C47.1366 38.5103 46.4365 39.1955 46.4365 40.0408C46.4365 40.886 47.1366 41.5713 48.0003 41.5713Z" fill="white"></path><path d="M15.0118 41.571C12.9293 41.571 10.8936 40.9667 9.16205 39.8343C7.43051 38.702 6.08092 37.0925 5.28396 35.2095C4.487 33.3264 4.27847 31.2544 4.68472 29.2553C5.09098 27.2563 6.09378 25.42 7.56632 23.9788C9.03885 22.5376 10.915 21.5561 12.9574 21.1585C14.9999 20.7608 17.117 20.9649 19.0409 21.745C20.9649 22.525 22.6093 23.8459 23.7662 25.5406C24.9231 27.2353 25.5406 29.2278 25.5405 31.266C25.5374 33.9981 24.4271 36.6174 22.4533 38.5493C20.4794 40.4812 17.8032 41.5679 15.0118 41.571ZM15.0118 24.0193C13.5474 24.0193 12.1159 24.4442 10.8982 25.2405C9.68061 26.0367 8.73156 27.1685 8.17112 28.4926C7.61067 29.8168 7.464 31.2738 7.74965 32.6796C8.03531 34.0853 8.74045 35.3766 9.77591 36.3901C10.8114 37.4036 12.1307 38.0938 13.5669 38.3734C15.0032 38.6531 16.4919 38.5096 17.8448 37.9611C19.1978 37.4126 20.3541 36.4838 21.1677 35.2921C21.9813 34.1004 22.4155 32.6993 22.4155 31.266C22.4134 29.3448 21.6327 27.5028 20.2447 26.1443C18.8567 24.7857 16.9748 24.0215 15.0118 24.0193Z" fill="white"></path><path d="M28.4616 60.0001H1.5625C1.1481 60.0001 0.750671 59.839 0.457645 59.5522C0.16462 59.2654 0 58.8764 0 58.4708L0 53.2051C0.0181113 49.32 1.60772 45.5999 4.42105 42.8589C7.23439 40.1179 11.0424 38.5791 15.012 38.5791C18.9816 38.5791 22.7897 40.1179 25.603 42.8589C28.4163 45.5999 30.0059 49.32 30.0241 53.2051V58.4708C30.0241 58.6716 29.9836 58.8705 29.9051 59.056C29.8266 59.2416 29.7115 59.4102 29.5664 59.5522C29.4213 59.6942 29.2491 59.8068 29.0595 59.8837C28.8699 59.9605 28.6667 60.0001 28.4616 60.0001ZM3.125 56.9415H26.8991V53.2051C26.8829 50.1299 25.6235 47.1859 23.396 45.0169C21.1685 42.8479 18.1541 41.6303 15.012 41.6303C11.8699 41.6303 8.8556 42.8479 6.62809 45.0169C4.40059 47.1859 3.14111 50.1299 3.125 53.2051V56.9415Z" fill="white"></path><path d="M64.9884 41.571C62.9059 41.571 60.8702 40.9667 59.1386 39.8343C57.4071 38.702 56.0575 37.0925 55.2605 35.2095C54.4636 33.3264 54.255 31.2544 54.6613 29.2553C55.0675 27.2563 56.0703 25.42 57.5429 23.9788C59.0154 22.5376 60.8915 21.5561 62.934 21.1585C64.9765 20.7608 67.0935 20.9649 69.0175 21.745C70.9414 22.525 72.5858 23.8459 73.7428 25.5406C74.8997 27.2353 75.5172 29.2278 75.5171 31.266C75.514 33.9981 74.4037 36.6174 72.4298 38.5493C70.456 40.4812 67.7798 41.5679 64.9884 41.571ZM64.9884 24.0193C63.524 24.0193 62.0924 24.4442 60.8748 25.2405C59.6572 26.0367 58.7081 27.1685 58.1477 28.4926C57.5872 29.8168 57.4406 31.2738 57.7262 32.6796C58.0119 34.0853 58.717 35.3766 59.7525 36.3901C60.7879 37.4036 62.1072 38.0938 63.5435 38.3734C64.9797 38.6531 66.4685 38.5096 67.8214 37.9611C69.1743 37.4126 70.3307 36.4838 71.1443 35.2921C71.9579 34.1004 72.3921 32.6993 72.3921 31.266C72.39 29.3447 71.6093 27.5027 70.2213 26.1442C68.8333 24.7856 66.9514 24.0214 64.9884 24.0193Z" fill="white"></path><path d="M78.4376 60.0001H51.5386C51.1242 60.0001 50.7267 59.839 50.4337 59.5522C50.1407 59.2654 49.9761 58.8764 49.9761 58.4708V53.2051C49.9942 49.32 51.5838 45.5999 54.3971 42.8589C57.2105 40.1179 61.0185 38.5791 64.9881 38.5791C68.9577 38.5791 72.7657 40.1179 75.5791 42.8589C78.3924 45.5999 79.982 49.32 80.0001 53.2051V58.4708C80.0001 58.8764 79.8355 59.2654 79.5425 59.5522C79.2495 59.839 78.852 60.0001 78.4376 60.0001ZM53.1011 56.9415H76.8751V53.2051C76.859 50.1299 75.5995 47.1859 73.372 45.0169C71.1445 42.8479 68.1302 41.6303 64.9881 41.6303C61.846 41.6303 58.8317 42.8479 56.6042 45.0169C54.3767 47.1859 53.1172 50.1299 53.1011 53.2051V56.9415Z" fill="white"></path><path d="M32.8774 30.9142C32.463 30.9142 32.0656 30.7531 31.7726 30.4663C31.4796 30.1795 31.3149 29.7905 31.3149 29.3849V24.8662H29.7524C28.4019 24.8648 27.1071 24.3391 26.1522 23.4045C25.1972 22.4698 24.6601 21.2025 24.6587 19.8807V4.98548C24.6601 3.66367 25.1972 2.39639 26.1522 1.46173C27.1071 0.527073 28.4019 0.00137642 29.7524 0H49.9174C51.268 0.0012956 52.5628 0.526965 53.5178 1.46164C54.4728 2.39632 55.0099 3.66364 55.0112 4.98548V19.8807C55.0098 21.2025 54.4727 22.4698 53.5177 23.4045C52.5627 24.3391 51.2679 24.8648 49.9174 24.8662H39.7043L33.9824 30.4661C33.8374 30.6083 33.6652 30.7211 33.4756 30.798C33.2859 30.8749 33.0827 30.9144 32.8774 30.9142ZM29.7524 3.06041C29.2303 3.06041 28.7295 3.26342 28.3603 3.62478C27.9911 3.98615 27.7837 4.47626 27.7837 4.98731V19.8826C27.7837 20.3936 27.9911 20.8837 28.3603 21.2451C28.7295 21.6065 29.2303 21.8095 29.7524 21.8095H32.8774C33.2918 21.8095 33.6893 21.9706 33.9823 22.2574C34.2753 22.5442 34.4399 22.9332 34.4399 23.3388V25.6939L37.9518 22.2566C38.0968 22.1145 38.269 22.0018 38.4586 21.9249C38.6481 21.848 38.8513 21.8085 39.0565 21.8085H49.9187C50.1772 21.8085 50.4332 21.7587 50.6721 21.6619C50.9109 21.565 51.128 21.4231 51.3108 21.2442C51.4936 21.0652 51.6386 20.8528 51.7376 20.619C51.8365 20.3853 51.8874 20.1347 51.8874 19.8816V4.98639C51.8874 4.73335 51.8365 4.48278 51.7376 4.249C51.6386 4.01522 51.4936 3.8028 51.3108 3.62387C51.128 3.44494 50.9109 3.303 50.6721 3.20617C50.4332 3.10933 50.1772 3.05949 49.9187 3.05949L29.7524 3.06041Z" fill="white"></path></svg>