<svg width="60" height="60" viewBox="0 0 60 60" fill="none" xmlns="http://www.w3.org/2000/svg"><path d="M57.9241 32.4C56.1496 31.1375 53.7878 31.175 52.0633 32.5125L39.9418 41.8375C39.6169 39.3875 37.5175 37.5 34.9932 37.5H14.9989V35C14.9989 34.3125 14.4366 33.75 13.7493 33.75H7.50109C6.93875 33.75 6.43889 34.1375 6.28894 34.6875L0.0407295 58.4375C-0.0592418 58.8125 0.0282332 59.2125 0.265665 59.5125C0.503097 59.825 0.865493 60 1.25288 60H13.7493C14.4366 60 14.9989 59.4375 14.9989 58.75V56.325L36.1054 57.5H36.1804C36.4678 57.5 36.7427 57.4 36.9551 57.225L58.149 40.2625C59.3612 39.2875 60.036 37.8375 59.9985 36.275C59.9485 34.725 59.1987 33.3125 57.9241 32.4ZM12.4872 57.5H2.86492L8.45082 36.25H12.4872V38.75V46.25V55V57.5ZM56.587 38.3125L35.768 54.975L14.9989 53.8125V46.25V40H34.9932C36.3678 40 37.4925 41.125 37.4925 42.5C37.4925 43.875 36.3678 45 34.9932 45H21.2471C20.5598 45 19.9975 45.5625 19.9975 46.25C19.9975 46.9375 20.5598 47.5 21.2471 47.5H34.9932C36.0929 47.5 37.1051 47.1375 37.9299 46.5375C37.9548 46.525 37.9798 46.5 38.0048 46.4875L53.5879 34.4875C54.4376 33.8375 55.5998 33.8125 56.4745 34.4375C57.0993 34.8875 57.4742 35.575 57.4992 36.35C57.5117 37.125 57.1868 37.8375 56.587 38.3125Z" fill="white"></path><path d="M24.9835 20H28.7325V23.75C28.7325 24.4375 29.2948 25 29.9821 25H34.9807C35.668 25 36.2303 24.4375 36.2303 23.75V20H39.9792C40.6665 20 41.2289 19.4375 41.2289 18.75V13.75C41.2289 13.0625 40.6665 12.5 39.9792 12.5H36.2303V8.75C36.2303 8.0625 35.668 7.5 34.9807 7.5H29.9821C29.2948 7.5 28.7325 8.0625 28.7325 8.75V12.5H24.9835C24.2962 12.5 23.7339 13.0625 23.7339 13.75V18.75C23.7339 19.4375 24.2962 20 24.9835 20ZM26.2332 15H29.9821C30.6694 15 31.2317 14.4375 31.2317 13.75V10H33.731V13.75C33.731 14.4375 34.2934 15 34.9807 15H38.7296V17.5H34.9807C34.2934 17.5 33.731 18.0625 33.731 18.75V22.5H31.2317V18.75C31.2317 18.0625 30.6694 17.5 29.9821 17.5H26.2332V15Z" fill="white"></path><path d="M9.98792 26.25C10.6752 26.25 11.2376 25.6875 11.2376 25V17.5H16.2861C16.9234 25.875 23.9464 32.5 32.4815 32.5C41.0165 32.5 48.0395 25.875 48.6768 17.5H53.7254V25C53.7254 25.6875 54.2877 26.25 54.975 26.25C55.6623 26.25 56.2246 25.6875 56.2246 25V16.25C56.2246 15.5625 55.6623 15 54.975 15H48.6768C48.0395 6.625 41.0165 0 32.4815 0C23.9464 0 16.9234 6.625 16.2861 15H9.98792C9.30062 15 8.73828 15.5625 8.73828 16.25V25C8.73828 25.6875 9.30062 26.25 9.98792 26.25ZM32.4815 2.5C40.0668 2.5 46.2275 8.66251 46.2275 16.25C46.2275 23.8375 40.0668 30 32.4815 30C24.8961 30 18.7354 23.8375 18.7354 16.25C18.7354 8.66251 24.9086 2.5 32.4815 2.5Z" fill="white"></path><path d="M9.9004 53.2747C9.67547 52.7247 9.08814 52.4122 8.50081 52.5247C7.63855 52.6997 7.21368 53.6997 7.70104 54.4497C7.88848 54.7372 8.1884 54.9247 8.50081 54.9747C9.46303 55.1747 10.2753 54.1997 9.9004 53.2747Z" fill="white"></path></svg>