<svg width="60" height="60" viewBox="0 0 60 60" fill="none" xmlns="http://www.w3.org/2000/svg"><path d="M37.8559 10.8677H20.2205M15.0254 6.73189H43.0511" stroke="white" stroke-width="2" stroke-miterlimit="10" stroke-linecap="round" stroke-linejoin="round"></path><path d="M15.0254 18.7937L17.2244 20.6572L21.3666 15.7144" stroke="white" stroke-width="2" stroke-miterlimit="10" stroke-linecap="round" stroke-linejoin="round"></path><path d="M15.0254 27.1814L17.2244 29.0449L21.3666 24.1021" stroke="white" stroke-width="2" stroke-miterlimit="10" stroke-linecap="round" stroke-linejoin="round"></path><path d="M15.0254 35.5691L17.2244 37.4326L21.3666 32.4898" stroke="white" stroke-width="2" stroke-miterlimit="10" stroke-linecap="round" stroke-linejoin="round"></path><path d="M15.0254 43.9534L17.2244 45.8203L21.3666 40.8741" stroke="white" stroke-width="2" stroke-miterlimit="10" stroke-linecap="round" stroke-linejoin="round"></path><path d="M35.9029 20.2554H25.8911" stroke="white" stroke-width="2" stroke-miterlimit="10" stroke-linecap="round" stroke-linejoin="round"></path><path d="M32.5811 16.1162H42.9749M25.8911 16.1162H28.4255" stroke="white" stroke-width="2" stroke-miterlimit="10" stroke-linecap="round" stroke-linejoin="round"></path><path d="M35.9029 28.6431H25.8911" stroke="white" stroke-width="2" stroke-miterlimit="10" stroke-linecap="round" stroke-linejoin="round"></path><path d="M25.8911 32.8916H42.9749" stroke="white" stroke-width="2" stroke-miterlimit="10" stroke-linecap="round" stroke-linejoin="round"></path><path d="M33.7571 45.4185H25.8911" stroke="white" stroke-width="2" stroke-miterlimit="10" stroke-linecap="round" stroke-linejoin="round"></path><path d="M36.2882 24.5039H25.8911M42.9749 24.5039H40.4404" stroke="white" stroke-width="2" stroke-miterlimit="10" stroke-linecap="round" stroke-linejoin="round"></path><path d="M27.9837 37.0308H25.8911M35.9029 37.0308H31.0995" stroke="white" stroke-width="2" stroke-miterlimit="10" stroke-linecap="round" stroke-linejoin="round"></path><path d="M37.3811 41.2793H25.8911" stroke="white" stroke-width="2" stroke-miterlimit="10" stroke-linecap="round" stroke-linejoin="round"></path><mask id="mask0_31_29" maskUnits="userSpaceOnUse" x="0" y="0" width="60" height="60" style="mask-type: luminance;"><path d="M0 0H60V60H0V0Z" fill="white"></path></mask><g mask="url(#mask0_31_29)"><path d="M48.5058 23.7232V42.9335M38.6268 51.6733H10.797C10.1227 51.6733 9.57129 51.1219 9.57129 50.4443V2.10455C9.57129 1.43013 10.1227 0.878767 10.797 0.878767H47.28C47.9543 0.878767 48.5058 1.43013 48.5058 2.10455V19.6672" stroke="white" stroke-width="2" stroke-miterlimit="10" stroke-linecap="round" stroke-linejoin="round"></path><path d="M5.03711 31.9713V6.63885C5.03711 5.96443 5.58859 5.41307 6.26277 5.41307H9.57133M40.0586 56.2075H6.26277C5.58859 56.2075 5.03711 55.6529 5.03711 54.9785V36.0306" stroke="white" stroke-width="2" stroke-miterlimit="10" stroke-linecap="round" stroke-linejoin="round"></path><path d="M44.2139 51.3502L45.9744 52.9048L49.2896 48.789" stroke="white" stroke-width="2" stroke-miterlimit="10" stroke-linecap="round" stroke-linejoin="round"></path><path d="M54.9629 50.936C54.9629 47.0095 52.1959 43.7275 48.5054 42.9336C47.9507 42.814 47.3694 42.7509 46.7781 42.7509C42.2571 42.7509 38.5933 46.4149 38.5933 50.936C38.5933 51.1852 38.6032 51.431 38.6264 51.6735C38.7792 53.3909 39.4636 54.9587 40.5165 56.2077C42.0181 57.9884 44.2669 59.1211 46.7781 59.1211C51.299 59.1211 54.9629 55.457 54.9629 50.936Z" stroke="white" stroke-width="2" stroke-miterlimit="10" stroke-linecap="round" stroke-linejoin="round"></path></g></svg>