<svg width="64" height="60" viewBox="0 0 64 60" fill="none" xmlns="http://www.w3.org/2000/svg"><path d="M49.0382 8.94469C49.0661 8.94669 49.0939 8.94868 49.1223 8.94868C49.1704 8.94868 49.2185 8.94469 49.2656 8.93821C50.5257 8.96364 51.5343 9.97569 51.5358 11.2166C51.5358 11.7804 52.0001 12.2376 52.5727 12.2376C53.1453 12.2376 53.6096 11.7804 53.6096 11.2166C53.6071 9.18699 52.1722 7.43109 50.1592 6.99436V6.01322C50.1592 5.44936 49.6949 4.99219 49.1223 4.99219C48.5497 4.99219 48.0854 5.44936 48.0854 6.01322V7.04073C45.9569 7.6011 44.5798 9.6287 44.8668 11.7799C45.1539 13.9312 47.0161 15.5395 49.2195 15.5395C50.4989 15.5395 51.5358 16.561 51.5358 17.8209C51.5358 19.0802 50.4989 20.1017 49.2195 20.1017C47.9401 20.1017 46.9032 19.0802 46.9032 17.8209C46.9032 17.257 46.4389 16.7998 45.8663 16.7998C45.2937 16.7998 44.8294 17.257 44.8294 17.8209C44.8319 19.7772 46.1665 21.4887 48.0854 21.9967V23.1155C48.0854 23.6793 48.5497 24.1365 49.1223 24.1365C49.6949 24.1365 50.1592 23.6793 50.1592 23.1155V22.0436C52.3489 21.5715 53.8258 19.5503 53.5843 17.3557C53.3433 15.1611 51.4614 13.498 49.2195 13.4984C47.9755 13.4989 46.9533 12.5318 46.9042 11.3078C46.8556 10.0839 47.7978 9.04041 49.0382 8.94519V8.94469Z" fill="white"></path><path d="M49.2794 0C42.9006 0 37.4569 4.09858 35.4175 9.58662H9.68192C9.11183 9.58662 8.64907 10.0926 8.64502 10.6535L8.39997 46.4713H1.06424C0.491614 46.4713 0 46.8797 0 47.4445V51.9898C0.0131637 56.2689 3.43573 59.7841 7.77672 59.9776V60H39.7909V59.9701C40.0501 59.9796 40.157 60 40.321 60H40.3433C44.8361 59.993 48.4749 56.4045 48.4749 51.9803V28.9992C48.7341 29.0131 49.0085 29.0206 49.2769 29.0206C57.3943 29.0206 64 22.5036 64 14.5098C64 6.51655 57.3974 0 49.2794 0ZM8.17113 57.9579H8.16455C4.81033 57.9535 2.08898 55.2827 2.07379 51.9793V48.5134H32.1438V51.9649C32.1453 54.0957 33.0096 56.1382 34.5446 57.6404C34.6535 57.7476 34.7887 57.8303 34.9026 57.9579H8.17113ZM46.4011 51.9793C46.4016 55.2767 43.6904 57.9515 40.3423 57.9579H40.3225C36.9607 57.952 34.2343 55.2757 34.2176 51.9659V47.4445C34.2262 47.1833 34.1249 46.9305 33.9371 46.746C33.7493 46.5616 33.4926 46.4624 33.2278 46.4713H10.4738L10.7117 11.6287H34.8418C34.6581 12.5635 34.5629 13.5127 34.5578 14.4644C34.5558 16.4771 34.9821 18.4673 35.8094 20.3074H26.0156C25.4424 20.3074 24.9787 20.7646 24.9787 21.3285C24.9787 21.8923 25.4424 22.3495 26.0156 22.3495H36.9344C39.0735 25.6619 42.493 27.9712 46.4011 28.7439V51.9793ZM49.2794 26.979C42.2945 26.979 36.6316 21.4033 36.6321 14.5248C36.6321 7.64626 42.2945 2.07048 49.2799 2.07048C56.2648 2.07048 61.9272 7.64676 61.9272 14.5248C61.9196 21.3998 56.2618 26.9716 49.2794 26.979Z" fill="white"></path><path d="M19.3603 27.1025C17.53 27.1025 16.0415 28.5219 16.0415 30.2668C16.0415 32.0118 17.53 33.4311 19.3603 33.4311C21.1905 33.4311 22.6796 32.0118 22.6796 30.2668C22.6796 28.5219 21.1905 27.1025 19.3603 27.1025ZM19.3603 31.3891C18.6732 31.3891 18.1153 30.8855 18.1153 30.2668C18.1153 29.6476 18.6737 29.1446 19.3603 29.1446C20.0468 29.1446 20.6058 29.6481 20.6058 30.2668C20.6058 30.8855 20.0468 31.3891 19.3603 31.3891Z" fill="white"></path><path d="M24.979 30.2627C24.979 30.8266 25.4428 31.2838 26.0159 31.2838H39.8398C40.4125 31.2838 40.8767 30.8266 40.8767 30.2627C40.8767 29.6989 40.4125 29.2417 39.8398 29.2417H26.0159C25.4428 29.2417 24.979 29.6989 24.979 30.2627Z" fill="white"></path><path d="M19.3603 18.2271C17.53 18.2271 16.0415 19.6469 16.0415 21.3918C16.0415 23.1368 17.53 24.5561 19.3603 24.5561C21.1905 24.5561 22.6796 23.1368 22.6796 21.3918C22.6796 19.6469 21.1905 18.2271 19.3603 18.2271ZM19.3603 22.5141C18.6732 22.5141 18.1153 22.0105 18.1153 21.3918C18.1153 20.7731 18.6737 20.2691 19.3603 20.2691C20.0468 20.2691 20.6058 20.7726 20.6058 21.3918C20.6058 22.0105 20.0468 22.5146 19.3603 22.5146V22.5141Z" fill="white"></path><path d="M19.3603 35.9775C17.53 35.9775 16.0415 37.3969 16.0415 39.1418C16.0415 40.8868 17.53 42.3061 19.3603 42.3061C21.1905 42.3061 22.6796 40.8868 22.6796 39.1418C22.6796 37.3969 21.1905 35.9775 19.3603 35.9775ZM19.3603 40.2641C18.6732 40.2641 18.1153 39.761 18.1153 39.1418C18.1153 38.5231 18.6737 38.0196 19.3603 38.0196C20.0468 38.0196 20.6058 38.5231 20.6058 39.1418C20.6058 39.7605 20.0468 40.2641 19.3603 40.2641Z" fill="white"></path><path d="M39.8398 38.1753H26.0159C25.4428 38.1753 24.979 38.6325 24.979 39.1963C24.979 39.7602 25.4428 40.2174 26.0159 40.2174H39.8398C40.4125 40.2174 40.8767 39.7602 40.8767 39.1963C40.8767 38.6325 40.4125 38.1753 39.8398 38.1753Z" fill="white"></path></svg>