<svg width="60" height="60" viewBox="0 0 60 60" fill="none" xmlns="http://www.w3.org/2000/svg">
  <path d="M53.5714 4.28571H45V2.14286C45 1.57454 44.7742 1.02949 44.3724 0.627628C43.9705 0.225765 43.4255 0 42.8571 0C42.2888 0 41.7438 0.225765 41.3419 0.627628C40.94 1.02949 40.7143 1.57454 40.7143 2.14286V4.28571H19.2857V2.14286C19.2857 1.57454 19.0599 1.02949 18.6581 0.627628C18.2562 0.225765 17.7112 0 17.1429 0C16.5745 0 16.0295 0.225765 15.6276 0.627628C15.2258 1.02949 15 1.57454 15 2.14286V4.28571H6.42857C4.72361 4.28571 3.08848 4.96301 1.88289 6.1686C0.677294 7.37419 0 9.00932 0 10.7143V53.5714C0 55.2764 0.677294 56.9115 1.88289 58.1171C3.08848 59.3227 4.72361 60 6.42857 60H53.5714C55.2764 60 56.9115 59.3227 58.1171 58.1171C59.3227 56.9115 60 55.2764 60 53.5714V10.7143C60 9.00932 59.3227 7.37419 58.1171 6.1686C56.9115 4.96301 55.2764 4.28571 53.5714 4.28571ZM6.42857 8.57143H53.5714C54.1397 8.57143 54.6848 8.79719 55.0867 9.19906C55.4885 9.60092 55.7143 10.146 55.7143 10.7143V17.1429H4.28571V10.7143C4.28571 10.146 4.51148 9.60092 4.91334 9.19906C5.31521 8.79719 5.86025 8.57143 6.42857 8.57143ZM53.5714 55.7143H6.42857C5.86025 55.7143 5.31521 55.4885 4.91334 55.0867C4.51148 54.6848 4.28571 54.1397 4.28571 53.5714V21.4286H55.7143V53.5714C55.7143 54.1397 55.4885 54.6848 55.0867 55.0867C54.6848 55.4885 54.1397 55.7143 53.5714 55.7143Z" fill="white"></path>
  <path d="M39.3218 28.374L25.8218 39.9455L20.7946 34.9205C20.3905 34.5301 19.8492 34.3141 19.2873 34.319C18.7255 34.3239 18.188 34.5493 17.7907 34.9466C17.3934 35.3439 17.168 35.8813 17.1632 36.4432C17.1583 37.005 17.3743 37.5463 17.7646 37.9505L24.1932 44.379C24.5749 44.7602 25.0863 44.9834 25.6253 45.004C26.1643 45.0247 26.6913 44.8413 27.101 44.4905L42.101 31.6333C42.3268 31.4542 42.5142 31.2314 42.6519 30.9783C42.7896 30.7251 42.8748 30.4467 42.9025 30.1599C42.9301 29.873 42.8996 29.5835 42.8128 29.3087C42.7259 29.0339 42.5845 28.7794 42.3971 28.5605C42.2096 28.3416 41.9799 28.1628 41.7217 28.0347C41.4636 27.9067 41.1822 27.832 40.8945 27.8152C40.6068 27.7984 40.3186 27.8398 40.0473 27.9369C39.776 28.034 39.527 28.1849 39.3153 28.3805L39.3218 28.374Z" fill="white"></path>
</svg>